{"glyphs":{":":{"x_min":0,"x_max":211,"ha":211,"o":"m 100 179 b 133 179 149 216 149 231 b 149 252 136 267 103 267 b 68 267 55 248 55 231 b 55 215 66 179 100 179 z m 102 238 b 110 238 117 231 117 223 b 117 215 110 208 102 208 b 94 208 87 215 87 223 b 87 231 94 238 102 238 z m 103 91 b 68 91 55 72 55 56 b 55 40 66 5 100 5 b 133 5 149 40 149 56 b 149 77 136 91 103 91 z m 102 45 b 94 45 87 51 87 60 b 87 68 94 75 102 75 b 110 75 117 68 117 60 b 117 51 110 45 102 45 z"},"$":{"x_min":0,"x_max":273,"ha":273,"o":"m 25 523 l 25 527 l 28 526 b 28 525 28 525 29 525 b 30 525 31 526 31 527 b 31 528 31 530 29 530 l 24 532 l 24 536 l 30 535 b 31 534 31 534 31 534 b 33 535 34 536 34 536 l 35 542 l 39 540 l 38 535 b 38 534 38 533 40 532 b 41 532 42 533 43 534 l 43 538 l 47 536 b 47 535 48 535 48 535 b 49 535 50 536 50 537 b 51 538 51 539 49 540 l 46 542 l 49 544 b 50 545 50 547 49 548 b 48 549 46 549 45 548 l 41 545 l 38 547 l 42 551 b 43 552 43 552 43 553 b 43 554 43 554 42 555 l 38 559 l 41 561 l 45 558 b 46 557 46 557 47 557 b 48 557 48 557 49 558 b 50 559 50 561 49 561 l 46 564 l 49 566 b 51 566 51 568 50 569 b 50 570 48 571 47 570 l 44 568 l 43 572 b 43 573 41 574 40 574 b 38 573 38 572 38 571 l 39 566 l 35 563 l 34 569 b 34 570 33 571 33 571 b 32 571 31 572 31 571 l 25 569 l 25 574 l 29 575 b 31 576 31 577 31 579 b 31 580 29 581 28 580 l 25 579 l 25 583 b 25 585 23 586 22 586 b 21 586 19 585 19 583 l 19 579 l 16 580 b 15 581 13 580 13 579 b 13 577 13 576 15 575 l 19 574 l 19 569 l 14 571 b 13 572 12 572 11 571 b 11 571 10 570 10 570 l 9 563 l 5 566 l 6 571 b 6 572 6 573 4 574 b 3 574 1 573 1 572 l 0 568 l -3 570 b -4 571 -6 571 -6 569 b -7 568 -7 567 -5 566 l -2 564 l -5 562 b -6 561 -6 559 -5 558 b -4 557 -4 557 -3 557 b -2 557 -2 557 -1 558 l 3 561 l 6 559 l 2 555 b 1 554 1 554 1 553 b 1 552 1 552 2 551 l 6 547 l 3 545 l -1 548 b -2 549 -4 549 -5 548 b -6 547 -6 545 -5 544 l -2 542 l -5 540 b -7 540 -7 538 -6 537 b -6 536 -5 535 -4 535 b -4 535 -3 536 -3 536 l 0 538 l 1 534 b 1 533 2 532 4 532 b 6 533 6 534 6 535 l 5 540 l 9 543 l 10 536 b 10 536 11 535 11 535 b 12 534 13 534 14 535 l 19 537 l 19 532 l 15 530 b 13 530 13 529 13 527 b 13 526 14 525 15 525 b 16 525 16 526 16 526 l 19 527 l 19 523 b 19 521 21 520 22 520 b 23 520 25 521 25 523 z m 29 540 l 25 542 l 25 546 b 25 546 26 547 27 547 l 30 545 z m 33 556 l 37 553 l 33 550 l 29 552 b 30 552 30 553 30 553 b 30 553 30 554 29 554 z m 25 564 l 29 566 l 30 561 l 27 559 b 26 559 25 560 25 560 z m 15 566 l 19 564 l 19 560 b 18 560 18 559 17 559 l 14 561 z m 11 550 l 7 553 l 11 556 l 14 554 b 14 552 14 552 14 552 z m 19 542 l 15 540 l 14 545 l 17 547 b 18 546 18 546 19 546 z m 19 553 b 19 554 21 555 22 555 b 23 555 25 554 25 553 b 25 552 23 550 22 550 b 21 550 19 552 19 553 z m 236 -75 l 240 -72 b 242 -70 242 -67 240 -66 b 239 -64 236 -64 234 -65 l 228 -71 l 221 -67 l 229 -60 b 230 -60 231 -58 231 -57 b 231 -56 230 -55 229 -54 l 221 -47 l 228 -43 l 234 -49 b 235 -50 236 -50 237 -50 b 238 -50 239 -50 240 -49 b 242 -47 242 -44 240 -43 l 236 -39 l 241 -36 b 243 -35 244 -32 243 -30 b 242 -28 239 -27 237 -28 l 231 -31 l 230 -26 b 230 -24 228 -22 225 -23 b 223 -23 221 -25 222 -28 l 224 -36 l 217 -40 l 215 -30 b 215 -28 214 -27 213 -27 b 212 -26 211 -26 210 -26 l 200 -30 l 200 -22 l 208 -19 b 210 -19 211 -16 210 -14 b 210 -12 207 -11 205 -11 l 199 -13 l 199 -7 b 199 -4 198 -2 195 -2 b 193 -2 191 -4 191 -7 l 191 -13 l 186 -11 b 183 -10 181 -12 180 -14 b 179 -16 181 -19 183 -19 l 191 -22 l 191 -30 l 181 -26 b 180 -26 179 -26 178 -27 b 176 -27 176 -28 175 -29 l 173 -40 l 167 -36 l 169 -28 b 169 -25 168 -23 165 -22 b 163 -22 161 -23 160 -26 l 159 -31 l 154 -28 b 151 -27 149 -28 148 -30 b 146 -32 147 -34 149 -36 l 155 -39 l 151 -43 b 149 -44 149 -47 150 -49 b 151 -50 152 -50 153 -50 b 154 -50 155 -50 156 -49 l 163 -43 l 169 -47 l 161 -54 b 160 -55 160 -56 160 -57 b 160 -58 160 -59 161 -60 l 169 -67 l 163 -71 l 156 -65 b 155 -63 152 -64 150 -65 b 149 -67 149 -70 151 -71 l 155 -75 l 149 -79 b 147 -80 147 -82 148 -84 b 149 -86 150 -87 151 -87 b 152 -87 153 -86 154 -86 l 159 -83 l 160 -89 b 161 -90 162 -92 165 -92 b 168 -91 169 -89 169 -87 l 167 -78 l 173 -75 l 175 -85 b 176 -86 176 -87 178 -88 b 179 -88 180 -88 181 -88 l 191 -85 l 191 -92 l 183 -95 b 181 -96 179 -98 180 -100 b 181 -102 182 -103 185 -103 l 191 -101 l 191 -108 b 191 -110 193 -112 195 -112 b 198 -112 199 -110 199 -108 l 199 -101 l 205 -103 b 208 -103 210 -102 210 -100 b 211 -98 210 -96 207 -95 l 199 -92 l 199 -85 l 209 -88 b 210 -88 210 -88 211 -88 b 211 -88 212 -88 213 -88 b 214 -87 215 -86 215 -85 l 217 -75 l 223 -78 l 222 -87 b 221 -89 223 -91 225 -92 b 228 -92 230 -91 230 -89 l 231 -83 l 237 -86 b 237 -87 238 -87 239 -87 b 240 -87 242 -86 243 -85 b 244 -83 243 -80 241 -79 z m 183 -36 l 191 -38 l 191 -45 b 189 -46 188 -46 187 -47 l 181 -44 z m 177 -63 l 171 -57 l 177 -51 l 182 -55 b 182 -56 182 -56 182 -57 b 182 -58 182 -59 182 -60 z m 191 -76 l 183 -78 l 181 -70 l 187 -67 b 188 -68 189 -69 191 -69 z m 195 -62 b 193 -62 191 -60 191 -57 b 191 -55 193 -53 195 -53 b 198 -53 199 -55 199 -57 b 199 -60 198 -62 195 -62 z m 199 -38 l 208 -36 l 209 -44 l 204 -47 b 202 -46 201 -46 199 -45 z m 208 -78 l 200 -76 l 200 -69 b 201 -69 202 -68 204 -67 l 209 -70 z m 214 -63 l 208 -59 b 208 -59 208 -58 208 -57 b 208 -56 208 -56 208 -55 l 214 -51 l 220 -57 z m 241 192 b 241 296 119 352 119 419 b 119 442 146 447 156 447 b 179 447 186 423 186 409 b 186 402 195 398 203 398 b 212 398 220 402 220 409 b 220 423 219 479 163 489 b 164 522 163 548 161 556 b 158 567 148 574 127 574 b 111 574 111 569 107 565 b 101 553 96 524 93 485 b 36 471 21 435 21 416 b 21 347 157 256 157 175 b 157 130 126 124 110 124 b 81 124 75 193 75 202 b 75 205 62 207 49 207 b 38 207 28 206 28 202 b 28 171 29 98 87 80 b 89 45 92 18 96 6 b 98 1 104 -1 111 -1 b 120 -1 128 2 130 6 b 133 13 136 41 140 78 b 197 89 241 136 241 192 z m 165 123 b 165 122 164 122 164 122 b 163 122 162 123 162 123 b 161 124 161 126 162 127 b 211 165 188 218 153 274 b 151 273 148 272 146 272 b 138 272 131 279 131 287 b 131 292 133 296 136 298 b 134 303 131 307 128 311 b 95 359 63 405 76 438 b 77 440 78 440 80 440 b 81 439 82 438 81 437 b 69 406 100 361 132 314 b 135 310 138 305 141 301 b 142 302 144 302 146 302 b 154 302 161 296 161 287 b 161 283 159 280 157 277 b 193 221 218 163 165 123 z"},"?":{"x_min":0,"x_max":277,"ha":277,"o":"m 196 -19 b 197 -19 198 -19 198 -20 b 200 -20 202 -21 206 -21 b 207 -21 207 -20 207 -20 b 208 -19 207 -18 206 -18 b 205 -17 204 -17 203 -17 b 202 -17 201 -16 201 -16 b 203 -15 203 -15 205 -12 b 204 -11 203 -10 202 -11 b 200 -12 199 -12 199 -13 b 199 -12 199 -10 200 -8 b 200 -7 200 -7 199 -5 b 198 -5 197 -6 196 -7 b 196 -8 196 -9 196 -10 b 195 -12 195 -13 194 -16 b 192 -17 191 -17 189 -18 b 188 -19 187 -20 186 -20 b 186 -20 186 -19 186 -18 b 186 -16 186 -14 186 -11 b 187 -10 187 -10 188 -9 b 189 -8 190 -7 193 -4 b 193 -4 193 -2 193 -2 b 192 -1 191 -1 190 -2 b 189 -3 188 -3 187 -4 b 187 -5 186 -5 186 -6 b 186 -5 186 -4 186 -4 b 186 -3 186 -2 186 -2 b 186 -1 185 0 184 0 b 183 0 182 -1 182 -3 b 182 -4 182 -5 182 -6 b 181 -5 180 -4 178 -2 b 178 -1 176 -1 176 -2 b 175 -2 175 -4 176 -4 b 176 -5 177 -6 178 -7 b 179 -8 181 -9 182 -11 b 182 -13 182 -15 182 -17 b 182 -18 182 -19 182 -20 b 182 -20 181 -20 180 -19 b 179 -18 177 -17 174 -16 b 174 -15 174 -14 173 -13 b 173 -11 173 -10 172 -7 b 172 -6 171 -6 171 -5 b 170 -5 170 -5 169 -5 b 168 -6 168 -7 168 -8 b 168 -9 169 -10 169 -11 b 169 -12 169 -12 168 -12 b 167 -12 167 -11 165 -11 b 164 -11 164 -11 164 -12 b 163 -13 163 -14 164 -14 b 166 -15 167 -16 168 -16 b 166 -17 165 -17 161 -20 b 161 -21 162 -22 163 -21 b 164 -21 165 -21 167 -21 b 168 -20 170 -20 172 -19 b 174 -20 175 -21 177 -22 b 178 -22 179 -23 180 -24 b 180 -24 179 -24 178 -25 b 177 -26 175 -27 172 -28 b 171 -28 171 -28 170 -28 b 168 -27 166 -27 161 -27 b 161 -28 161 -29 162 -30 b 163 -30 164 -30 166 -30 b 166 -31 167 -31 168 -31 b 167 -31 166 -32 166 -32 b 165 -32 165 -33 164 -35 b 164 -36 165 -37 166 -36 b 168 -35 169 -35 169 -34 b 169 -36 169 -37 168 -38 b 168 -39 168 -39 169 -42 b 170 -42 171 -42 172 -41 b 172 -39 172 -38 173 -37 b 173 -35 174 -34 174 -32 b 176 -31 177 -30 179 -29 b 180 -28 181 -28 182 -27 b 182 -28 182 -28 182 -29 b 182 -31 182 -33 182 -36 b 182 -36 177 -42 176 -43 b 175 -43 175 -45 176 -45 b 176 -46 178 -46 178 -45 b 179 -45 180 -44 182 -42 b 182 -42 182 -43 182 -45 b 182 -46 183 -47 184 -47 b 185 -47 186 -46 186 -44 b 186 -43 186 -42 186 -42 b 187 -43 188 -44 190 -45 b 191 -46 192 -46 193 -45 b 193 -45 193 -43 193 -43 b 192 -42 191 -41 190 -40 b 189 -39 188 -38 186 -36 b 186 -34 186 -32 186 -31 b 186 -29 186 -28 186 -27 b 187 -27 187 -28 188 -28 b 190 -29 191 -30 194 -32 b 194 -32 194 -33 195 -34 b 195 -36 196 -38 196 -39 b 196 -40 196 -40 197 -42 b 198 -42 198 -42 199 -42 b 200 -42 200 -41 200 -40 b 200 -38 200 -37 199 -36 b 201 -36 201 -36 203 -36 b 204 -36 204 -36 205 -35 b 205 -35 205 -33 203 -32 b 202 -32 201 -31 201 -31 b 202 -31 203 -30 207 -29 b 207 -28 207 -28 207 -27 b 207 -26 206 -26 205 -26 b 204 -26 203 -26 202 -27 b 200 -27 198 -28 196 -28 b 194 -27 193 -26 191 -25 b 190 -25 189 -24 188 -24 b 189 -23 189 -23 190 -22 b 192 -22 193 -21 196 -19 z m 40 608 b 40 610 40 611 40 612 b 42 611 43 609 45 608 b 45 607 45 607 46 606 b 47 605 49 605 50 606 b 51 608 51 609 50 610 b 49 612 48 613 46 614 b 44 616 42 618 40 620 b 40 623 40 626 40 629 b 40 631 40 632 40 634 b 41 634 42 633 43 633 b 46 631 48 630 52 627 b 52 626 53 625 53 624 b 54 621 55 618 55 616 b 55 615 56 614 56 614 b 56 613 56 612 57 612 b 58 612 59 612 59 612 b 61 612 62 614 61 615 b 61 616 60 622 59 623 b 60 623 61 622 62 622 b 63 621 63 621 64 620 b 65 620 66 620 66 620 b 67 620 68 621 68 621 b 69 623 69 625 67 625 b 64 627 63 628 62 628 b 64 629 66 629 68 630 b 69 630 70 630 70 630 b 71 631 72 631 72 632 b 72 632 72 633 72 634 b 72 636 70 637 69 636 b 67 636 65 635 64 635 b 61 634 58 633 55 632 b 53 634 50 635 48 637 b 46 638 45 638 43 639 b 44 640 45 641 46 641 b 48 643 51 644 55 646 b 56 646 58 646 59 645 b 61 645 64 644 67 643 b 67 643 68 643 69 643 b 69 643 70 643 71 643 b 71 643 72 644 72 645 b 73 646 72 648 70 648 b 68 649 67 649 65 650 b 64 650 63 650 62 650 b 63 651 66 653 67 653 b 68 654 68 654 69 655 b 69 656 69 657 68 657 b 67 659 66 659 64 658 b 62 657 60 656 59 656 b 60 658 60 660 61 663 b 62 664 61 665 61 666 b 61 666 60 667 59 667 b 58 667 56 667 56 665 b 55 663 55 662 54 660 b 54 657 53 655 52 651 b 50 650 47 649 45 647 b 43 646 42 645 40 644 b 40 646 40 647 40 648 b 40 651 40 654 40 658 b 41 659 42 660 43 661 b 45 663 47 665 50 668 b 51 669 51 671 50 672 b 49 674 47 674 46 672 b 45 671 43 670 42 669 b 41 668 41 667 40 667 b 40 668 40 669 40 670 b 40 671 40 671 40 672 b 40 674 39 675 37 675 b 36 675 34 674 34 671 b 34 669 34 668 34 667 b 33 668 31 670 30 671 b 29 672 29 672 28 672 b 27 674 25 674 24 672 b 23 671 23 669 24 668 b 25 667 27 666 28 665 b 30 663 32 661 34 658 b 34 656 34 653 34 650 b 34 648 34 646 34 644 b 33 645 32 646 31 646 b 29 648 26 649 24 651 b 23 651 23 651 22 651 b 22 653 21 654 21 655 b 20 658 20 661 19 663 b 19 664 19 664 19 665 b 18 666 18 666 17 667 b 17 667 16 667 15 667 b 13 667 12 665 13 663 b 13 662 14 660 14 658 b 14 658 15 657 15 656 b 14 656 13 657 12 657 b 12 658 11 658 10 658 b 9 659 9 659 8 659 b 7 659 6 658 6 657 b 5 656 6 654 7 653 b 8 653 8 653 9 652 b 10 652 11 651 12 650 b 10 650 5 649 4 648 b 3 648 3 648 2 647 b 2 646 2 645 2 645 b 3 643 4 642 6 643 b 7 643 9 644 11 644 b 13 645 16 645 19 646 b 22 645 24 644 26 642 b 28 641 30 640 31 639 b 30 639 29 638 28 638 b 26 636 23 635 21 633 b 20 633 20 633 19 632 b 18 633 17 633 15 633 b 13 634 10 635 6 636 b 5 636 4 636 3 636 b 3 635 2 635 2 634 b 2 633 3 631 4 630 b 6 630 7 630 9 629 b 10 629 11 629 12 628 b 11 628 10 627 9 627 b 9 626 8 626 6 624 b 6 623 6 622 6 621 b 7 620 9 620 10 620 b 11 621 11 621 12 621 b 13 622 14 623 15 623 b 14 621 14 619 13 617 b 13 617 13 616 13 615 b 13 615 13 614 13 613 b 14 612 14 612 15 612 b 16 611 18 612 19 614 b 19 618 21 624 22 627 b 25 629 27 630 29 632 b 31 632 33 633 34 634 b 34 633 34 632 34 631 b 34 628 34 625 34 622 b 34 622 34 621 34 620 b 33 620 32 619 31 618 b 29 616 28 614 26 612 b 25 611 25 611 24 610 b 23 609 23 607 24 606 b 25 605 27 605 28 606 b 30 608 31 609 32 610 b 33 611 33 611 34 612 b 34 611 34 610 34 609 b 34 608 34 607 34 606 b 34 605 36 603 37 604 b 40 604 40 605 40 608 z m 84 55 b 50 55 37 36 37 20 b 37 4 48 -31 81 -31 b 114 -31 130 4 130 20 b 130 41 117 55 84 55 z m 84 0 b 76 0 69 7 69 15 b 69 23 76 30 84 30 b 93 30 99 23 99 15 b 99 7 93 0 84 0 z m 72 457 b 80 457 88 463 88 474 b 88 497 104 535 128 535 b 151 535 155 497 155 460 b 155 354 24 186 57 91 b 59 85 70 81 79 81 b 87 81 94 84 94 91 b 94 212 234 350 234 460 b 234 497 231 579 130 579 b 56 579 54 500 54 475 b 54 463 63 457 72 457 z m 165 540 b 166 541 167 541 168 540 b 183 525 189 504 191 481 b 198 480 204 474 204 466 b 204 458 198 452 191 451 b 189 428 184 404 178 382 b 177 381 176 380 175 380 b 175 380 175 380 175 381 b 173 381 172 382 173 384 b 179 405 184 429 186 452 b 179 453 174 459 174 466 b 174 473 179 479 186 480 b 184 502 178 522 165 537 b 164 538 164 539 165 540 z"},"<":{"x_min":0,"x_max":329,"ha":329,"o":"m 284 401 b 278 413 275 412 271 414 b 226 414 65 322 32 288 b 24 282 20 268 24 258 b 61 223 237 142 274 142 b 281 142 288 164 284 168 b 274 181 159 242 91 273 b 159 300 278 355 291 370 b 295 375 294 385 284 401 z m 54 406 b 53 406 51 406 50 407 b 47 407 45 408 42 409 b 41 409 41 409 40 409 b 39 409 39 409 38 409 b 37 409 37 408 37 407 b 36 406 37 404 39 404 b 40 403 42 403 44 402 b 45 402 46 402 47 401 b 46 401 45 400 44 400 b 43 399 42 399 42 399 b 41 398 40 397 40 397 b 40 396 40 395 41 395 b 41 393 43 393 45 393 b 47 395 48 396 50 396 b 49 394 48 392 48 390 b 48 390 48 389 47 388 b 47 388 47 387 49 385 b 51 384 53 385 53 387 b 53 389 54 390 54 392 b 55 394 56 397 57 400 b 59 402 61 403 64 405 b 66 406 67 406 69 407 b 69 406 69 405 69 404 b 69 401 69 398 69 394 b 68 393 67 392 66 391 b 64 389 62 387 59 384 b 58 382 58 380 59 379 b 60 378 62 378 63 379 b 64 381 65 382 67 383 b 67 384 68 385 69 385 b 69 384 69 383 69 382 b 69 381 69 380 69 379 b 69 378 70 377 72 377 b 75 377 75 379 75 381 b 75 383 75 384 75 385 b 76 384 78 382 79 381 b 80 380 80 380 80 379 b 81 378 83 378 85 379 b 86 381 86 382 85 384 b 83 385 82 386 81 387 b 79 389 77 391 75 394 b 75 396 75 399 75 402 b 75 404 75 406 75 407 b 76 407 76 406 77 406 b 80 404 83 403 85 401 b 86 401 86 401 87 400 b 87 399 87 398 88 397 b 88 394 89 391 90 389 b 90 388 90 387 90 387 b 90 386 91 385 92 385 b 94 385 96 385 96 388 b 95 390 95 392 95 393 b 94 394 94 395 94 396 b 95 396 96 395 96 395 b 97 394 98 394 99 393 b 99 393 100 393 101 393 b 102 393 102 394 103 395 b 103 396 103 398 102 399 b 101 399 101 399 100 399 b 99 400 98 401 97 401 b 99 402 101 402 103 403 b 103 403 104 403 106 405 b 107 406 107 406 107 407 b 106 409 105 410 103 409 b 101 409 100 408 98 408 b 95 407 93 406 90 406 b 87 407 85 408 82 410 b 81 411 79 412 77 412 b 78 413 79 414 80 414 b 83 416 86 417 88 419 b 89 419 89 419 90 419 b 91 419 92 419 93 418 b 96 418 99 417 101 416 b 102 416 103 416 103 416 b 104 416 105 416 105 416 b 106 416 107 417 107 418 b 107 419 106 421 105 421 b 103 422 101 422 100 423 b 99 423 98 423 97 424 b 98 424 98 425 99 425 b 100 426 101 426 102 426 b 102 427 103 427 103 428 b 103 429 103 430 103 430 b 102 432 100 432 99 431 b 98 431 98 431 97 431 b 96 430 95 429 94 429 b 94 431 95 433 95 435 b 96 435 96 436 96 437 b 96 437 96 438 96 439 b 95 439 95 440 94 440 b 92 440 91 440 90 438 b 90 436 89 435 89 433 b 88 430 88 428 87 424 b 84 423 82 422 79 420 b 78 419 76 418 75 418 b 75 419 75 420 75 421 b 75 424 75 427 75 431 b 76 432 76 433 77 434 b 79 436 81 438 83 440 b 84 441 84 441 85 441 b 86 442 86 444 85 446 b 83 447 82 447 80 446 b 79 444 78 443 77 442 b 76 441 75 440 75 440 b 75 441 75 442 75 443 b 75 445 75 448 72 448 b 70 448 69 447 69 444 b 69 442 69 441 69 440 b 67 441 66 443 64 444 b 64 445 63 445 63 446 b 62 447 60 447 59 446 b 58 444 58 443 59 441 b 60 440 61 439 62 438 b 64 436 66 434 69 431 b 69 429 69 426 69 423 b 69 421 69 419 69 418 b 68 418 67 419 66 419 b 63 421 61 422 57 424 b 56 426 56 427 56 428 b 55 431 54 434 54 436 b 54 436 52 440 52 440 b 51 440 50 440 49 440 b 48 440 47 438 47 437 b 48 435 48 433 49 432 b 49 431 49 430 50 429 b 49 429 48 430 47 430 b 46 431 45 431 45 431 b 44 432 43 432 42 432 b 42 432 41 431 41 430 b 40 429 40 427 42 426 b 44 425 45 424 47 424 b 45 423 43 422 39 421 b 38 421 37 421 37 420 b 37 419 36 419 37 418 b 37 416 39 415 40 416 b 42 416 44 417 45 417 b 48 418 50 419 54 419 b 56 418 59 417 61 415 b 63 414 64 413 66 412 b 65 412 64 411 63 411 b 60 409 58 408 54 406 z"},"'":{"x_min":0,"x_max":157,"ha":157,"o":"m 44 544 b 44 490 18 451 18 438 b 18 425 25 422 30 422 b 52 422 98 504 98 535 b 98 552 82 561 67 561 b 55 561 44 555 44 544 z"},"=":{"x_min":0,"x_max":329,"ha":329,"o":"m 183 323 b 225 323 263 325 271 329 b 282 335 281 358 272 367 b 255 374 216 377 175 377 b 117 377 53 371 37 361 b 32 358 34 334 38 332 b 48 327 121 323 183 323 z m 177 246 b 119 246 53 240 37 231 b 32 228 34 204 38 202 b 48 197 121 193 183 193 b 225 193 263 195 271 199 b 282 205 281 228 272 237 b 255 244 217 246 177 246 z m 79 143 b 80 143 81 143 81 142 b 83 142 85 141 89 141 b 90 141 90 141 90 142 b 90 143 90 144 89 144 b 88 145 87 145 86 145 b 85 145 84 146 84 146 b 86 147 86 147 88 150 b 87 151 86 151 85 151 b 83 150 82 149 82 149 b 82 150 82 152 83 154 b 83 155 83 155 82 157 b 81 157 80 156 79 155 b 79 154 79 153 78 152 b 78 150 78 149 77 146 b 75 145 74 144 72 144 b 71 143 70 142 69 142 b 69 142 69 143 69 144 b 69 146 69 148 69 151 b 70 152 70 152 71 153 b 72 154 73 155 76 158 b 76 158 76 160 76 160 b 75 161 74 161 73 160 b 72 159 71 159 70 158 b 70 157 69 157 69 156 b 69 157 69 158 69 158 b 69 159 69 160 69 160 b 69 161 68 162 67 162 b 66 162 65 161 65 159 b 65 158 65 157 65 156 b 64 157 63 158 61 160 b 61 161 59 161 59 160 b 58 159 58 158 59 158 b 59 157 60 156 61 155 b 62 154 64 153 65 151 b 65 149 65 147 65 145 b 65 144 65 143 65 142 b 64 142 64 142 63 143 b 62 144 60 145 57 146 b 57 147 57 148 56 149 b 56 151 56 152 54 156 b 53 157 53 157 52 157 b 51 156 51 155 51 154 b 51 153 52 152 52 151 b 52 150 52 150 51 150 b 50 150 50 151 48 151 b 47 151 47 151 46 150 b 46 149 46 148 48 147 b 49 147 50 146 50 146 b 49 145 48 145 44 142 b 44 141 45 140 46 141 b 47 141 48 141 50 141 b 51 142 53 142 55 143 b 57 142 58 141 60 140 b 61 140 62 139 63 138 b 63 138 62 138 61 137 b 60 136 58 135 55 134 b 54 134 54 134 53 134 b 51 135 49 135 44 135 b 44 134 44 133 45 132 b 46 132 47 132 48 132 b 49 131 50 131 50 131 b 48 130 48 129 46 128 b 46 128 46 127 46 126 b 47 126 48 125 49 126 b 51 127 52 127 52 128 b 52 126 52 125 51 124 b 51 123 51 123 52 120 b 53 120 54 120 55 121 b 55 123 55 124 56 125 b 56 126 57 128 57 130 b 59 131 60 132 62 133 b 63 134 64 134 65 135 b 65 134 65 134 65 133 b 65 131 65 129 65 126 b 64 125 64 125 63 124 b 62 123 61 121 59 119 b 58 119 58 117 59 117 b 59 116 60 116 61 117 b 62 117 63 118 65 120 b 65 120 65 119 65 117 b 65 116 66 115 67 115 b 68 115 69 115 69 118 b 69 119 69 119 69 120 b 70 119 71 118 73 117 b 74 116 75 116 76 117 b 76 117 76 118 76 119 b 75 120 74 121 73 122 b 72 123 71 124 69 126 b 69 128 69 129 69 131 b 69 133 69 134 69 135 b 70 135 70 134 71 134 b 73 133 74 132 77 130 b 77 130 77 129 78 128 b 78 126 79 124 79 123 b 79 122 79 122 80 120 b 81 120 81 120 82 120 b 83 120 83 121 83 122 b 83 124 82 125 82 126 b 84 126 84 126 86 126 b 87 126 87 126 88 126 b 88 127 88 129 86 130 b 85 130 84 131 84 131 b 85 131 86 132 90 133 b 90 134 90 134 90 135 b 90 136 89 136 88 136 b 87 136 86 136 85 135 b 83 135 81 134 79 134 b 77 135 76 136 74 137 b 73 137 72 138 71 138 b 72 139 72 139 73 139 b 75 140 76 141 79 143 z"},"a":{"x_min":0,"x_max":358,"ha":358,"o":"m 191 -42 b 190 -40 187 -39 185 -40 l 180 -43 l 179 -38 b 178 -35 176 -34 174 -34 b 171 -35 170 -37 170 -39 l 172 -48 l 166 -51 l 163 -41 b 163 -40 162 -39 161 -39 b 160 -38 159 -38 158 -38 l 148 -41 l 148 -34 l 156 -31 b 158 -31 159 -28 159 -26 b 158 -24 156 -22 153 -23 l 148 -25 l 148 -18 b 148 -16 146 -14 144 -14 b 141 -14 139 -16 139 -18 l 139 -25 l 134 -23 b 132 -22 129 -23 128 -26 b 128 -28 129 -30 131 -31 l 139 -34 l 139 -41 l 129 -38 b 128 -38 127 -38 126 -38 b 125 -39 124 -40 124 -41 l 122 -51 l 115 -48 l 117 -39 b 117 -37 116 -35 114 -34 b 111 -34 109 -35 109 -37 l 107 -43 l 102 -40 b 101 -40 100 -39 100 -39 b 98 -39 97 -40 96 -42 b 95 -44 95 -46 98 -47 l 103 -51 l 99 -54 b 97 -56 97 -59 98 -60 b 99 -61 100 -62 102 -62 b 103 -62 104 -62 105 -61 l 111 -55 l 117 -59 l 110 -66 b 109 -66 108 -68 108 -69 b 108 -70 109 -71 110 -72 l 117 -79 l 111 -83 l 105 -77 b 104 -76 103 -76 102 -76 b 101 -76 100 -76 99 -77 b 97 -79 97 -82 99 -83 l 103 -87 l 98 -90 b 96 -92 95 -94 96 -96 b 97 -98 98 -98 100 -98 b 100 -98 101 -98 102 -98 l 107 -95 l 109 -100 b 109 -102 111 -104 114 -104 b 116 -103 117 -101 117 -98 l 115 -90 l 122 -86 l 124 -97 b 124 -98 125 -99 126 -99 b 127 -100 128 -100 129 -100 l 139 -97 l 139 -104 l 131 -107 b 129 -107 128 -110 128 -112 b 129 -115 131 -115 134 -115 l 139 -113 l 139 -120 b 139 -122 141 -124 144 -124 b 146 -124 148 -122 148 -120 l 148 -113 l 153 -115 b 156 -115 158 -115 159 -112 b 159 -110 158 -108 156 -107 l 148 -104 l 148 -97 l 158 -100 b 160 -100 160 -100 161 -100 b 162 -99 163 -98 163 -97 l 165 -87 l 172 -90 l 170 -99 b 170 -101 171 -103 174 -104 b 176 -104 178 -102 178 -100 l 180 -95 l 185 -98 b 186 -98 187 -99 187 -99 b 189 -99 190 -98 191 -96 b 192 -94 192 -92 190 -91 l 184 -87 l 188 -83 b 190 -82 190 -79 189 -77 b 187 -76 184 -76 183 -77 l 176 -83 l 170 -79 l 178 -72 b 178 -70 178 -68 178 -66 l 170 -59 l 176 -55 l 183 -61 b 183 -62 184 -62 185 -62 b 187 -62 188 -62 189 -61 b 190 -59 190 -56 188 -55 l 184 -51 l 190 -48 b 192 -46 192 -44 191 -42 z m 131 -48 l 139 -50 l 139 -57 b 138 -57 136 -58 135 -59 l 129 -56 z m 125 -75 l 119 -69 l 125 -63 l 131 -67 b 131 -67 131 -68 131 -69 b 131 -70 131 -71 131 -71 z m 139 -88 l 131 -90 l 129 -82 l 135 -79 b 136 -80 138 -81 139 -81 z m 144 -73 b 141 -73 139 -71 139 -69 b 139 -67 141 -65 144 -65 b 146 -65 148 -67 148 -69 b 148 -71 146 -73 144 -73 z m 148 -50 l 156 -48 l 158 -56 l 152 -59 b 151 -58 149 -57 148 -57 z m 156 -90 l 148 -88 l 148 -81 b 149 -81 151 -80 152 -79 l 158 -82 z m 162 -75 l 156 -71 b 156 -71 156 -70 156 -69 b 156 -68 156 -67 156 -66 l 162 -63 l 168 -69 z m 368 205 b 364 205 360 203 358 198 b 358 198 299 32 277 32 b 268 32 255 151 281 269 b 284 282 253 295 229 295 b 218 295 208 292 204 284 b 203 281 202 278 200 274 b 188 285 168 292 133 292 b 38 292 -22 195 -22 114 b -22 42 4 0 58 0 b 101 0 150 94 183 170 b 182 154 181 139 181 125 b 181 68 201 -19 265 -19 b 307 -19 379 190 379 190 b 382 199 375 205 368 205 z m 41 135 b 41 127 35 121 27 120 b 24 85 31 53 49 30 b 50 29 49 28 48 27 b 48 26 47 26 47 26 b 46 26 45 26 45 27 b 26 51 18 84 22 121 b 15 123 11 128 11 135 b 11 144 18 150 26 150 b 37 196 62 238 94 262 b 95 263 97 263 97 261 b 98 260 98 259 97 258 b 67 235 42 193 31 149 b 37 147 41 142 41 135 z m 75 53 b 68 53 61 61 61 83 b 61 181 116 251 140 251 b 159 251 162 205 162 185 b 135 123 101 53 75 53 z m 255 15 b 255 14 254 14 254 14 b 253 14 252 14 252 15 b 231 37 224 82 223 127 b 216 129 211 134 211 142 b 211 149 216 155 223 156 b 225 209 233 256 234 260 b 234 262 235 263 237 262 b 238 262 239 261 239 259 b 239 258 230 210 229 156 b 235 155 241 149 241 142 b 241 134 235 129 228 127 b 229 83 236 40 255 18 b 256 17 256 16 255 15 z m 27 364 l 25 362 b 24 361 24 359 25 358 b 25 358 26 357 27 357 b 27 357 28 358 28 358 l 32 361 l 36 359 l 31 355 b 31 355 30 354 30 353 b 30 353 31 352 31 351 l 36 347 l 32 345 l 28 348 b 27 349 26 349 25 348 b 24 347 24 346 25 345 l 27 342 l 24 340 b 23 340 22 338 23 337 b 24 336 24 336 25 336 b 26 336 26 336 27 336 l 30 338 l 31 334 b 31 333 32 332 33 332 b 35 333 36 334 36 336 l 35 341 l 38 343 l 40 337 b 40 336 40 335 41 335 b 42 335 42 335 43 335 l 49 337 l 49 332 l 44 331 b 43 330 42 329 42 327 b 43 326 44 326 46 326 l 49 327 l 49 323 b 49 322 50 320 51 320 b 53 320 54 322 54 323 l 54 327 l 57 326 b 59 326 60 326 60 327 b 61 329 60 330 59 331 l 54 332 l 54 337 l 60 335 b 61 335 62 335 62 335 b 63 335 63 336 63 337 l 64 343 l 68 340 l 67 336 b 67 334 68 333 70 332 b 71 332 72 333 72 334 l 73 338 l 76 336 b 77 336 77 336 78 336 b 78 336 79 336 80 337 b 81 338 80 340 79 340 l 76 342 l 78 345 b 79 345 79 347 78 348 b 77 349 76 349 75 348 l 71 345 l 67 347 l 72 351 b 72 352 73 352 73 353 b 73 354 72 355 72 355 l 67 359 l 71 361 l 75 358 b 75 358 76 357 76 357 b 77 357 78 358 78 358 b 79 359 79 361 78 362 l 76 364 l 79 366 b 80 367 81 368 80 369 b 79 371 78 371 76 370 l 73 368 l 72 372 b 72 373 71 374 69 374 b 68 374 67 372 67 371 l 68 366 l 65 364 l 63 370 b 61 372 61 372 60 372 l 54 370 l 54 374 l 59 376 b 60 376 61 377 61 379 b 60 380 59 381 57 381 l 54 379 l 54 383 b 54 385 53 386 51 386 b 50 386 49 385 49 383 l 49 380 l 46 381 b 44 381 43 380 42 379 b 42 378 43 376 44 376 l 49 374 l 49 370 l 43 372 b 42 372 42 372 40 370 l 38 364 l 35 366 l 36 371 b 36 372 35 374 34 374 b 32 374 31 373 31 372 l 30 369 l 27 370 b 25 371 24 371 23 370 b 22 368 23 367 24 366 z m 59 340 l 54 342 l 54 346 b 55 346 56 347 57 347 l 60 345 z m 62 357 l 66 353 l 62 350 l 59 352 b 59 354 59 354 59 355 z m 54 364 l 59 366 l 60 361 l 56 359 b 56 360 55 360 54 360 z m 51 356 b 53 356 54 355 54 353 b 54 352 53 351 51 351 b 50 351 49 352 49 353 b 49 355 50 356 51 356 z m 49 342 l 44 340 l 43 345 l 46 347 b 47 347 48 346 49 346 z m 44 366 l 49 364 l 49 360 b 48 360 47 360 46 359 l 43 361 z m 41 357 l 44 355 b 44 354 44 354 44 352 l 41 350 l 37 353 z"},"L":{"x_min":0,"x_max":271,"ha":271,"o":"m 261 37 b 259 37 257 36 255 35 b 255 35 193 -8 116 -8 b 102 -8 90 129 90 217 b 90 354 109 510 109 528 b 109 545 86 552 68 552 b 52 552 32 548 26 540 b 20 531 1 380 1 241 b 1 86 25 -44 93 -44 b 173 -44 260 2 260 2 b 280 13 272 37 261 37 z m 70 20 b 69 20 68 21 68 22 b 55 50 49 179 50 303 b 43 304 37 310 37 318 b 37 325 43 331 50 332 b 51 405 54 475 59 517 b 59 519 60 520 62 520 b 63 519 64 518 64 517 b 59 475 56 406 55 332 b 62 331 67 325 67 318 b 67 310 62 304 55 303 b 55 283 55 262 55 241 b 57 126 63 45 73 24 b 73 23 73 21 70 20 z m 159 96 b 159 96 158 96 157 95 b 156 96 154 96 153 96 b 149 97 146 98 143 99 b 142 99 141 100 140 100 b 139 100 138 100 137 99 b 137 99 136 98 136 97 b 135 95 136 93 138 93 b 140 92 142 92 145 91 b 146 91 147 90 148 90 b 147 89 146 89 145 88 b 144 87 143 87 142 86 b 141 86 141 85 140 84 b 140 83 140 82 141 81 b 142 80 144 79 146 80 b 146 80 147 81 148 81 b 149 82 151 83 152 84 b 151 81 151 78 150 76 b 150 75 150 74 149 74 b 149 73 149 72 150 71 b 150 70 151 69 152 69 b 154 69 156 70 156 72 b 157 74 158 76 158 78 b 159 81 160 85 161 89 b 164 91 167 92 170 94 b 172 95 174 96 176 98 l 176 80 b 172 76 169 73 165 69 b 165 69 164 68 164 67 b 162 66 162 64 164 62 b 165 61 167 60 169 62 b 171 64 172 65 174 67 b 174 68 175 69 176 70 l 176 66 b 176 65 176 63 176 62 b 176 60 178 58 180 59 b 182 59 184 60 184 62 l 184 70 b 186 68 188 66 189 64 b 190 63 191 63 191 62 b 192 61 195 61 196 62 b 198 64 198 66 196 67 l 184 80 l 184 98 b 185 97 186 96 187 95 b 191 94 194 92 197 90 b 198 89 198 89 199 89 b 199 87 200 86 200 84 b 201 81 202 77 203 74 b 203 73 203 72 204 72 b 204 71 204 70 205 69 b 206 69 207 69 208 69 b 210 70 211 72 211 74 b 210 76 210 78 209 80 b 209 81 208 82 208 84 b 209 83 210 82 211 82 b 212 81 213 81 214 80 b 215 79 216 79 217 80 b 218 80 219 80 219 81 b 220 83 220 85 218 86 b 217 87 217 87 216 87 b 215 88 213 89 212 90 b 214 91 217 91 219 92 b 220 92 221 92 222 93 b 223 93 224 94 224 94 b 224 95 225 96 224 97 b 224 99 222 100 220 100 b 218 99 216 99 214 98 b 210 97 207 96 203 95 b 200 97 197 98 194 100 b 192 101 189 103 187 104 b 189 105 190 105 191 106 b 194 108 198 110 201 112 b 201 112 202 112 203 113 b 204 112 206 112 207 112 b 211 111 214 110 218 109 b 218 109 219 108 220 108 b 221 108 222 108 223 109 b 223 109 224 110 224 111 b 225 113 224 115 222 115 b 220 116 218 116 215 117 b 214 117 213 118 212 118 b 213 119 214 119 215 120 b 216 121 217 121 218 122 b 219 122 219 123 220 124 b 220 125 220 126 219 127 b 218 128 216 129 214 128 b 214 128 213 127 212 127 b 211 126 209 125 208 124 b 209 127 209 130 210 132 b 210 133 210 134 211 134 b 211 135 211 136 210 137 b 210 138 209 139 208 139 b 206 139 204 138 204 136 b 203 134 202 132 202 130 b 201 127 200 123 199 119 b 196 117 193 116 190 114 b 188 113 186 112 184 110 l 184 128 b 188 132 191 135 195 139 b 195 139 196 140 196 141 b 198 142 198 144 196 146 b 195 147 193 147 191 146 l 184 138 l 184 142 b 184 143 184 145 184 146 b 184 148 182 150 180 149 b 178 149 176 148 176 146 l 176 138 b 174 140 173 142 171 144 l 169 146 b 168 147 165 147 164 146 b 162 144 162 142 164 141 l 176 128 l 176 110 b 175 111 174 112 173 112 b 169 114 166 116 163 118 l 161 119 b 161 121 160 122 160 124 b 159 127 158 131 157 134 b 157 135 157 136 156 136 b 156 137 156 138 155 139 b 154 139 153 139 152 139 b 150 138 149 136 149 134 b 150 132 150 130 151 128 b 151 127 152 126 152 124 b 151 125 150 126 149 126 b 148 127 147 127 146 128 b 145 129 144 129 143 128 b 142 128 141 128 141 127 b 140 125 140 123 142 122 b 143 121 143 121 144 121 b 145 120 147 119 148 118 b 146 117 143 117 141 116 b 140 116 139 116 138 115 b 137 115 136 114 136 114 b 136 113 135 112 136 111 b 136 109 138 108 140 108 b 142 109 144 109 147 110 b 150 111 153 112 157 113 b 160 111 163 109 166 108 b 169 106 171 105 173 104 b 171 103 170 103 169 102 b 166 100 162 98 159 96 z m 66 -123 b 65 -122 63 -121 62 -122 l 59 -124 l 58 -121 b 58 -119 57 -118 55 -119 b 54 -119 53 -120 53 -122 l 54 -127 l 50 -129 l 49 -123 b 49 -122 49 -122 48 -121 b 47 -121 47 -121 46 -121 l 40 -123 l 40 -118 l 45 -117 b 46 -116 47 -115 46 -114 b 46 -112 45 -112 43 -112 l 40 -113 l 40 -109 b 40 -108 39 -107 37 -107 b 36 -107 35 -108 35 -109 l 35 -113 l 32 -112 b 30 -111 29 -112 28 -114 b 28 -115 29 -116 30 -117 l 35 -118 l 35 -123 l 29 -121 b 28 -121 27 -121 27 -121 b 26 -121 26 -122 26 -123 l 24 -129 l 20 -127 l 21 -122 b 22 -120 21 -119 19 -119 b 18 -118 17 -119 16 -121 l 16 -124 l 12 -122 b 11 -121 10 -122 9 -123 b 8 -124 9 -126 10 -126 l 13 -128 l 11 -131 b 10 -132 10 -133 10 -134 b 11 -135 12 -135 12 -135 b 13 -135 14 -135 14 -134 l 18 -131 l 22 -133 l 17 -137 b 17 -138 16 -139 16 -139 b 16 -140 17 -141 17 -141 l 22 -145 l 18 -147 l 14 -144 b 13 -143 11 -143 11 -144 b 10 -145 10 -147 11 -148 l 13 -150 l 10 -152 b 9 -153 8 -154 9 -156 b 9 -156 10 -157 12 -157 l 16 -155 l 16 -158 b 17 -159 18 -160 19 -160 b 21 -160 22 -158 21 -157 l 20 -152 l 24 -150 l 26 -156 b 27 -158 28 -158 29 -158 l 35 -156 l 35 -160 l 30 -162 b 29 -162 28 -164 28 -165 b 29 -166 30 -167 31 -167 l 35 -166 l 35 -170 b 35 -171 36 -172 37 -172 b 39 -172 40 -171 40 -170 l 40 -166 l 43 -167 b 45 -167 46 -166 46 -165 b 47 -164 46 -162 45 -162 l 40 -160 l 40 -156 l 46 -158 b 47 -158 47 -158 48 -158 b 48 -157 49 -157 49 -156 l 50 -150 l 54 -152 l 53 -157 b 53 -158 54 -160 56 -160 b 57 -160 58 -159 58 -158 l 59 -155 l 62 -157 b 64 -157 65 -157 66 -156 b 66 -154 66 -153 65 -152 l 61 -150 l 64 -148 b 65 -147 65 -145 64 -144 b 63 -143 62 -143 61 -144 l 57 -148 l 53 -145 l 58 -141 b 58 -141 58 -140 58 -139 b 58 -139 58 -138 58 -137 l 53 -133 l 57 -131 l 61 -135 b 63 -135 64 -135 64 -134 b 65 -133 65 -132 64 -131 l 61 -128 l 65 -127 b 66 -126 66 -124 66 -123 z m 30 -127 l 35 -128 l 35 -132 b 34 -132 33 -133 32 -133 l 29 -131 z m 26 -143 l 23 -139 l 26 -136 l 30 -138 b 30 -140 30 -140 30 -141 z m 35 -151 l 30 -152 l 29 -147 l 32 -145 b 33 -146 34 -146 35 -147 z m 37 -142 b 36 -142 35 -141 35 -139 b 35 -138 36 -137 37 -137 b 39 -137 40 -138 40 -139 b 40 -141 39 -142 37 -142 z m 40 -128 l 45 -127 l 46 -132 l 42 -134 b 42 -133 41 -132 40 -132 z m 45 -152 l 40 -151 l 40 -147 b 41 -146 42 -146 42 -145 l 46 -147 z m 48 -143 l 45 -141 b 45 -140 45 -140 45 -138 l 48 -136 l 52 -139 z"},"3":{"x_min":0,"x_max":232,"ha":232,"o":"m 165 -59 b 166 -59 167 -60 167 -60 b 169 -60 171 -61 175 -61 b 176 -61 176 -61 176 -60 b 177 -59 176 -58 175 -58 b 174 -58 170 -57 170 -56 b 172 -55 172 -55 173 -55 b 173 -54 174 -54 174 -52 b 173 -51 172 -51 171 -51 b 169 -52 169 -53 168 -53 b 168 -52 168 -50 169 -48 b 169 -47 169 -47 168 -45 b 167 -45 166 -46 165 -47 b 165 -48 165 -49 165 -50 b 164 -52 164 -54 163 -56 b 161 -57 160 -58 158 -59 b 157 -59 156 -60 155 -60 b 155 -60 155 -59 155 -58 b 155 -56 155 -54 155 -51 b 156 -51 156 -50 157 -49 b 158 -48 159 -47 162 -45 b 162 -44 162 -43 162 -42 b 161 -41 160 -41 159 -42 b 158 -43 157 -44 156 -44 b 156 -45 156 -45 155 -46 b 155 -45 155 -44 155 -44 b 155 -43 155 -43 155 -42 b 155 -41 154 -40 153 -40 b 152 -40 151 -41 151 -43 b 151 -44 151 -45 151 -46 b 150 -45 149 -44 147 -42 b 147 -41 145 -41 145 -42 b 144 -43 144 -44 145 -45 b 145 -45 146 -46 147 -47 b 148 -48 150 -50 151 -51 b 151 -53 151 -55 151 -57 b 151 -58 151 -59 151 -60 b 151 -60 150 -60 149 -59 b 148 -58 146 -57 143 -56 b 143 -55 143 -54 143 -53 b 142 -52 142 -50 140 -46 b 139 -45 139 -45 138 -45 b 137 -46 137 -47 137 -48 b 137 -49 138 -50 138 -51 b 138 -52 138 -52 137 -52 b 136 -52 136 -52 133 -52 b 132 -53 132 -54 133 -55 b 135 -56 136 -56 137 -56 b 135 -57 134 -57 130 -60 b 130 -61 131 -62 132 -62 b 133 -61 134 -61 136 -61 b 137 -60 139 -60 141 -59 b 143 -60 144 -61 146 -62 b 147 -63 148 -63 149 -64 b 149 -64 148 -65 147 -65 b 146 -66 144 -67 141 -68 b 140 -68 140 -68 139 -68 b 137 -67 135 -67 130 -67 b 130 -68 130 -69 131 -70 b 132 -70 133 -70 135 -71 b 135 -71 136 -71 137 -71 b 136 -71 135 -72 135 -72 b 134 -72 134 -73 132 -74 b 132 -75 132 -75 133 -76 b 133 -77 134 -77 135 -76 b 137 -75 138 -75 138 -74 b 138 -76 138 -77 138 -82 b 139 -82 141 -82 141 -81 b 141 -80 141 -79 142 -77 b 142 -76 143 -74 143 -72 b 145 -71 146 -70 148 -69 b 149 -68 150 -68 151 -67 b 151 -68 151 -69 151 -69 b 151 -71 151 -73 151 -76 b 151 -77 150 -78 149 -78 b 148 -79 147 -81 145 -83 b 144 -84 144 -85 145 -86 b 145 -86 147 -86 147 -86 b 148 -85 149 -84 151 -82 b 151 -82 151 -83 151 -84 b 151 -84 151 -85 151 -86 b 151 -87 152 -88 153 -88 b 154 -87 155 -87 155 -86 b 155 -85 155 -85 155 -84 b 155 -84 155 -83 155 -82 b 156 -83 157 -84 159 -86 b 160 -86 161 -86 162 -86 b 162 -85 162 -84 162 -83 b 161 -82 160 -81 159 -81 b 158 -79 157 -78 155 -76 b 155 -75 155 -73 155 -71 b 155 -70 155 -68 155 -67 b 156 -67 156 -68 157 -68 b 159 -69 160 -70 163 -72 b 163 -73 163 -73 164 -74 b 164 -76 165 -78 166 -82 b 167 -82 167 -82 168 -82 b 169 -82 169 -81 169 -80 b 169 -79 169 -78 168 -76 b 168 -76 168 -75 168 -74 b 168 -75 169 -75 171 -76 b 171 -77 172 -77 173 -77 b 173 -76 173 -76 174 -76 b 174 -75 174 -74 172 -72 b 171 -72 170 -72 170 -71 b 171 -71 172 -70 176 -69 b 176 -68 176 -68 176 -67 b 176 -66 175 -66 174 -66 b 173 -66 172 -67 171 -67 b 169 -67 167 -68 165 -68 b 163 -67 162 -67 160 -66 b 159 -65 158 -64 157 -64 b 158 -63 158 -63 159 -63 b 161 -62 162 -61 165 -59 z m 43 640 l 41 638 b 40 637 39 635 40 634 b 41 634 42 633 42 633 b 43 633 44 634 44 634 l 48 638 l 52 635 l 47 631 b 47 630 47 630 47 629 b 47 628 47 628 47 627 l 52 623 l 48 620 l 44 624 b 43 625 41 625 41 624 b 39 623 40 621 41 620 l 43 618 l 40 615 b 39 615 38 613 39 612 b 39 611 40 610 41 610 b 42 610 42 611 43 611 l 46 613 l 47 609 b 47 608 48 607 50 607 b 51 608 52 609 52 610 l 51 616 l 55 618 l 56 612 b 56 611 57 610 58 610 b 58 609 59 609 60 610 l 66 612 l 66 607 l 61 605 b 60 605 59 603 59 602 b 60 601 61 600 63 600 l 66 601 l 66 597 b 66 596 67 594 69 594 b 70 594 71 596 71 597 l 71 601 l 75 600 b 77 600 78 601 78 602 b 79 603 78 605 76 605 l 71 607 l 71 612 l 78 610 b 78 609 78 609 78 609 b 79 609 79 610 81 611 l 82 618 l 86 616 l 85 610 b 85 609 86 607 88 607 b 89 607 90 608 91 609 l 91 613 l 95 611 b 95 610 96 610 96 610 b 97 610 98 611 98 612 b 99 613 99 615 98 615 l 94 617 l 97 620 b 98 621 98 623 97 624 b 96 625 94 625 93 624 l 89 620 l 85 623 l 90 627 b 91 627 91 628 91 629 b 91 630 91 630 90 631 l 85 635 l 89 638 l 93 634 b 94 634 96 634 97 634 b 98 635 98 637 97 638 l 94 640 l 98 642 b 99 643 99 645 99 646 b 98 647 96 648 95 647 l 91 645 l 91 649 b 90 650 89 651 88 651 b 86 650 85 649 86 647 l 87 642 l 83 640 l 81 646 b 81 647 81 648 80 648 b 79 648 78 648 78 648 l 71 646 l 71 651 l 77 653 b 78 653 79 655 78 656 b 78 657 76 658 75 658 l 71 657 l 71 661 b 71 662 70 663 69 663 b 67 663 66 662 66 661 l 66 657 l 63 658 b 61 658 60 658 59 656 b 59 655 59 653 61 653 l 66 651 l 66 646 l 60 648 b 59 649 58 648 58 648 b 57 648 56 647 56 646 l 55 640 l 51 642 l 52 648 b 52 649 51 650 50 651 b 48 651 47 650 47 649 l 46 645 l 43 647 b 41 648 40 647 39 646 b 38 645 39 643 40 642 z m 76 616 l 71 617 l 71 621 b 72 622 73 622 74 623 l 78 621 z m 80 633 l 84 629 l 80 625 l 77 628 b 77 629 77 630 77 630 z m 71 641 l 76 642 l 78 637 l 74 635 b 73 636 72 636 71 636 z m 69 632 b 70 632 71 630 71 629 b 71 627 70 626 69 626 b 67 626 66 627 66 629 b 66 630 67 632 69 632 z m 66 617 l 61 616 l 60 621 l 63 623 b 64 622 65 622 66 621 z m 61 642 l 66 641 l 66 637 b 65 636 64 636 63 635 l 60 637 z m 57 633 l 61 630 b 61 628 61 628 61 627 l 57 625 l 53 629 z m 13 190 l 13 194 l 17 193 b 18 193 20 193 20 194 b 20 196 20 197 18 198 l 13 200 l 13 204 l 19 202 b 21 202 21 202 21 202 b 22 203 23 203 23 204 l 24 211 l 28 208 l 27 203 b 27 202 28 200 30 200 b 31 200 32 201 32 202 l 33 205 l 37 203 b 39 203 40 204 40 204 b 41 206 41 207 39 208 l 36 210 l 38 213 b 40 214 40 215 39 216 b 38 217 36 217 35 216 l 31 213 l 27 215 l 32 220 b 32 220 33 221 33 222 b 33 222 32 223 32 224 l 27 228 l 31 230 l 35 227 b 35 226 36 226 37 226 b 37 226 38 226 39 227 b 40 228 40 230 39 231 l 36 233 l 39 235 b 41 236 41 237 40 239 b 40 240 38 240 37 240 l 33 238 l 32 241 b 32 243 31 244 29 243 b 28 243 27 242 27 240 l 28 235 l 24 233 l 23 239 b 23 240 22 240 22 241 b 21 241 20 241 19 241 l 13 239 l 13 244 l 18 245 b 20 246 20 247 20 249 b 20 250 18 251 17 250 l 13 249 l 13 253 b 13 255 12 256 10 256 b 9 256 8 255 8 253 l 8 249 l 4 250 b 3 251 1 250 1 249 b 1 247 1 246 3 245 l 8 244 l 8 239 l 2 241 b 1 241 0 241 -1 241 b -1 240 -2 240 -2 239 l -3 233 l -7 235 l -6 240 b -6 242 -7 243 -8 243 b -10 244 -11 243 -12 241 l -12 238 l -16 240 b -17 241 -19 240 -19 239 b -20 238 -20 236 -18 235 l -15 233 l -18 231 b -19 230 -19 228 -18 227 b -17 226 -17 226 -16 226 b -15 226 -14 226 -14 227 l -10 230 l -6 228 l -11 224 b -11 223 -12 222 -12 222 b -12 221 -11 220 -11 220 l -6 215 l -10 213 l -14 217 b -15 218 -17 218 -18 216 b -19 215 -19 214 -18 213 l -15 210 l -18 208 b -20 207 -20 206 -19 204 b -19 204 -18 203 -16 203 l -12 205 l -12 202 b -11 201 -10 200 -8 200 b -7 200 -6 202 -6 203 l -7 208 l -3 211 l -2 204 b 0 202 1 202 2 202 l 8 204 l 8 200 l 3 198 b 1 198 1 196 1 195 b 1 193 2 193 4 193 l 8 194 l 8 190 b 8 188 9 187 10 187 b 12 187 13 188 13 190 z m 18 208 l 13 210 l 13 214 b 14 214 15 215 16 215 l 19 213 z m 22 225 l 26 222 l 22 218 l 18 220 b 18 221 18 221 18 223 z m 13 233 l 18 235 l 19 230 l 16 228 b 15 228 14 229 13 229 z m 3 235 l 8 233 l 8 229 b 7 229 6 228 5 228 l 2 230 z m -1 218 l -5 222 l -1 225 l 2 223 b 2 221 2 221 2 220 z m 8 210 l 3 208 l 2 213 l 5 215 b 6 215 7 214 8 214 z m 8 222 b 8 223 9 224 10 224 b 12 224 13 223 13 222 b 13 220 12 219 10 219 b 9 219 8 220 8 222 z m 137 300 b 183 328 218 392 218 480 b 218 556 151 576 129 575 b 36 575 23 499 23 460 b 23 456 26 444 39 444 b 53 444 53 453 53 463 b 53 474 66 532 90 532 b 104 532 126 532 126 478 b 126 413 98 313 77 303 b 65 298 67 287 86 284 b 103 279 122 250 122 192 b 122 115 98 42 84 42 b 40 42 37 121 37 131 b 37 139 36 144 25 144 l 19 144 b 12 143 11 140 11 136 b 11 97 7 -2 86 -2 b 110 -2 200 12 200 180 b 200 249 188 291 137 300 z m 135 354 b 145 371 158 408 163 446 b 157 448 153 454 153 460 b 153 468 158 473 165 475 b 165 498 162 521 151 536 b 150 537 150 539 152 540 b 153 540 154 540 155 539 b 167 523 171 499 170 475 b 177 473 183 468 183 460 b 183 452 176 446 168 445 b 163 407 150 370 140 352 b 139 351 138 350 137 350 b 137 350 137 350 136 351 b 135 351 134 353 135 354 z m 159 145 b 158 108 152 74 140 51 b 139 50 138 50 136 50 b 135 50 134 52 135 53 b 147 76 153 109 153 145 b 147 146 141 152 141 159 b 141 166 146 172 153 173 b 151 205 145 238 135 265 b 135 267 135 268 137 269 b 138 269 139 269 140 267 b 150 239 156 206 158 174 b 165 173 171 167 171 159 b 171 152 166 146 159 145 z"},";":{"x_min":0,"x_max":211,"ha":211,"o":"m 96 108 b 81 108 67 101 67 88 b 67 25 33 -20 33 -35 b 33 -51 42 -54 49 -54 b 77 -54 137 40 137 77 b 137 97 116 108 96 108 z m 101 179 b 134 179 150 215 150 231 b 150 252 137 266 104 266 b 70 266 57 247 57 231 b 57 215 68 179 101 179 z m 100 241 b 108 241 115 234 115 226 b 115 217 108 211 100 211 b 92 211 85 217 85 226 b 85 234 92 241 100 241 z"},"J":{"x_min":0,"x_max":141,"ha":141,"o":"m 165 244 b 160 244 155 241 152 235 b 133 197 104 164 71 136 b 86 235 90 365 90 516 b 90 527 69 533 52 533 b 39 533 26 531 18 525 b -3 446 3 212 -18 69 b -71 31 -116 0 -116 -33 b -116 -46 -109 -68 -61 -68 b 6 -68 44 -6 65 100 b 107 135 148 176 173 226 b 177 237 171 244 165 244 z m -74 -48 b -83 -48 -88 -44 -88 -33 b -88 -16 -61 5 -24 32 b -35 -16 -50 -48 -74 -48 z m 44 254 b 35 131 16 6 -22 -30 b -23 -31 -24 -31 -24 -31 b -25 -31 -26 -31 -26 -30 b -27 -29 -27 -28 -26 -27 b 10 8 30 127 39 255 b 33 256 28 262 28 269 b 28 277 34 283 41 284 b 46 360 47 436 46 497 b 45 498 47 500 48 500 b 50 500 51 499 51 497 b 52 451 51 370 46 283 b 53 282 58 276 58 269 b 58 261 52 255 44 254 z m 20 643 l 16 639 b 14 638 14 635 16 633 b 17 632 18 632 19 632 b 20 632 21 632 22 633 l 28 639 l 35 635 l 27 628 b 26 627 26 626 26 625 b 26 624 26 622 27 622 l 35 615 l 28 611 l 22 617 b 20 618 17 618 16 616 b 14 615 14 612 16 610 l 20 607 l 15 603 b 13 602 12 599 13 597 b 14 596 16 595 17 595 b 18 595 19 595 19 596 l 25 599 l 26 593 b 26 591 28 590 31 590 b 33 591 35 593 34 595 l 32 604 l 39 607 l 41 597 b 41 596 42 595 43 594 b 44 594 45 594 47 594 l 57 597 l 57 590 l 48 587 b 46 586 45 584 46 582 b 46 580 48 579 51 579 l 57 581 l 57 574 b 57 572 58 570 61 570 b 63 570 65 572 65 574 l 65 580 l 71 579 b 71 579 71 578 72 578 b 74 578 75 580 76 581 b 77 584 75 586 73 587 l 65 590 l 65 597 l 75 594 b 77 594 78 594 78 594 b 79 595 80 596 80 597 l 83 607 l 89 603 l 87 595 b 87 593 88 590 92 590 b 94 590 95 591 96 593 l 97 599 l 102 596 b 103 595 104 595 104 595 b 106 595 107 596 108 597 b 110 599 109 602 107 603 l 101 606 l 106 610 b 107 612 107 614 106 616 b 104 618 102 618 100 617 l 94 611 l 87 615 l 95 622 b 96 622 96 623 96 625 b 96 626 96 627 95 628 l 87 635 l 94 639 l 100 633 b 101 632 102 632 103 632 b 104 632 105 632 106 633 b 108 635 107 637 106 639 l 101 643 l 107 646 b 109 647 110 650 109 652 b 107 654 105 655 103 654 l 97 650 l 96 656 b 95 658 93 660 91 659 b 89 659 87 657 88 654 l 89 646 l 83 642 l 81 652 b 80 654 80 655 79 655 b 78 656 76 656 75 655 l 65 652 l 65 660 l 73 662 b 75 663 77 666 76 668 b 75 670 73 671 71 671 l 65 669 l 65 675 b 65 678 63 680 61 680 b 58 680 57 678 57 675 l 57 669 l 51 671 b 49 671 46 670 46 668 b 45 666 46 663 48 663 l 57 660 l 57 652 l 47 656 b 45 656 44 656 43 655 b 42 655 41 654 41 652 l 39 642 l 32 646 l 34 654 b 35 657 33 659 31 659 b 29 660 26 658 26 656 l 25 651 l 19 654 b 17 655 14 654 13 652 b 12 650 13 648 15 646 z m 73 603 l 65 606 l 65 613 b 67 613 68 614 69 615 l 75 612 z m 79 631 l 85 625 l 79 619 l 73 622 b 74 623 74 624 74 625 b 74 626 74 626 73 627 z m 65 643 l 73 646 l 75 638 l 69 634 b 68 636 67 636 65 637 z m 61 629 b 63 629 65 627 65 625 b 65 622 63 620 61 620 b 58 620 57 622 57 625 b 57 627 58 629 61 629 z m 57 606 l 48 603 l 47 612 l 52 615 b 54 614 55 613 57 612 z m 48 646 l 56 644 l 56 637 b 55 636 54 636 52 635 l 47 638 z m 42 630 l 48 627 b 48 626 48 625 48 625 b 48 624 48 623 48 622 l 42 619 l 36 625 z m 82 -142 l 83 -141 b 84 -141 85 -142 86 -142 b 88 -142 90 -143 93 -144 b 94 -144 94 -144 96 -142 b 96 -141 96 -140 94 -140 b 93 -139 92 -139 91 -139 b 90 -138 89 -138 89 -138 b 91 -137 92 -136 93 -135 b 93 -134 93 -133 93 -133 b 92 -132 91 -132 90 -132 b 88 -133 87 -134 86 -134 b 87 -133 87 -131 88 -130 b 88 -129 88 -129 88 -127 b 87 -126 87 -126 86 -126 b 85 -125 84 -126 84 -127 l 83 -131 b 82 -133 82 -135 81 -137 b 79 -138 78 -139 76 -140 b 75 -141 73 -142 72 -142 l 72 -132 b 73 -131 74 -131 74 -130 l 79 -126 b 80 -124 80 -123 80 -122 b 79 -121 77 -121 76 -122 b 76 -123 75 -124 74 -124 b 73 -125 73 -126 72 -126 l 72 -124 b 72 -123 72 -123 72 -122 b 72 -121 71 -120 70 -120 b 69 -120 68 -121 68 -122 l 68 -126 b 67 -125 66 -124 64 -122 b 63 -121 61 -121 61 -122 b 60 -123 60 -124 61 -125 b 61 -126 62 -127 63 -128 b 65 -129 66 -130 68 -132 l 68 -142 b 67 -142 66 -142 66 -141 b 64 -140 62 -139 59 -137 b 59 -136 59 -135 58 -134 b 58 -133 57 -131 57 -129 b 57 -128 56 -128 54 -126 b 53 -126 52 -127 52 -128 l 53 -132 b 53 -133 54 -134 54 -134 b 53 -134 52 -133 52 -133 b 51 -133 51 -132 50 -132 b 50 -132 49 -132 47 -133 b 47 -134 47 -135 49 -136 b 50 -137 51 -137 52 -138 b 50 -138 49 -139 46 -140 b 45 -140 45 -140 44 -142 b 45 -143 46 -144 47 -144 l 51 -143 b 52 -142 54 -142 57 -141 b 59 -142 60 -143 62 -144 b 63 -145 65 -145 66 -146 b 65 -147 64 -147 64 -147 b 62 -148 60 -150 57 -151 l 54 -151 b 52 -150 50 -149 47 -149 b 46 -148 46 -149 45 -149 b 45 -149 44 -150 44 -150 b 44 -151 45 -152 46 -153 b 47 -153 48 -153 49 -154 b 50 -154 51 -154 52 -154 b 51 -155 50 -155 50 -155 b 49 -156 49 -156 48 -156 b 47 -157 47 -157 47 -159 b 48 -160 49 -161 50 -160 b 52 -159 53 -159 54 -158 b 53 -160 53 -161 52 -164 b 52 -164 52 -165 52 -166 b 53 -166 53 -166 54 -167 b 55 -167 56 -166 56 -165 b 57 -164 57 -163 57 -161 b 58 -159 58 -157 59 -155 b 61 -154 63 -153 64 -152 b 66 -151 67 -151 68 -150 l 68 -160 b 67 -161 67 -161 66 -162 l 61 -167 b 60 -168 60 -170 61 -170 b 61 -171 63 -171 64 -170 l 66 -168 b 67 -167 67 -167 68 -166 l 68 -168 b 68 -169 68 -170 68 -170 b 68 -172 69 -173 70 -173 b 71 -173 72 -172 72 -170 l 72 -166 b 73 -167 74 -168 76 -170 b 77 -171 79 -171 80 -170 b 80 -170 80 -168 80 -167 b 79 -167 78 -166 77 -165 l 72 -160 l 72 -150 b 73 -150 74 -151 74 -151 b 76 -152 78 -153 81 -155 b 81 -156 82 -157 82 -158 b 82 -160 83 -162 86 -167 b 88 -166 88 -165 88 -164 l 87 -160 b 87 -159 87 -159 86 -158 b 87 -158 88 -159 88 -159 b 89 -159 89 -160 90 -160 b 90 -160 91 -161 92 -160 b 92 -160 93 -160 93 -159 b 93 -158 93 -157 91 -156 b 90 -155 89 -155 88 -154 b 90 -154 92 -153 94 -153 b 95 -153 95 -152 96 -152 b 96 -151 96 -151 96 -150 b 96 -149 94 -148 93 -149 l 90 -150 b 88 -150 86 -151 83 -151 l 78 -148 b 77 -148 76 -147 74 -146 b 75 -146 76 -145 76 -145 b 78 -144 80 -143 82 -142 z"},"V":{"x_min":0,"x_max":277,"ha":277,"o":"m 148 655 b 147 655 146 655 146 654 b 144 655 143 655 141 655 b 138 656 134 657 131 658 b 130 658 129 659 129 659 b 128 659 127 659 126 658 b 125 658 124 657 124 656 b 124 654 125 652 127 652 b 129 651 131 651 133 650 b 134 650 136 649 137 649 b 136 648 135 648 133 647 b 132 646 132 646 130 645 b 130 645 129 644 129 643 b 129 642 129 641 129 640 b 130 639 132 638 134 639 b 135 639 135 640 136 640 b 138 641 139 642 140 643 b 140 640 139 637 138 635 b 138 634 138 633 138 633 b 138 632 138 631 138 630 b 139 629 139 628 140 628 b 142 628 144 629 145 631 b 145 633 146 635 147 637 b 147 640 148 644 149 647 l 150 648 b 153 650 156 651 159 653 b 161 654 163 655 165 657 l 165 639 b 164 638 162 637 161 635 b 159 633 156 631 154 628 b 153 628 153 627 152 626 b 151 625 151 623 152 621 b 154 620 156 620 157 621 b 159 623 160 624 162 626 l 165 629 l 165 625 b 165 624 165 622 165 621 b 165 619 166 617 168 618 b 170 618 172 619 172 621 l 172 629 l 180 621 b 181 620 183 620 185 621 b 186 623 186 625 185 626 b 183 628 182 629 180 631 b 178 633 175 636 172 639 l 172 657 b 173 656 175 655 176 655 b 179 653 182 651 187 648 b 188 646 188 645 189 643 b 190 640 191 636 191 633 b 192 632 192 631 192 631 b 192 630 193 629 194 628 b 195 628 196 628 197 628 b 198 629 200 631 199 633 b 199 635 198 637 197 639 b 197 640 197 641 196 643 b 198 642 199 641 200 641 b 201 640 202 640 203 639 b 204 638 205 638 206 639 b 206 639 207 639 208 640 b 209 642 208 644 206 645 b 203 647 202 648 200 649 b 203 650 205 650 208 651 b 209 651 209 651 210 652 b 211 652 212 653 212 653 b 213 654 213 655 213 656 b 212 658 210 659 208 659 b 206 658 204 658 202 657 b 199 656 195 655 191 654 b 188 656 185 658 182 659 b 180 661 178 662 176 663 b 177 664 178 664 180 665 b 183 667 186 669 189 671 b 190 671 191 671 191 672 b 193 671 194 671 196 671 b 199 670 203 669 206 668 b 207 668 208 667 208 667 b 209 667 210 667 211 668 b 212 668 213 669 213 670 b 213 672 212 674 210 674 b 208 675 206 675 204 676 b 203 676 201 677 200 677 b 201 678 202 678 204 679 b 204 680 205 680 206 681 b 207 681 208 682 208 683 b 208 684 208 685 208 686 b 207 687 205 688 203 687 b 202 687 201 686 201 686 b 199 685 198 684 196 683 b 197 686 198 689 199 691 b 199 692 199 693 199 693 b 199 694 199 695 199 696 b 198 697 197 698 197 698 b 195 698 193 697 192 695 b 191 693 191 691 190 689 b 189 686 189 682 187 678 b 184 676 181 675 178 673 b 176 672 174 671 172 669 l 172 687 b 173 688 175 689 176 691 b 178 693 181 695 183 698 b 184 698 184 699 185 700 b 186 701 186 703 185 705 b 183 706 181 706 180 705 b 178 703 176 702 175 700 b 174 699 173 698 172 697 l 172 701 b 172 702 172 704 172 705 b 172 707 170 709 168 708 b 166 708 165 707 165 705 l 165 697 b 163 699 161 701 159 703 b 159 704 158 704 157 705 b 156 706 154 706 152 705 b 151 703 151 701 152 700 l 165 687 l 165 669 b 164 670 162 671 161 671 b 158 673 155 675 150 678 b 149 680 149 681 148 683 b 147 686 146 690 146 693 b 145 694 145 695 145 695 b 145 696 144 697 143 698 b 142 698 141 698 140 698 b 138 697 137 695 138 693 b 138 691 139 689 139 687 b 140 686 140 685 140 683 b 139 684 138 685 137 685 b 136 686 135 686 134 687 b 133 688 132 688 131 687 b 130 687 130 687 129 686 b 128 684 129 682 130 681 b 131 680 132 680 132 680 b 134 679 135 678 137 677 b 134 676 132 676 129 675 b 128 675 127 675 127 674 b 126 674 125 673 124 673 b 124 672 124 671 124 670 b 125 668 127 667 129 667 b 131 668 133 668 135 669 b 138 670 142 671 146 672 b 149 670 152 668 155 667 b 157 665 159 664 161 663 b 160 662 159 662 157 661 b 154 659 151 657 148 655 z m 251 585 b 243 585 235 579 233 569 b 209 421 130 56 130 56 b 130 56 90 492 89 557 b 89 570 64 579 40 579 b 25 579 11 575 7 564 b 1 549 -1 114 65 -33 b 71 -41 86 -44 102 -44 b 126 -44 151 -37 154 -27 b 158 -10 241 427 267 563 b 270 577 261 585 251 585 z m 102 12 b 100 12 99 13 98 14 b 83 52 70 177 59 303 b 52 304 46 310 46 318 b 46 325 50 330 57 332 b 51 400 47 466 43 518 l 41 548 b 41 549 42 551 43 551 b 45 551 46 550 46 548 l 48 518 b 52 467 56 400 62 333 b 70 332 76 326 76 318 b 76 311 71 305 64 303 b 75 178 88 54 103 16 b 104 14 103 13 102 12 z"},"\"":{"x_min":0,"x_max":295,"ha":295,"o":"m 110 353 b 109 355 107 355 106 354 l 103 352 l 102 356 b 102 357 101 358 99 358 b 98 357 97 356 97 355 l 98 350 l 94 348 l 93 354 b 93 354 92 355 92 355 b 91 356 90 356 90 355 l 84 354 l 84 358 l 89 360 b 90 360 91 361 90 363 b 90 364 88 365 87 364 l 84 363 l 84 367 b 84 369 83 370 81 370 b 80 370 79 369 79 367 l 79 364 l 75 365 b 74 365 73 364 72 363 b 72 362 73 360 74 360 l 79 358 l 79 354 l 73 356 b 72 356 71 356 71 355 b 70 355 70 354 69 354 l 68 348 l 64 350 l 65 355 b 66 356 65 358 63 358 b 62 358 61 357 60 356 l 60 353 l 56 354 b 55 355 54 355 53 353 b 52 352 53 351 54 350 l 57 348 l 55 346 b 54 345 54 343 54 342 b 55 342 56 341 56 341 b 57 341 58 342 58 342 l 62 345 l 66 343 l 61 339 b 61 339 60 338 60 337 b 60 336 61 336 61 335 l 66 331 l 62 329 l 58 332 b 57 333 55 333 54 332 b 54 331 54 330 55 329 l 57 326 l 54 324 b 53 324 52 322 53 321 b 53 320 54 320 56 320 l 60 322 l 60 318 b 61 317 62 316 63 316 b 63 316 63 316 63 317 b 65 317 66 318 65 320 l 64 325 l 68 327 l 69 321 b 70 320 70 319 71 319 b 71 319 72 319 73 319 l 79 321 l 79 316 l 74 315 b 73 314 72 313 72 311 b 73 310 74 310 75 310 l 79 311 l 79 307 b 79 306 80 304 81 304 b 83 304 84 306 84 307 l 84 311 l 87 310 b 89 310 90 310 90 311 b 91 313 90 314 89 315 l 84 316 l 84 321 l 90 319 b 91 319 91 319 92 319 b 92 319 93 320 93 321 l 94 327 l 98 324 l 97 319 b 97 318 98 317 100 316 b 101 316 102 317 102 318 l 103 322 l 106 320 b 106 320 107 319 107 319 b 108 319 109 320 109 321 b 110 322 110 324 109 324 l 105 326 l 108 328 b 109 329 109 331 108 332 b 107 333 106 333 105 332 l 101 329 l 97 331 l 101 335 b 102 336 102 336 102 337 b 102 338 102 339 101 339 l 97 343 l 101 345 l 105 342 b 105 342 106 341 106 341 b 107 341 108 342 108 342 b 109 343 109 345 108 346 l 105 348 l 109 350 b 110 351 110 352 110 353 z m 74 350 l 79 348 l 79 344 b 78 344 77 344 76 343 l 73 345 z m 70 334 l 67 337 l 70 341 l 74 339 b 74 338 74 338 74 336 z m 79 326 l 74 324 l 73 329 l 76 331 b 77 331 78 330 79 330 z m 81 335 b 80 335 79 336 79 337 b 79 338 80 340 81 340 b 83 340 84 338 84 337 b 84 336 83 335 81 335 z m 84 348 l 89 350 l 90 345 l 86 343 b 86 344 85 344 84 344 z m 89 324 l 84 326 l 84 330 b 85 330 86 331 86 331 l 90 329 z m 92 334 l 89 336 b 89 338 89 338 89 339 l 92 341 l 96 337 z m 190 546 b 186 551 183 562 160 562 b 143 562 134 555 131 548 b 120 533 126 440 138 408 b 141 401 148 399 156 399 b 164 399 173 402 175 408 b 185 433 200 531 190 546 z m 162 476 l 162 436 b 162 435 161 434 160 434 b 158 434 157 435 157 436 l 157 476 b 150 478 145 483 145 491 b 145 498 150 504 157 505 l 157 527 b 157 528 158 529 160 529 b 161 529 162 528 162 527 l 162 505 b 169 504 175 498 175 491 b 175 483 169 478 162 476 z m 79 408 b 89 433 104 531 94 546 b 90 551 87 562 64 562 b 47 562 38 555 35 548 b 24 533 30 440 42 408 b 45 401 52 399 60 399 b 68 399 77 402 79 408 z m 48 487 b 48 494 54 500 61 501 l 61 527 b 61 528 62 529 63 529 b 65 529 66 528 66 527 l 66 501 b 73 500 78 494 78 487 b 78 480 73 474 66 473 l 66 436 b 66 435 65 434 63 434 b 62 434 61 435 61 436 l 61 473 b 54 474 48 480 48 487 z"},"7":{"x_min":0,"x_max":260,"ha":260,"o":"m 179 123 b 180 122 181 122 182 122 b 183 121 185 121 188 120 b 189 120 189 120 190 121 b 191 122 190 124 189 124 b 188 124 187 124 186 125 b 185 125 184 125 184 125 b 184 126 185 126 188 128 b 188 129 188 129 188 130 b 187 131 186 131 185 130 b 183 129 183 129 182 129 b 182 130 183 131 183 135 b 183 136 182 136 182 136 b 181 136 180 136 180 135 b 179 134 179 133 179 132 b 178 130 178 128 177 126 b 176 125 174 124 172 123 b 171 122 170 122 169 121 b 169 122 169 123 169 123 b 169 125 169 127 169 130 b 170 131 170 132 171 132 b 172 134 174 135 176 137 b 176 138 177 139 176 140 b 175 140 174 141 173 140 b 172 139 171 138 171 137 b 170 137 170 136 169 136 b 169 137 169 137 169 138 b 169 139 169 139 169 140 b 169 141 168 142 167 142 b 166 142 165 141 165 139 b 165 138 165 137 165 136 b 164 137 163 138 161 140 b 161 140 159 141 159 140 b 158 139 158 138 159 137 b 160 136 160 135 161 135 b 162 133 164 132 165 130 b 165 129 165 127 165 125 b 165 124 165 122 165 121 b 165 122 164 122 163 122 b 162 123 160 124 157 126 b 157 127 157 128 157 128 b 156 130 156 132 153 136 b 152 136 151 135 151 134 b 152 133 152 132 152 131 b 152 130 152 129 153 129 b 152 129 151 129 151 130 b 150 130 150 130 147 130 b 146 129 146 128 147 127 b 149 126 150 126 151 125 b 149 125 148 125 147 124 b 146 124 146 124 144 123 b 144 123 144 122 144 121 b 144 120 145 120 146 120 b 148 120 149 121 150 121 b 152 121 153 122 155 123 b 157 122 161 120 163 118 b 163 118 162 117 161 117 b 160 116 158 115 155 113 b 155 114 149 115 148 115 b 147 115 147 116 145 116 b 145 115 144 115 144 114 b 144 112 147 111 149 111 b 149 111 150 111 151 111 b 150 110 150 110 149 110 b 148 109 148 109 146 108 b 146 107 146 106 147 106 b 147 105 148 105 149 105 b 151 106 152 107 153 107 b 152 106 152 105 151 102 b 151 101 151 101 151 100 b 152 100 152 100 153 100 b 154 99 155 100 155 101 b 155 102 156 103 156 104 b 156 106 157 108 157 110 b 159 111 161 112 162 113 b 163 113 164 114 165 115 b 165 114 165 113 165 112 b 165 110 165 108 165 105 b 165 105 164 104 163 103 b 162 102 161 101 159 99 b 158 98 158 97 159 96 b 160 95 161 95 161 96 b 162 97 163 98 164 98 b 164 99 165 99 165 100 b 165 99 165 99 165 98 b 165 97 165 97 165 96 b 165 95 166 94 167 94 b 168 94 169 95 169 97 b 169 98 169 99 169 100 b 170 99 171 98 173 96 b 174 95 175 95 176 96 b 176 97 177 98 176 99 b 174 101 172 103 169 105 b 169 107 169 109 169 111 b 169 112 169 113 169 115 b 170 114 170 114 171 113 b 173 112 175 111 177 110 b 177 109 178 108 178 107 b 178 106 179 104 180 100 b 181 100 182 99 182 100 b 183 100 184 101 183 102 b 183 103 183 104 182 105 b 182 106 182 107 182 107 b 182 107 183 107 185 105 b 186 105 186 105 188 106 b 188 107 188 108 186 109 b 185 110 185 110 184 111 b 185 111 187 111 190 113 b 191 113 191 114 190 114 b 190 115 189 116 188 116 b 187 115 186 115 185 115 b 183 114 181 114 179 113 b 178 114 176 115 174 116 b 173 117 172 117 171 118 b 172 118 172 119 173 119 b 175 120 176 121 179 123 z m 41 392 l 41 387 l 36 385 b 34 385 34 384 34 382 b 34 381 35 380 37 380 l 41 381 l 41 377 b 41 376 42 375 43 375 b 45 375 46 376 46 377 l 46 381 l 50 380 b 51 380 52 381 53 382 b 53 383 53 385 51 385 l 46 387 l 46 392 l 52 390 b 54 390 54 390 54 390 b 55 390 56 391 56 392 l 57 398 l 61 396 l 60 391 b 60 389 61 388 63 387 b 64 387 65 388 65 389 l 66 393 l 70 391 b 72 391 73 391 73 392 b 74 393 74 395 72 396 l 69 398 l 71 400 b 73 401 73 403 72 404 b 71 405 69 405 68 404 l 64 400 l 60 403 l 65 407 b 65 408 66 408 66 409 b 66 410 65 411 65 411 l 60 415 l 64 418 l 68 414 b 68 414 69 413 70 413 b 70 413 71 414 72 414 b 73 415 73 417 72 418 l 69 421 l 72 423 b 74 423 74 425 73 426 b 73 428 71 428 70 427 l 66 425 l 65 429 b 65 430 64 431 62 431 b 61 431 60 429 60 428 l 61 422 l 57 420 l 56 426 b 56 427 55 428 55 428 b 54 429 53 429 52 428 l 46 426 l 46 431 l 51 433 b 53 433 53 435 53 436 b 53 438 51 438 50 438 l 46 437 l 46 441 b 46 442 45 444 43 444 b 42 444 41 442 41 441 l 41 437 l 37 438 b 36 438 34 438 34 436 b 34 435 34 433 36 433 l 41 431 l 41 426 l 35 429 b 34 429 33 429 31 427 l 30 420 l 26 422 l 27 428 b 27 429 26 431 25 431 b 23 431 22 430 21 429 l 21 425 l 17 427 b 16 428 14 428 14 426 b 13 425 13 423 15 423 l 18 421 l 15 418 b 14 417 14 416 15 414 b 16 414 16 414 17 414 b 18 414 19 414 19 414 l 23 418 l 27 416 l 22 411 b 22 411 21 410 21 409 b 21 408 22 408 22 407 l 27 403 l 23 401 l 19 404 b 18 405 16 405 15 404 b 14 403 14 401 15 400 l 18 398 l 15 396 b 13 395 13 393 14 392 b 14 391 15 391 17 391 l 21 393 l 21 389 b 22 388 23 387 25 387 b 26 388 27 389 27 391 l 26 396 l 30 398 l 31 392 b 31 391 32 390 32 390 b 33 390 34 390 35 390 z m 51 396 l 46 397 l 46 401 b 47 402 48 402 49 403 l 52 401 z m 55 413 l 59 409 l 55 406 l 51 408 b 51 410 51 410 51 411 z m 46 421 l 51 422 l 52 417 l 49 415 b 48 416 47 416 46 417 z m 43 412 b 45 412 46 411 46 409 b 46 408 45 406 43 406 b 42 406 41 408 41 409 b 41 411 42 412 43 412 z m 41 397 l 36 396 l 35 401 l 38 403 b 39 402 40 402 41 401 z m 36 423 l 41 421 l 41 417 b 40 416 39 416 38 415 l 35 417 z m 32 406 l 28 409 l 32 413 l 35 411 b 35 410 35 410 35 408 z m 239 553 l 238 557 b 237 565 232 571 223 571 b 220 571 216 571 210 572 b 204 573 198 573 192 573 b 187 573 181 573 176 572 b 162 572 146 573 128 573 b 94 573 57 572 26 569 b 8 567 8 522 31 524 b 70 529 110 529 151 529 b 144 477 130 404 113 326 b 94 326 72 325 49 323 b 31 321 31 282 54 284 b 54 284 68 287 104 288 b 84 196 59 99 35 22 b 28 5 44 -7 62 -7 b 73 -7 84 -3 90 9 b 112 73 133 182 165 288 b 175 288 186 287 198 287 b 218 286 224 323 199 325 b 194 325 186 325 176 326 b 204 418 228 502 236 537 b 238 543 239 548 239 553 z m 182 430 b 182 422 176 415 167 415 l 150 335 b 150 334 148 333 147 333 b 145 334 144 335 145 336 l 162 416 b 156 419 152 424 152 430 b 152 439 159 445 168 445 l 185 520 b 185 521 186 522 188 522 b 189 522 190 520 190 519 l 173 444 b 179 442 182 436 182 430 z"},"S":{"x_min":0,"x_max":273,"ha":273,"o":"m 206 712 l 204 712 b 201 714 199 714 195 714 b 194 714 194 713 194 713 b 193 712 194 711 195 710 l 199 709 b 200 709 200 709 201 709 b 200 708 200 708 199 708 b 199 707 198 707 197 707 b 197 706 197 706 197 704 b 197 703 198 702 200 703 b 202 704 202 704 203 705 b 203 703 202 702 202 699 b 202 699 202 698 203 696 b 204 696 205 697 206 698 b 206 699 206 700 207 702 b 207 704 208 706 208 708 b 210 709 212 710 214 711 b 215 712 216 712 217 713 l 217 703 l 215 701 b 214 699 212 698 210 696 b 209 695 209 693 210 693 b 211 692 212 692 213 693 b 214 693 215 694 216 695 b 216 696 217 696 217 697 l 217 695 b 217 694 217 693 217 693 b 217 691 218 690 220 690 b 221 690 222 691 222 693 l 222 697 b 223 696 224 695 225 693 l 226 693 b 227 692 228 692 229 693 b 230 693 230 695 229 696 b 228 696 227 697 226 698 l 222 703 l 222 713 b 222 713 223 712 224 712 b 226 711 228 710 229 709 b 230 708 230 708 231 708 b 231 707 231 706 231 705 b 232 703 232 701 234 697 b 235 696 235 696 236 696 b 237 697 238 698 237 699 b 237 700 237 702 236 703 b 236 704 236 704 236 705 b 236 705 237 704 239 703 b 240 703 241 702 241 703 b 242 703 242 703 242 704 b 243 705 243 706 242 707 b 240 708 239 708 238 709 b 239 709 241 710 242 710 b 243 710 243 710 245 711 b 245 712 246 712 245 713 b 245 714 244 715 243 714 l 239 713 b 237 713 235 712 233 712 b 231 713 229 714 227 715 b 226 715 225 716 224 717 b 225 717 225 718 226 718 b 228 719 230 720 233 722 b 234 722 235 721 235 721 b 237 721 239 720 241 720 b 242 720 242 719 243 719 b 245 720 245 720 245 721 b 246 722 245 723 244 723 l 240 724 b 239 725 239 725 238 725 b 239 725 239 726 240 726 b 240 726 241 727 243 728 b 243 729 243 730 242 730 b 242 731 241 731 239 731 b 237 730 237 729 236 729 b 236 730 237 732 237 733 b 237 734 237 734 236 737 b 235 738 234 737 233 736 l 232 732 b 232 730 231 728 231 726 b 229 725 227 724 225 723 b 224 722 223 721 222 721 l 222 731 l 229 738 b 230 739 230 740 229 741 b 228 742 227 742 226 741 l 222 737 l 222 739 b 222 740 222 740 222 741 b 222 742 221 743 220 743 b 218 743 217 742 217 741 l 217 737 b 216 738 215 739 214 740 l 213 741 b 212 742 211 742 210 741 b 209 740 209 739 210 738 b 211 737 212 736 213 735 l 217 731 l 217 721 b 217 721 216 721 215 722 b 213 723 211 724 210 725 b 209 725 209 726 208 726 b 208 727 208 728 208 729 b 207 730 207 732 206 734 b 206 735 206 735 205 737 b 204 737 204 737 203 737 b 202 737 201 736 202 735 l 203 731 b 203 730 203 729 203 729 b 203 729 202 730 200 731 b 199 731 198 731 197 730 b 196 729 196 728 197 727 b 198 727 198 727 199 727 b 199 726 200 726 201 725 b 200 725 196 724 194 721 b 194 720 195 719 196 719 b 198 720 199 720 200 720 b 202 721 204 721 206 722 b 208 721 210 720 212 719 b 213 718 214 718 215 717 b 214 716 214 716 213 716 b 211 715 209 713 206 712 z m 101 525 b 101 562 128 569 138 569 b 162 569 168 531 168 509 b 168 497 176 492 185 492 b 193 492 202 498 202 510 b 202 534 201 612 127 612 b 26 612 3 531 3 494 b 3 385 139 235 139 79 b 139 6 108 -2 93 -2 b 46 -2 42 106 42 121 b 42 127 34 130 26 130 b 18 130 9 127 9 120 b 9 64 11 -44 97 -44 b 166 -44 223 4 223 104 b 223 269 101 419 101 525 z m 166 23 b 166 22 165 22 164 22 b 163 22 163 22 162 22 b 161 23 161 25 162 26 b 206 85 169 185 127 284 b 117 284 109 287 109 299 b 109 304 111 308 115 311 b 66 425 21 533 89 582 b 90 583 91 582 92 581 b 93 580 93 578 92 577 b 27 531 72 425 120 313 b 129 313 139 312 139 299 b 139 293 136 289 131 286 b 174 185 212 84 166 23 z m 7 -168 b 9 -168 12 -168 14 -168 b 17 -169 20 -170 24 -171 b 25 -171 25 -171 26 -172 b 27 -172 28 -172 29 -171 b 30 -171 30 -170 31 -169 b 31 -167 30 -165 28 -164 b 26 -164 24 -163 22 -163 b 21 -162 19 -162 18 -162 b 19 -161 20 -160 21 -160 b 22 -159 23 -159 24 -158 b 25 -158 26 -157 26 -156 b 26 -155 26 -154 26 -153 b 25 -151 22 -151 21 -152 b 20 -152 19 -152 19 -153 b 17 -154 16 -155 14 -155 b 15 -153 16 -150 16 -148 b 17 -147 17 -146 17 -145 b 17 -144 17 -143 17 -142 b 16 -142 15 -141 14 -141 b 13 -140 10 -141 10 -143 b 9 -145 9 -148 8 -150 b 7 -153 6 -156 5 -161 b 2 -162 -1 -164 -4 -166 b -6 -167 -8 -168 -10 -169 l -10 -152 b -9 -151 -8 -149 -6 -148 b -4 -146 -2 -143 1 -141 b 2 -140 2 -140 3 -139 b 4 -138 4 -135 3 -134 b 1 -133 -1 -132 -3 -134 b -4 -135 -6 -137 -7 -139 l -10 -141 l -10 -137 b -10 -136 -10 -135 -10 -134 b -10 -132 -12 -130 -14 -130 b -16 -130 -17 -132 -17 -134 l -17 -141 l -25 -134 b -26 -133 -29 -132 -30 -134 b -31 -135 -31 -138 -30 -139 b -28 -141 -27 -142 -25 -144 b -23 -146 -20 -149 -17 -152 l -17 -169 b -19 -169 -20 -168 -21 -167 b -24 -165 -28 -164 -31 -162 l -33 -161 b -33 -159 -33 -157 -34 -156 b -35 -152 -36 -149 -37 -146 b -37 -145 -37 -144 -37 -143 b -37 -142 -38 -142 -39 -141 b -40 -141 -41 -140 -42 -141 b -44 -141 -45 -143 -44 -145 b -44 -147 -43 -150 -43 -152 b -42 -153 -42 -154 -42 -155 b -43 -155 -44 -154 -45 -153 b -46 -153 -47 -152 -48 -152 b -49 -151 -50 -151 -51 -151 b -52 -152 -53 -152 -53 -153 b -54 -155 -53 -157 -52 -158 b -51 -158 -50 -159 -50 -159 b -48 -160 -47 -161 -45 -162 b -48 -162 -51 -163 -53 -164 b -54 -164 -55 -164 -55 -164 b -56 -165 -57 -165 -58 -166 b -58 -167 -58 -168 -58 -169 b -57 -171 -55 -172 -53 -172 b -51 -171 -49 -170 -47 -170 b -44 -169 -40 -168 -36 -167 b -33 -169 -30 -170 -27 -172 b -25 -173 -23 -175 -21 -176 b -22 -176 -23 -177 -25 -178 b -28 -180 -31 -182 -36 -185 b -38 -184 -40 -184 -41 -183 b -44 -182 -48 -181 -51 -181 b -52 -180 -53 -180 -53 -180 b -54 -180 -55 -180 -56 -180 b -57 -181 -58 -182 -58 -183 b -58 -184 -57 -187 -55 -187 b -53 -188 -51 -188 -49 -189 b -48 -189 -47 -189 -45 -190 b -46 -190 -48 -191 -49 -192 b -50 -192 -51 -193 -52 -193 b -52 -194 -53 -195 -53 -196 b -54 -197 -54 -198 -53 -199 b -52 -200 -50 -201 -48 -200 b -47 -199 -47 -199 -46 -199 b -45 -198 -43 -197 -42 -196 b -42 -199 -43 -201 -44 -204 b -44 -205 -44 -205 -44 -206 b -45 -207 -44 -208 -44 -209 b -44 -210 -43 -211 -42 -211 b -40 -211 -38 -210 -37 -208 b -37 -206 -36 -204 -36 -202 b -35 -199 -34 -195 -33 -191 b -30 -189 -27 -187 -23 -186 b -21 -185 -19 -183 -17 -182 l -17 -200 b -19 -201 -20 -202 -21 -203 b -23 -206 -26 -208 -28 -211 b -29 -211 -29 -212 -30 -212 b -31 -214 -32 -216 -30 -218 b -28 -220 -26 -219 -25 -218 b -23 -216 -22 -215 -20 -213 b -19 -212 -18 -211 -17 -210 l -17 -214 b -17 -215 -17 -216 -17 -217 l -17 -218 b -17 -219 -16 -221 -14 -221 b -12 -221 -10 -220 -10 -218 l -10 -210 b -8 -212 -6 -214 -4 -216 b -4 -216 -3 -217 -3 -218 b -1 -219 1 -220 3 -218 b 5 -216 4 -214 3 -212 l -10 -200 l -10 -182 b -9 -183 -8 -184 -6 -184 b -3 -186 0 -188 3 -190 b 4 -190 5 -191 5 -191 b 6 -193 6 -194 7 -196 b 7 -199 8 -203 9 -206 b 9 -207 11 -210 12 -210 b 12 -211 14 -211 14 -211 b 16 -210 18 -208 17 -206 b 16 -204 16 -202 15 -200 b 15 -199 15 -197 14 -196 b 15 -197 17 -198 18 -198 b 19 -199 20 -199 21 -200 b 21 -200 23 -200 23 -200 b 24 -200 25 -199 26 -199 b 27 -197 26 -194 24 -193 b 24 -193 23 -193 22 -192 b 21 -191 19 -191 18 -190 b 21 -189 23 -188 26 -188 b 27 -188 30 -186 30 -185 b 31 -185 31 -183 31 -183 b 30 -181 28 -179 26 -180 b 24 -181 22 -181 20 -182 b 16 -183 13 -183 9 -185 b 6 -183 3 -181 0 -179 b -2 -178 -4 -177 -6 -176 b -5 -175 -4 -174 -3 -174 b 1 -172 4 -170 7 -168 z"},"}":{"x_min":0,"x_max":188,"ha":188,"o":"m 211 602 l 215 606 b 217 608 217 611 215 612 b 214 614 211 614 209 613 l 203 607 l 196 611 l 204 618 b 205 618 205 620 205 621 b 205 622 205 623 204 624 l 196 631 l 203 635 l 209 629 b 210 628 211 628 212 628 b 213 628 214 628 215 629 b 217 631 217 634 215 635 l 211 639 l 216 642 b 218 643 219 646 218 648 b 217 650 214 651 212 650 l 206 646 l 205 652 b 205 654 202 656 200 655 b 198 655 196 653 197 650 l 199 642 l 192 638 l 190 648 b 190 650 189 651 188 651 b 187 652 186 652 184 652 l 174 648 l 174 656 l 183 658 b 185 659 186 662 185 664 b 185 666 182 667 180 667 l 174 665 l 174 671 b 174 674 172 676 170 676 b 168 676 166 674 166 671 l 166 665 l 160 667 b 158 667 156 666 155 664 b 154 662 155 659 158 659 l 166 656 l 166 648 l 156 652 b 155 652 153 652 152 651 b 151 651 151 650 150 649 l 148 638 l 142 642 l 143 650 b 144 653 143 655 140 655 b 138 656 136 655 135 652 l 134 647 l 128 650 b 126 651 124 650 123 648 b 121 646 122 644 124 642 l 130 639 l 125 635 b 124 634 124 631 125 629 b 126 628 127 628 128 628 b 129 628 130 628 131 629 l 138 635 l 144 631 l 136 624 b 135 623 135 622 135 621 b 135 620 135 619 136 618 l 144 611 l 138 607 l 131 613 b 129 614 127 614 125 612 b 124 611 124 608 126 606 l 130 603 l 124 599 b 122 598 121 596 123 593 b 123 592 125 591 126 591 b 127 591 128 591 128 592 l 134 595 l 135 589 b 136 587 137 586 140 586 b 143 587 144 589 143 591 l 142 600 l 148 603 l 150 593 b 151 592 151 591 152 590 b 153 590 155 590 156 590 l 166 593 l 166 586 l 158 583 b 156 582 154 580 155 578 b 156 576 157 575 160 575 l 166 577 l 166 570 b 166 568 168 566 170 566 b 172 566 174 568 174 570 l 174 576 l 180 575 b 183 575 185 576 185 578 b 186 580 185 582 182 583 l 174 586 l 174 593 l 184 590 b 186 590 187 590 188 590 b 189 591 189 592 190 593 l 192 603 l 198 599 l 197 591 b 196 589 198 587 200 586 b 203 586 205 587 205 589 l 206 595 l 212 592 b 212 591 213 591 214 591 b 215 591 217 592 217 593 b 219 595 218 598 216 599 z m 158 642 l 166 640 l 166 633 b 164 632 163 632 162 631 l 156 634 z m 152 615 l 146 621 l 152 626 l 157 623 b 157 622 157 622 157 621 b 157 620 157 619 157 618 z m 166 602 l 158 599 l 156 608 l 162 611 b 163 610 164 609 166 608 z m 170 616 b 168 616 166 618 166 621 b 166 623 168 625 170 625 b 172 625 174 623 174 621 b 174 618 172 616 170 616 z m 174 640 l 182 642 l 184 634 l 178 631 b 177 632 176 632 174 633 z m 182 599 l 174 602 l 174 609 b 176 609 177 610 179 611 l 184 608 z m 188 615 l 183 619 b 183 619 183 620 183 621 b 183 622 183 622 183 623 l 188 627 l 195 621 z m 142 332 b 108 354 130 462 130 523 b 130 584 82 625 8 625 b -9 625 -9 587 8 587 b 52 587 74 558 74 524 b 74 490 39 343 88 316 b 36 260 58 67 58 32 b 58 -2 42 -24 -4 -24 b -20 -24 -32 -61 -7 -61 b 68 -61 127 -40 127 51 b 127 140 110 267 147 293 b 166 306 160 320 142 332 z m 102 364 b 103 363 102 361 101 360 b 99 360 98 360 97 361 b 94 366 91 384 90 405 b 82 405 75 412 75 420 b 75 429 82 435 91 435 b 92 450 94 466 97 479 b 97 480 99 481 100 481 b 102 480 103 479 102 477 b 99 464 97 449 96 434 b 101 432 105 426 105 420 b 105 414 101 409 96 406 b 96 385 99 368 102 364 z"},"Z":{"x_min":0,"x_max":223,"ha":223,"o":"m -18 716 l -20 717 b -22 717 -24 718 -26 718 b -27 718 -27 718 -28 718 b -28 719 -29 719 -29 718 b -30 718 -30 717 -30 717 b -31 716 -30 715 -29 714 l -25 713 b -24 713 -24 713 -23 713 b -24 712 -24 712 -25 712 b -25 711 -26 711 -27 711 b -27 710 -27 710 -27 708 b -27 707 -26 706 -24 707 b -22 708 -22 709 -21 709 b -21 707 -22 706 -22 703 b -23 703 -22 702 -22 701 b -22 701 -21 701 -21 701 b -20 700 -19 701 -18 702 l -17 706 b -17 708 -16 710 -16 712 b -14 713 -12 714 -10 715 b -9 716 -8 716 -7 717 l -7 707 l -9 705 b -10 703 -12 702 -14 700 b -15 699 -15 697 -14 697 b -13 696 -12 696 -11 697 b -10 697 -9 698 -8 699 b -8 700 -7 700 -7 701 l -7 699 b -7 698 -7 697 -7 697 b -7 695 -6 694 -5 694 b -3 694 -2 695 -2 697 l -2 701 l 2 697 b 3 696 4 696 5 697 b 6 697 6 699 5 700 l -2 707 l -2 717 b -2 717 -1 716 0 716 b 2 715 4 714 5 713 b 6 712 6 712 7 712 b 7 711 7 710 7 709 b 8 707 8 705 10 701 b 11 700 11 700 12 701 b 13 701 14 702 13 703 l 12 707 b 12 708 12 708 12 709 b 12 709 13 708 15 707 b 16 707 17 707 18 708 b 19 709 19 710 18 711 b 17 711 17 711 16 711 b 16 712 15 712 14 713 b 15 713 17 714 18 714 b 19 714 19 714 21 715 b 21 716 21 716 21 717 b 21 718 20 719 19 718 b 17 718 16 718 15 717 b 13 717 11 716 9 716 l 3 719 b 2 720 1 720 0 721 b 1 721 1 722 2 722 b 4 723 6 724 9 726 b 10 726 11 726 11 725 b 13 725 15 724 17 724 b 18 724 18 723 19 723 b 21 724 21 724 21 725 b 22 726 21 727 20 727 l 16 728 b 15 729 15 729 14 729 b 15 729 15 730 16 730 b 16 731 17 731 19 732 b 19 733 19 734 18 734 b 18 735 16 735 15 735 b 13 734 13 733 12 733 b 12 734 13 736 13 737 b 13 738 13 738 12 741 b 11 742 10 741 9 740 b 9 739 9 737 8 736 b 8 734 7 732 7 730 b 5 729 3 728 1 727 b 0 726 -1 725 -2 725 l -2 735 b -2 736 -1 736 0 737 b 1 738 3 740 4 741 l 5 742 b 6 743 6 744 5 745 b 4 746 3 746 2 745 b 1 744 0 743 -1 743 b -1 742 -2 741 -2 741 l -2 743 b -2 746 -2 747 -5 747 b -6 747 -7 746 -7 745 l -7 741 b -8 742 -9 743 -10 744 l -11 745 b -12 746 -13 746 -14 745 b -15 744 -15 743 -14 742 l -7 735 l -7 725 l -9 726 b -11 727 -13 728 -14 729 b -15 729 -15 730 -16 730 b -16 731 -16 732 -16 733 b -17 735 -17 736 -18 738 b -18 739 -18 739 -19 741 b -20 741 -20 741 -21 741 b -22 741 -23 740 -22 739 b -22 737 -22 736 -21 735 b -21 734 -21 734 -21 733 b -21 733 -22 734 -24 735 b -25 735 -26 735 -27 734 b -28 733 -28 732 -27 731 b -25 730 -24 730 -23 729 b -24 729 -28 728 -30 725 b -30 724 -29 723 -28 723 b -26 724 -25 724 -24 724 b -22 725 -20 725 -18 726 b -16 725 -14 724 -12 723 b -11 722 -10 722 -9 721 b -10 720 -10 720 -11 720 b -13 719 -15 717 -18 716 z m 180 112 b 182 111 184 111 185 111 b 189 110 192 109 195 108 b 196 108 197 107 198 107 b 199 107 200 107 200 108 b 201 108 202 109 202 110 b 203 112 202 114 200 114 b 197 115 195 115 193 116 b 192 116 191 117 189 117 b 191 118 192 118 193 119 b 194 120 195 120 196 121 b 197 121 197 122 197 123 b 198 124 198 125 197 126 b 196 127 194 128 192 127 b 191 127 191 126 190 126 b 189 125 187 124 186 123 b 186 126 187 129 188 131 b 188 132 188 133 188 133 b 189 134 189 135 188 136 b 188 137 187 138 186 138 b 184 138 182 137 181 135 b 181 133 180 131 180 129 b 179 126 178 122 177 118 b 174 116 171 115 168 113 b 166 112 163 111 161 109 l 161 127 l 172 138 b 173 138 173 139 174 140 b 175 141 176 143 174 145 b 173 146 170 146 169 145 b 167 143 166 142 164 140 b 163 139 162 138 161 137 l 161 141 b 161 142 161 144 161 145 b 161 147 160 149 158 148 b 156 148 154 147 154 145 l 154 137 b 152 139 150 141 148 143 b 148 144 147 144 147 145 b 145 146 143 146 141 145 b 140 143 140 141 141 140 b 143 138 145 137 146 135 b 149 133 151 130 154 127 l 154 109 b 153 110 152 111 150 111 b 147 113 144 115 141 117 l 139 118 b 138 120 138 121 138 123 b 137 126 136 130 135 133 b 135 134 134 135 134 135 b 134 136 133 137 133 138 b 132 138 131 138 130 138 b 128 137 127 135 127 133 b 128 131 128 129 129 127 b 129 126 129 125 130 123 b 129 124 128 125 126 125 b 125 126 125 126 123 127 b 123 128 122 128 121 127 b 120 127 119 127 118 126 b 117 124 118 122 120 121 b 120 120 121 120 122 120 b 123 119 125 118 126 117 b 123 116 121 116 118 115 b 118 115 117 115 116 114 b 115 114 114 113 114 113 b 113 112 113 111 113 110 b 114 108 116 107 118 107 b 120 108 122 108 124 109 b 128 110 131 111 135 112 b 138 110 141 108 144 107 b 146 105 148 104 150 103 b 149 102 148 102 147 101 b 143 99 140 97 137 95 b 136 95 136 95 135 94 l 130 95 b 127 96 124 97 120 98 b 119 98 119 99 118 99 b 117 99 116 99 115 98 b 114 98 114 97 113 96 b 113 94 114 92 116 92 b 118 91 120 91 122 90 b 124 90 125 89 126 89 b 125 88 124 88 123 87 b 122 86 121 86 120 85 b 119 85 118 84 118 83 b 118 82 118 81 118 80 b 120 79 122 78 123 79 b 124 79 125 80 125 80 b 127 81 128 82 130 83 b 129 80 128 77 128 75 b 127 74 127 73 127 73 b 127 72 127 71 127 70 b 128 69 129 68 130 68 b 132 68 134 69 134 71 b 135 73 135 75 136 77 b 137 80 138 84 139 88 b 142 90 145 91 148 93 b 150 94 152 95 154 97 l 154 79 b 153 78 152 77 151 75 b 148 73 146 71 143 68 b 143 68 142 67 141 66 b 140 65 140 63 141 61 b 143 60 145 60 147 61 l 154 69 l 154 65 b 154 64 154 62 154 61 b 154 59 156 57 158 58 b 160 58 161 59 161 61 l 161 69 l 167 63 b 168 62 168 62 169 61 b 170 60 173 60 174 61 b 175 63 176 65 174 66 b 173 67 163 77 161 79 l 161 97 b 163 96 164 95 165 94 b 168 93 172 91 175 89 b 175 88 176 88 177 88 b 177 86 178 85 178 83 b 179 80 180 76 181 73 b 181 72 181 71 181 71 b 182 70 182 69 183 68 b 184 68 185 68 186 68 b 188 69 189 71 188 73 b 188 75 187 77 187 79 b 186 80 186 81 186 83 b 187 82 188 81 189 81 b 190 80 191 80 192 79 b 193 78 194 78 195 79 b 196 79 197 79 197 80 b 198 82 198 84 196 85 b 195 86 194 86 194 86 b 192 87 191 88 189 89 b 192 90 195 90 197 91 b 198 91 199 91 200 92 b 200 92 201 93 202 93 b 202 94 202 95 202 96 b 201 98 200 99 198 99 b 195 98 193 98 191 97 b 188 96 185 95 180 94 b 177 96 174 98 171 99 b 169 101 167 102 165 103 b 166 104 168 104 169 105 b 172 107 175 109 180 112 z m 205 2 b 194 3 159 4 119 4 b 92 4 63 3 36 2 b 59 74 94 175 127 272 b 142 272 159 271 179 270 b 199 269 205 312 180 313 b 172 314 159 314 141 315 b 185 446 223 560 220 570 b 223 581 218 595 205 596 b 194 596 159 597 119 597 b 83 597 43 597 9 594 b -9 591 -9 548 14 549 b 53 554 94 555 133 555 b 122 500 95 410 65 313 b 55 313 44 312 34 311 b 16 309 16 265 38 267 b 38 267 42 268 51 269 b 16 160 -19 50 -32 -10 b -33 -23 -13 -44 5 -44 l 14 -44 b 14 -44 60 -39 128 -39 b 151 -39 176 -40 203 -41 b 223 -42 229 0 205 2 z m 12 14 b 12 13 11 12 9 12 b 7 13 7 14 7 16 b 8 18 44 137 83 264 b 78 266 75 271 75 277 b 75 285 82 292 91 292 b 128 413 165 534 173 561 b 173 562 175 563 176 563 b 177 562 178 561 178 560 b 170 533 133 412 96 290 b 102 288 105 283 105 277 b 105 266 98 262 88 262 b 49 135 13 16 12 14 z"},"x":{"x_min":0,"x_max":196,"ha":196,"o":"m 164 304 b 159 304 154 302 151 296 b 142 277 111 223 75 168 b 50 228 27 285 24 295 b 19 310 3 317 -12 317 b -33 317 -52 304 -41 280 b -34 264 2 180 34 107 b 11 74 -12 44 -29 24 b -38 13 -33 -1 -22 -1 b -17 -1 -10 2 -3 10 b 14 30 31 52 48 74 b 67 30 83 -4 85 -9 b 92 -24 103 -30 113 -30 b 131 -30 148 -13 144 -1 b 141 7 116 68 90 132 b 140 202 179 267 184 280 b 190 293 176 304 164 304 z m 118 4 b 118 3 118 1 115 0 b 114 0 113 1 113 2 l 51 141 b 41 141 32 144 32 156 b 32 161 35 166 39 168 l -14 288 b -15 290 -14 291 -13 292 b -11 293 -10 292 -9 291 l 44 170 b 53 170 62 168 62 156 b 62 151 59 147 56 144 z m 65 390 l 61 386 b 59 384 59 381 60 380 b 61 379 62 378 63 378 b 64 378 66 379 66 379 l 73 385 l 79 381 l 71 374 b 70 374 70 373 70 371 b 70 370 70 369 71 368 l 79 361 l 73 358 l 66 363 b 66 364 65 365 63 365 b 62 365 61 364 60 363 b 59 361 59 358 61 357 l 65 353 l 59 350 b 57 349 57 346 58 344 b 59 342 60 342 61 342 b 62 342 63 342 64 342 l 69 345 l 70 340 b 71 338 72 336 74 336 b 78 337 79 339 79 342 l 77 350 l 83 354 l 86 344 b 86 342 87 341 88 341 b 89 340 90 340 91 340 l 101 344 l 101 336 l 93 333 b 91 333 89 330 90 328 b 91 326 92 325 95 325 l 101 327 l 101 321 b 101 318 103 316 105 316 b 108 316 110 318 110 321 l 110 327 l 115 325 b 118 325 120 326 120 328 b 121 330 120 333 118 333 l 109 336 l 109 344 l 119 340 b 120 340 120 340 121 340 b 121 340 122 340 123 341 b 124 341 125 342 125 343 l 127 354 l 134 350 l 132 342 b 131 339 133 337 135 336 b 138 336 140 338 140 340 l 141 345 l 147 342 b 148 342 148 342 149 342 b 150 342 152 342 153 344 b 154 346 153 348 151 350 l 146 353 l 150 357 b 152 358 152 361 150 363 b 149 364 146 365 144 363 l 138 357 l 131 361 l 139 368 b 140 369 141 370 141 371 b 141 372 140 374 139 374 l 131 381 l 138 385 l 144 379 b 145 379 146 378 147 378 b 148 378 150 379 150 379 b 152 381 152 384 150 385 l 146 389 l 151 393 b 153 394 154 396 153 399 b 152 401 149 401 147 400 l 142 397 l 140 403 b 140 405 138 406 135 406 b 133 405 131 403 132 401 l 134 392 l 127 389 l 125 399 b 125 400 124 401 123 402 b 122 402 121 402 120 402 l 110 399 l 110 406 l 118 409 b 120 410 121 412 121 414 b 120 417 117 418 115 417 l 110 415 l 110 422 b 110 424 108 426 105 426 b 103 426 101 424 101 422 l 101 415 l 96 417 b 93 417 91 417 90 414 b 89 412 91 410 93 409 l 101 406 l 101 399 l 91 402 b 90 402 89 402 88 402 b 87 401 86 400 86 399 l 83 389 l 77 393 l 79 401 b 79 403 78 405 75 406 b 73 406 71 405 70 403 l 69 397 l 64 400 b 61 401 59 401 58 399 b 57 397 57 394 59 393 z m 118 350 l 110 352 l 110 359 b 111 360 113 360 114 361 l 119 358 z m 124 377 l 130 371 l 124 366 l 118 369 b 118 370 118 370 118 371 b 118 372 118 373 118 374 z m 110 390 l 118 393 l 119 384 l 114 381 b 112 382 111 383 110 383 z m 105 375 b 108 375 110 373 110 371 b 110 369 108 367 105 367 b 103 367 101 369 101 371 b 101 373 103 375 105 375 z m 101 352 l 93 350 l 91 358 l 97 361 b 98 360 99 359 101 359 z m 93 393 l 101 390 l 101 383 b 99 383 98 382 97 381 l 91 384 z m 87 377 l 93 374 b 92 373 92 372 92 371 b 92 370 92 370 93 369 l 87 366 l 81 371 z m -19 518 l -22 519 b -24 520 -26 520 -29 521 b -29 521 -30 521 -32 520 b -32 518 -31 517 -30 517 l -26 516 b -26 516 -25 516 -24 515 b -25 515 -26 515 -26 514 b -27 514 -27 514 -29 512 b -29 511 -29 511 -29 510 b -28 509 -27 509 -26 509 b -24 511 -23 511 -22 512 b -22 510 -23 509 -24 506 b -24 505 -24 505 -22 503 b -21 503 -20 503 -19 505 b -19 506 -19 507 -19 508 b -18 510 -17 512 -17 515 b -15 516 -13 517 -12 518 b -10 518 -9 519 -8 520 l -8 510 b -9 509 -13 504 -14 503 l -15 502 b -16 501 -16 500 -15 499 b -14 498 -13 498 -12 499 b -11 500 -10 501 -10 502 b -9 502 -8 503 -8 503 l -8 501 b -8 501 -8 500 -8 499 b -8 498 -7 497 -6 497 b -5 497 -4 498 -4 499 l -4 503 l 1 499 b 1 498 3 498 4 499 b 4 500 5 501 4 502 b 3 503 2 504 1 505 b 0 506 -2 508 -4 510 l -4 520 b -3 519 -2 519 -2 519 b 0 517 2 516 4 515 l 5 515 b 6 514 6 513 6 512 b 7 510 7 508 8 505 b 8 504 8 504 9 503 b 9 503 10 503 11 503 b 12 503 12 505 12 506 b 12 507 11 508 11 509 b 11 510 11 511 11 512 b 11 511 12 511 12 510 b 13 510 14 510 14 509 b 15 509 15 509 17 510 b 18 511 17 513 16 513 b 14 514 14 515 13 515 b 14 516 16 516 17 517 b 18 517 18 517 20 518 b 20 518 20 519 20 520 b 20 521 19 521 17 521 l 14 520 b 12 520 10 519 7 518 l 2 521 b 1 522 0 523 -1 523 b -1 524 0 524 1 525 b 3 526 4 527 7 529 b 8 528 9 528 10 528 b 12 527 14 527 17 526 b 18 526 19 526 20 527 b 20 530 18 531 15 531 b 14 531 13 531 13 532 b 13 532 14 532 17 535 b 17 536 17 536 17 537 b 16 538 15 538 14 537 b 12 536 11 536 11 535 b 11 537 11 538 12 541 b 12 542 12 542 11 544 b 9 544 8 544 8 542 l 7 539 b 6 537 6 535 5 532 b 3 531 2 530 0 529 b -1 529 -2 528 -4 527 l -4 537 b -3 538 -2 539 -2 540 l 4 545 b 5 546 5 547 4 548 b 3 549 2 549 1 548 l -4 544 l -4 546 b -4 546 -4 547 -4 548 b -4 549 -5 550 -6 550 b -7 550 -8 549 -8 548 l -8 544 b -9 545 -10 546 -11 547 l -12 548 b -13 549 -14 549 -15 548 b -16 547 -16 546 -15 545 b -14 544 -13 543 -13 542 l -8 537 l -8 527 b -9 528 -9 528 -10 528 b -12 530 -14 531 -17 532 b -17 533 -17 534 -18 535 b -18 537 -19 539 -19 542 b -20 543 -20 543 -20 544 b -21 544 -22 544 -22 544 b -23 544 -24 542 -24 541 l -23 538 b -22 537 -22 536 -22 535 b -23 536 -23 536 -24 537 b -25 537 -25 537 -27 538 b -28 538 -28 537 -29 537 b -29 536 -29 534 -27 533 b -26 533 -25 532 -24 532 b -26 531 -27 531 -31 529 b -32 529 -32 528 -32 527 b -31 526 -30 526 -29 526 b -28 526 -27 527 -25 527 b -23 527 -21 528 -19 529 b -17 528 -15 527 -14 526 b -12 525 -11 524 -10 523 b -11 523 -12 523 -12 522 b -14 521 -16 520 -19 518 z"},")":{"x_min":0,"x_max":190,"ha":190,"o":"m 218 550 b 216 550 214 549 213 549 b 210 548 207 547 204 547 b 202 548 199 549 197 551 b 195 552 194 553 192 553 b 193 554 194 555 195 555 b 198 557 200 558 204 560 b 205 560 207 560 208 559 b 210 559 213 558 216 557 b 216 557 217 557 218 557 b 218 557 219 557 220 557 b 220 557 221 558 221 559 b 221 560 221 562 219 562 b 217 563 216 563 214 564 b 213 564 212 564 211 564 b 212 565 213 565 214 566 b 215 566 215 567 216 567 b 217 568 217 568 217 569 b 218 570 218 571 217 571 b 216 573 215 573 213 572 b 211 571 209 570 208 569 b 209 571 209 574 210 577 b 211 578 210 579 210 580 b 210 580 209 581 208 581 b 207 581 205 580 205 579 b 204 577 204 576 203 574 b 203 571 202 569 201 565 b 199 564 196 563 194 561 b 192 560 191 559 189 558 b 189 560 189 561 189 562 b 189 565 189 568 189 572 b 190 573 191 574 192 575 b 194 577 196 579 199 582 b 200 583 200 585 199 586 b 198 587 196 587 195 586 b 194 585 193 584 191 583 b 191 582 190 581 189 580 b 189 581 189 583 189 584 b 189 584 189 585 189 586 b 189 588 188 589 186 589 b 185 589 183 588 183 586 b 183 586 183 585 183 584 b 183 583 183 582 183 580 b 182 582 180 583 178 586 b 177 587 175 587 174 586 b 173 585 172 583 174 582 b 175 581 176 580 177 579 b 179 577 181 575 183 572 b 183 570 183 567 183 564 b 183 562 183 560 183 558 b 183 559 182 560 181 560 b 178 562 175 563 172 565 b 171 567 171 568 170 569 b 170 572 169 574 168 577 b 168 578 168 578 168 579 b 168 580 167 580 167 581 b 166 581 165 581 164 581 b 163 580 162 579 162 577 b 163 576 163 574 164 572 b 164 571 164 570 164 569 b 164 570 163 570 162 571 b 161 571 160 572 159 572 b 159 573 158 573 157 573 b 157 572 156 572 156 571 b 155 570 155 568 157 567 b 159 566 160 565 162 564 b 159 564 157 563 154 562 b 153 562 152 562 152 561 b 152 560 151 559 152 559 b 152 557 154 556 155 557 b 157 557 158 558 160 558 b 163 559 165 559 169 560 b 171 559 173 558 176 556 b 177 555 179 554 181 553 b 180 553 179 552 178 552 b 175 550 173 549 169 547 b 167 547 166 547 165 548 b 162 548 160 549 157 550 b 156 550 156 550 155 550 b 154 550 154 550 153 550 b 152 550 152 549 152 548 b 151 547 152 545 154 545 b 155 544 157 544 159 543 b 160 543 161 543 162 542 b 161 542 155 540 155 538 b 155 537 155 536 156 536 b 156 534 158 534 159 535 b 160 535 160 535 161 535 b 162 536 163 537 164 537 b 164 535 163 533 162 530 b 162 529 162 528 164 526 b 166 526 167 527 168 528 b 168 530 169 531 169 533 b 170 536 171 538 171 542 b 174 543 176 544 179 546 b 180 547 182 548 183 548 b 183 547 183 546 183 545 b 183 542 183 539 183 535 b 183 534 182 533 181 532 b 179 530 177 528 174 525 b 173 524 172 522 174 521 b 175 520 177 520 178 521 b 179 522 180 523 181 524 b 182 525 183 526 183 526 b 183 525 183 524 183 523 b 183 521 183 518 186 518 b 188 518 189 519 189 521 b 189 521 189 522 189 523 b 189 524 189 525 189 526 b 191 525 192 524 195 521 b 196 520 198 520 199 521 b 200 522 200 524 199 525 b 198 526 197 527 195 528 b 194 530 192 532 189 535 b 189 537 189 540 189 543 b 189 545 189 547 189 548 b 190 548 191 547 192 547 b 195 545 197 544 201 542 b 202 540 202 539 202 538 b 203 535 204 532 204 530 b 204 529 205 529 205 528 b 205 527 206 527 206 526 b 207 526 208 526 208 526 b 210 527 211 528 210 530 b 210 531 210 533 209 535 b 209 536 209 536 208 537 b 209 537 210 536 211 536 b 212 536 212 535 213 535 b 214 534 215 534 215 534 b 216 535 217 535 217 536 b 218 537 218 539 216 540 b 213 541 212 542 211 542 b 213 543 215 544 217 544 b 218 544 218 544 219 545 b 220 545 220 545 221 546 b 221 547 221 547 221 548 b 221 550 219 551 218 550 z m 90 626 b 87 631 83 632 78 632 b 67 632 53 623 53 615 b 53 603 63 560 70 501 b 77 443 81 369 78 296 b 75 223 65 150 53 92 b 41 34 28 -8 27 -23 b 27 -45 48 -60 69 -60 b 76 -60 79 -56 83 -52 b 94 -39 115 6 130 66 b 146 127 156 204 157 281 b 158 358 149 435 134 498 b 120 561 100 609 90 626 z m 115 291 b 115 218 110 137 95 51 b 95 49 93 49 92 49 b 90 49 89 50 90 52 b 105 137 110 219 109 291 b 102 292 97 298 97 305 b 97 312 102 318 109 319 b 105 468 79 569 78 571 b 78 572 79 574 80 574 b 82 574 83 574 83 572 b 84 571 110 469 114 320 b 121 319 127 313 127 305 b 127 298 122 292 115 291 z"},"&":{"x_min":0,"x_max":243,"ha":243,"o":"m 247 278 l 250 280 b 251 281 251 283 250 284 b 249 285 247 285 246 284 l 242 281 l 238 283 l 243 287 b 243 288 244 289 244 289 b 244 290 243 291 243 292 l 238 296 l 242 298 l 246 295 b 247 294 247 294 248 294 b 249 294 249 294 250 295 b 251 296 251 298 250 299 l 247 301 l 251 303 b 252 304 252 306 252 307 b 251 308 249 309 248 308 l 244 306 l 244 310 b 243 311 242 312 240 312 b 239 311 238 310 238 309 l 239 303 l 235 301 l 234 307 b 234 308 233 309 232 309 b 232 309 231 310 230 309 l 224 307 l 224 312 l 229 314 b 230 314 231 316 231 317 b 230 319 229 320 227 319 l 224 318 l 224 322 b 224 324 222 325 221 325 b 219 325 218 324 218 322 l 218 318 l 215 319 b 213 320 212 319 211 317 b 211 316 211 314 213 314 l 218 312 l 218 307 l 212 309 b 211 310 210 310 209 309 b 209 309 208 308 208 307 l 207 301 l 203 303 l 204 309 b 204 310 203 312 202 312 b 200 312 199 311 198 310 l 198 306 l 194 308 b 193 309 191 309 190 307 b 189 306 190 304 191 303 l 195 301 l 192 299 b 191 298 191 296 192 295 b 192 294 193 294 194 294 b 195 294 195 294 196 295 l 200 298 l 204 296 l 199 292 b 198 291 198 290 198 290 b 198 289 198 288 199 287 l 204 283 l 200 281 l 196 284 b 195 285 193 285 192 284 b 191 283 191 281 192 280 l 195 278 l 191 276 b 190 275 189 273 190 272 b 191 271 192 270 193 270 b 193 270 194 271 194 271 l 198 273 l 198 269 b 199 268 200 267 202 267 b 203 267 204 269 204 270 l 203 276 l 207 278 l 208 272 b 208 271 209 270 209 270 b 210 269 211 269 212 270 l 218 272 l 218 267 l 213 265 b 211 265 211 263 211 262 b 211 260 213 260 215 260 l 218 261 l 218 257 b 218 255 219 254 221 254 b 222 254 224 255 224 257 l 224 261 l 227 260 b 229 260 230 260 231 262 b 231 263 230 265 229 265 l 224 267 l 224 272 l 230 270 b 230 269 231 269 231 269 b 233 270 233 271 234 272 l 235 278 l 239 276 l 238 270 b 238 269 239 267 241 267 b 242 267 243 268 243 269 l 244 273 l 248 271 b 248 270 249 270 249 270 b 250 270 251 271 251 272 b 252 273 252 275 251 276 z m 213 303 l 218 302 l 218 297 b 217 297 216 297 215 296 l 212 298 z m 209 286 l 205 290 l 209 293 l 213 291 b 213 290 212 290 212 289 b 212 289 213 288 213 288 z m 218 277 l 213 276 l 212 281 l 215 283 b 216 282 217 282 218 282 z m 221 287 b 219 287 218 288 218 289 b 218 291 219 292 221 292 b 222 292 224 291 224 289 b 224 288 222 287 221 287 z m 224 302 l 229 303 l 230 298 l 226 296 b 225 296 225 297 224 297 z m 229 276 l 224 277 l 224 282 b 225 282 226 282 226 283 l 230 281 z m 233 286 l 229 288 b 229 288 229 289 229 291 l 233 293 l 237 290 z m 194 177 b 179 177 180 171 180 164 b 180 157 167 116 143 116 b 129 116 106 116 106 154 b 106 200 135 270 156 277 b 168 281 165 289 146 291 b 130 294 111 315 111 355 b 111 408 135 459 149 459 b 193 459 190 404 190 397 b 190 390 192 384 207 384 b 214 384 222 388 222 394 b 222 418 224 476 169 488 b 170 521 169 547 167 556 b 164 567 154 573 133 573 b 117 573 117 569 112 564 b 106 553 102 521 98 480 b 66 467 32 435 32 363 b 32 315 44 286 96 279 b 49 259 14 215 14 152 b 14 107 63 90 92 87 b 94 48 98 19 102 5 b 103 0 110 -2 117 -2 b 125 -2 135 1 136 5 b 139 14 143 46 147 91 b 201 104 210 144 210 166 b 210 169 207 177 194 177 z m 88 375 b 88 368 82 362 75 361 b 76 338 82 320 93 312 b 94 311 94 309 93 308 b 93 307 92 307 91 307 b 76 318 71 338 70 361 b 63 362 58 368 58 375 b 58 383 64 390 72 390 b 76 415 85 441 97 459 b 97 460 99 460 100 459 b 101 459 102 457 101 456 b 90 438 81 414 78 389 b 84 387 88 382 88 375 z m 103 256 b 87 238 74 213 68 190 b 74 187 78 182 78 176 b 78 168 72 163 65 161 b 65 147 73 131 87 126 b 88 126 89 124 88 123 b 88 122 87 121 85 121 b 69 128 60 144 60 161 b 53 162 47 168 47 176 b 47 184 54 191 63 191 b 69 215 82 241 99 259 b 100 260 102 261 103 260 b 104 259 104 257 103 256 z"},"_":{"x_min":0,"x_max":404,"ha":404,"o":"m 339 -9 b 318 -3 270 -1 219 -1 b 144 -1 62 -6 41 -14 b 35 -17 38 -37 43 -39 b 56 -44 149 -47 227 -47 b 281 -47 327 -45 337 -42 b 352 -37 350 -17 339 -9 z m 97 73 b 96 73 96 73 95 73 b 94 73 93 73 92 74 b 90 74 88 75 86 75 b 85 76 85 76 84 76 b 84 76 83 76 82 76 b 82 75 81 75 81 74 b 81 73 82 72 83 71 b 84 71 89 70 89 69 b 89 69 88 69 87 68 b 87 68 86 67 84 66 b 84 65 84 64 84 64 b 85 63 87 62 88 63 b 90 64 91 65 92 65 b 91 64 91 62 90 59 b 90 58 90 57 90 57 b 91 56 91 56 92 56 b 93 55 94 56 95 57 b 95 59 96 60 96 61 b 97 64 97 66 98 69 b 100 70 102 71 104 72 b 105 73 106 74 108 74 b 108 73 108 73 108 72 b 108 69 108 67 108 63 b 107 62 106 61 106 61 b 104 59 102 57 100 55 b 99 54 99 52 100 51 b 101 50 102 50 103 51 b 104 52 105 53 106 54 b 107 55 107 55 108 56 b 108 55 108 54 108 53 b 108 53 108 52 108 51 b 108 50 109 49 110 49 b 113 49 113 50 113 53 b 113 54 113 55 113 56 b 114 55 115 54 116 52 b 117 52 117 52 118 51 b 118 50 120 50 121 51 b 122 52 122 54 121 55 b 120 56 119 57 118 58 b 116 59 115 61 113 63 b 113 65 113 67 113 70 b 113 71 113 73 113 74 b 113 74 114 73 115 73 b 117 72 119 71 121 69 b 122 69 122 69 123 69 b 123 68 123 67 124 65 b 124 63 125 61 125 59 b 125 58 126 58 127 56 b 127 56 128 55 129 56 b 130 56 131 57 130 59 b 130 60 130 61 129 63 b 129 64 129 64 129 65 b 129 65 130 64 131 64 b 131 64 132 63 133 63 b 133 63 134 62 135 63 b 135 63 136 63 136 64 b 137 65 136 66 135 67 b 133 68 132 69 131 69 b 133 70 134 70 136 71 b 137 71 137 71 139 72 b 139 73 140 74 139 74 b 139 75 138 76 136 76 b 135 75 134 75 132 75 b 130 74 128 74 125 73 b 123 74 121 75 119 76 b 118 77 116 78 115 79 b 116 79 117 80 117 80 b 120 81 122 82 125 84 b 126 84 127 84 128 84 b 130 83 133 82 136 81 b 137 81 138 81 139 83 b 140 84 139 86 138 86 b 136 86 135 87 133 87 b 133 87 132 88 131 88 b 132 88 132 89 133 89 b 134 89 136 91 136 93 b 135 95 134 95 133 94 b 132 94 132 94 131 94 b 130 93 130 93 129 92 b 129 94 130 95 130 97 b 130 98 130 98 130 100 b 130 101 129 101 129 102 b 127 102 126 101 126 100 b 125 98 125 97 125 96 b 124 94 123 91 123 89 b 121 87 119 86 117 85 b 115 84 114 84 113 83 b 113 84 113 85 113 86 b 113 88 113 90 113 94 b 113 95 114 96 115 97 b 117 98 118 100 120 101 b 120 102 121 102 121 103 b 122 103 122 105 121 106 b 120 107 118 107 118 106 b 116 105 115 104 114 103 b 114 102 113 102 113 101 b 113 102 113 103 113 104 b 113 107 113 108 110 108 b 109 108 108 107 108 106 b 108 105 108 105 108 104 b 108 103 108 102 108 101 b 107 102 105 104 103 106 b 102 107 100 107 100 106 b 99 105 99 104 100 103 b 101 102 102 101 103 100 b 104 98 106 96 108 94 b 108 92 108 90 108 87 b 108 86 108 84 108 83 b 107 83 106 84 105 84 b 103 85 101 87 98 89 b 98 90 97 91 97 92 b 96 94 96 96 95 98 b 95 99 95 99 94 101 b 93 102 92 102 92 102 b 91 101 90 100 90 99 b 91 97 91 96 91 94 b 91 94 92 93 92 92 b 91 92 90 93 90 93 b 89 94 88 94 88 94 b 87 95 87 95 86 95 b 85 94 85 94 84 93 b 84 92 84 91 85 90 b 86 90 86 90 87 89 b 88 89 89 88 89 88 b 88 87 86 87 83 86 b 82 86 82 85 81 85 b 81 84 81 84 81 83 b 82 82 83 81 84 81 b 86 82 87 82 88 82 b 91 83 93 84 95 84 b 97 83 99 82 101 81 b 103 80 104 79 105 79 b 105 78 104 78 103 77 b 101 76 99 75 97 73 z"},"v":{"x_min":0,"x_max":203,"ha":203,"o":"m 179 313 b 173 313 165 310 163 304 b 159 293 107 70 102 70 b 96 70 84 165 68 293 b 67 302 48 307 28 307 b 7 307 -14 302 -18 293 b -22 278 15 89 50 18 b 57 5 73 -1 88 -1 b 102 -1 116 4 121 12 b 132 30 187 290 190 303 b 192 310 186 313 179 313 z m 81 40 b 79 40 78 40 78 41 b 67 67 55 114 45 160 b 37 161 31 167 31 175 b 31 181 35 186 39 188 b 30 236 23 276 23 277 b 22 278 23 280 25 280 b 26 280 28 279 28 278 b 28 277 35 237 46 190 b 54 190 61 183 61 175 b 61 168 57 163 51 161 b 60 116 72 68 82 43 b 83 42 82 41 81 40 z m 88 358 l 86 359 b 84 359 82 360 80 360 b 79 361 79 361 77 361 b 76 360 76 360 76 359 b 75 358 76 357 77 357 l 81 356 b 82 355 82 355 83 355 b 82 355 82 354 78 352 b 78 351 78 350 79 350 b 79 349 81 349 82 349 b 84 350 84 351 85 351 b 85 350 84 348 84 347 b 84 346 84 346 85 343 b 89 343 90 351 91 354 l 96 357 b 97 358 98 359 99 359 l 99 349 l 92 342 b 91 341 91 340 92 339 b 93 338 94 338 95 339 l 99 343 l 99 341 b 99 338 99 337 102 337 b 103 337 104 338 104 339 l 104 343 b 105 342 106 341 107 340 l 108 339 b 109 338 110 338 111 339 b 112 340 112 341 111 342 b 110 343 109 344 108 345 l 104 349 l 104 359 b 104 359 105 359 106 358 b 108 357 110 356 113 354 b 113 353 113 352 113 352 b 114 350 114 348 115 346 b 115 345 115 345 116 343 b 117 343 117 343 118 343 b 119 343 120 344 119 345 l 118 349 b 118 350 118 351 118 351 b 119 351 119 351 124 350 b 125 351 125 352 124 353 b 122 354 121 355 120 355 b 122 355 123 356 127 359 b 127 360 126 361 125 361 l 121 360 b 119 359 117 359 115 358 l 109 361 b 108 362 107 363 106 363 b 107 364 107 364 108 364 b 110 366 112 367 115 368 b 116 368 117 368 118 368 b 120 367 121 367 123 366 b 124 366 124 366 127 367 b 128 368 127 369 126 370 b 125 370 123 370 122 371 b 121 371 121 371 120 371 b 121 372 121 372 122 373 b 123 373 123 373 124 373 b 124 374 125 374 125 375 b 125 375 125 376 124 376 b 124 377 123 378 122 377 b 121 377 121 377 120 377 b 120 376 119 376 118 375 b 118 377 119 378 119 381 b 120 381 119 382 119 383 b 119 383 118 383 118 384 b 117 384 116 383 115 382 b 115 381 115 380 114 378 b 114 376 113 375 113 372 b 111 371 109 370 107 369 b 106 368 105 368 104 367 l 104 377 l 106 379 b 107 381 109 382 110 384 l 111 385 b 112 385 112 387 111 388 b 110 388 109 388 108 388 b 107 387 106 386 105 385 b 105 384 104 384 104 383 l 104 386 b 104 386 104 387 104 387 l 104 388 b 104 389 103 390 102 390 b 100 390 99 389 99 388 l 99 383 l 95 388 b 94 388 93 388 92 388 b 91 387 91 385 92 385 b 93 384 94 383 95 382 l 99 377 l 99 367 l 97 368 b 95 369 94 370 91 372 b 90 373 90 374 90 375 b 89 377 89 379 87 383 b 86 384 86 384 85 384 b 84 383 83 382 84 381 b 84 380 84 378 85 377 b 85 377 85 376 85 375 b 85 375 84 376 82 377 b 81 377 80 378 80 377 b 79 377 79 377 79 376 b 78 375 78 374 79 373 b 80 373 80 373 81 373 b 81 372 82 372 83 371 b 82 371 80 371 79 370 b 78 370 78 370 76 369 b 76 368 76 368 76 367 b 76 366 77 365 78 366 l 82 367 b 84 367 86 368 88 368 b 90 367 92 366 94 365 b 95 365 96 364 97 363 b 97 363 96 362 95 362 b 93 361 91 360 88 358 z m 187 -50 b 186 -48 183 -48 181 -49 l 175 -52 l 174 -46 b 174 -44 172 -42 169 -43 b 167 -44 165 -46 166 -48 l 168 -56 l 161 -60 l 159 -50 b 159 -49 158 -48 157 -47 b 156 -47 155 -47 154 -47 l 144 -50 l 144 -43 l 152 -40 b 154 -39 155 -37 154 -35 b 154 -32 151 -31 149 -32 l 143 -33 l 143 -27 b 143 -25 142 -23 139 -23 b 137 -23 135 -25 135 -27 l 135 -33 l 130 -32 b 127 -31 125 -32 124 -34 b 123 -37 125 -39 127 -40 l 135 -42 l 135 -50 l 125 -47 b 124 -46 123 -47 122 -47 b 120 -48 120 -49 119 -50 l 117 -60 l 111 -56 l 113 -48 b 113 -46 112 -43 109 -43 b 107 -42 105 -44 104 -46 l 103 -52 l 98 -49 b 97 -48 96 -48 95 -48 b 94 -48 93 -49 92 -50 b 90 -52 91 -55 93 -56 l 99 -59 l 95 -63 b 93 -65 93 -67 94 -69 b 95 -70 96 -71 97 -71 b 98 -71 99 -70 100 -69 l 107 -64 l 113 -67 l 105 -74 b 104 -75 104 -76 104 -78 b 104 -79 104 -80 105 -81 l 113 -88 l 107 -91 l 100 -86 b 100 -85 99 -85 97 -85 b 96 -85 95 -85 94 -86 b 93 -88 93 -90 95 -92 l 99 -96 l 93 -99 b 91 -100 91 -103 92 -105 b 93 -106 94 -107 95 -107 b 96 -107 97 -107 98 -107 l 103 -103 l 104 -109 b 105 -111 106 -112 109 -112 b 112 -112 113 -109 113 -107 l 111 -99 l 117 -95 l 119 -105 b 120 -106 120 -108 122 -108 b 123 -109 124 -109 125 -108 l 135 -105 l 135 -113 l 127 -115 b 125 -116 123 -118 124 -121 b 125 -123 126 -124 129 -124 l 135 -122 l 135 -128 b 135 -131 137 -133 139 -133 b 142 -133 143 -131 143 -128 l 143 -122 l 149 -124 b 152 -124 154 -123 154 -121 b 155 -119 154 -116 151 -115 l 143 -113 l 143 -105 l 153 -109 b 154 -109 154 -109 155 -109 b 155 -109 156 -109 157 -108 b 158 -108 159 -107 159 -105 l 161 -95 l 168 -99 l 166 -107 b 165 -110 167 -112 169 -112 b 172 -112 174 -111 174 -109 l 175 -103 l 181 -107 b 183 -107 185 -107 187 -105 b 188 -103 187 -100 185 -99 l 180 -96 l 184 -92 b 186 -91 186 -88 184 -86 b 184 -85 183 -85 181 -85 b 180 -85 179 -85 178 -86 l 172 -91 l 165 -88 l 173 -81 b 174 -80 175 -79 175 -78 b 175 -76 174 -75 173 -74 l 165 -68 l 172 -64 l 178 -70 b 179 -70 180 -71 181 -71 b 182 -71 183 -70 184 -69 b 186 -68 186 -65 184 -63 l 180 -59 l 185 -56 b 187 -55 188 -52 187 -50 z m 127 -56 l 135 -59 l 135 -65 b 133 -66 132 -67 131 -68 l 125 -64 z m 121 -83 l 115 -78 l 121 -72 l 127 -75 b 126 -76 126 -77 126 -78 b 126 -79 126 -79 127 -80 z m 135 -97 l 127 -99 l 125 -91 l 131 -88 b 132 -89 133 -89 135 -90 z m 139 -82 b 137 -82 135 -80 135 -78 b 135 -75 137 -73 139 -73 b 142 -73 143 -75 143 -78 b 143 -80 142 -82 139 -82 z m 143 -59 l 152 -56 l 153 -65 l 148 -68 b 146 -67 145 -66 143 -66 z m 152 -99 l 144 -96 l 144 -90 b 145 -89 146 -88 148 -87 l 153 -91 z m 158 -83 l 152 -80 b 152 -79 152 -78 152 -78 b 152 -77 152 -76 152 -75 l 158 -72 l 164 -78 z"},"O":{"x_min":0,"x_max":362,"ha":362,"o":"m 185 137 b 186 137 187 137 188 136 b 190 136 191 135 193 135 b 194 135 194 135 195 135 b 195 134 196 134 196 135 b 197 135 197 135 197 136 b 198 137 197 138 196 139 l 192 140 b 192 140 191 140 190 140 b 191 141 191 141 192 141 b 193 142 193 142 194 142 b 194 143 195 143 195 144 b 195 144 195 145 194 145 b 194 146 193 147 192 146 b 191 146 191 146 190 145 b 190 145 189 144 188 144 b 188 145 189 147 189 148 b 189 149 189 149 189 150 b 190 150 190 151 189 151 b 189 152 188 152 188 152 b 187 153 186 152 185 151 b 185 150 185 148 184 147 b 184 145 183 143 183 141 b 181 140 179 139 177 138 b 176 137 175 136 174 136 l 174 146 b 174 147 175 147 176 148 b 177 150 179 151 180 152 l 181 153 b 182 154 182 156 181 156 b 180 157 179 157 178 156 b 177 156 176 155 175 154 b 175 153 174 153 174 152 l 174 154 b 174 155 174 156 174 156 b 174 157 173 159 172 159 b 170 158 169 158 169 156 l 169 152 b 168 153 167 154 165 156 b 164 157 163 157 162 156 b 161 156 161 154 162 153 l 165 151 b 166 149 168 148 169 146 l 169 136 l 167 137 b 165 138 164 139 161 141 b 160 142 160 143 160 144 b 159 146 159 148 157 152 b 156 152 156 153 155 152 b 154 152 153 151 154 150 b 154 149 154 147 155 146 b 155 145 155 145 155 144 b 155 144 154 145 152 146 b 151 146 151 146 149 145 b 148 144 148 143 149 142 b 150 142 150 142 151 142 b 151 141 152 141 153 140 b 152 140 150 139 149 139 b 148 139 148 139 146 138 b 146 137 146 137 146 136 b 146 135 147 134 148 134 b 150 135 151 135 152 135 b 154 136 156 137 158 137 b 160 136 162 135 164 134 b 165 133 166 133 167 132 b 167 132 166 131 165 131 b 163 130 161 129 158 127 l 156 128 b 154 128 149 129 147 129 b 146 129 146 129 146 128 b 146 127 146 126 147 125 b 148 125 150 125 151 124 b 152 124 152 124 153 124 b 152 124 152 123 149 122 b 149 121 149 121 149 119 b 149 118 151 117 152 118 b 154 119 154 120 155 120 b 155 119 154 117 154 116 b 154 115 154 115 155 112 b 156 111 158 112 158 113 l 159 117 b 159 119 160 121 161 123 b 162 124 164 125 166 126 b 167 127 168 128 169 128 l 169 118 b 169 118 164 112 163 112 l 162 111 b 161 110 161 108 162 108 b 163 107 164 107 165 108 b 166 109 167 109 168 110 b 168 111 169 111 169 112 l 169 110 b 169 109 169 108 169 108 b 169 107 170 106 172 106 b 173 106 174 107 174 108 l 174 112 l 178 108 b 179 107 180 107 181 108 b 182 109 182 110 181 111 l 174 118 l 174 128 b 174 128 175 128 176 127 b 178 126 180 125 183 123 b 183 122 183 121 183 120 b 184 118 184 116 185 115 b 185 114 185 114 186 112 b 187 112 187 112 188 112 b 189 112 190 113 189 114 l 188 118 b 188 119 188 119 188 120 b 189 120 189 119 194 119 b 195 120 195 121 194 122 b 192 123 191 123 190 124 b 192 124 193 125 197 126 b 197 127 198 128 197 128 b 197 129 196 130 195 130 b 194 129 192 129 191 129 b 189 128 187 128 185 127 b 183 128 181 129 179 130 b 178 131 177 131 176 132 b 177 132 177 133 178 133 b 180 134 182 135 185 137 z m -2 559 b -2 561 -3 563 -5 564 l -11 566 l -11 572 l -3 570 b -3 570 -2 569 -2 569 b -1 569 -1 570 0 570 b 1 570 1 571 2 572 l 4 581 l 9 578 l 8 571 b 7 569 8 567 10 566 b 13 566 14 567 15 569 l 15 574 l 20 571 b 21 571 21 571 22 571 b 23 571 24 571 25 573 b 26 574 26 577 24 577 l 19 580 l 23 583 b 24 585 24 587 23 588 b 22 590 19 590 18 589 l 13 584 l 7 587 l 14 593 b 15 594 15 595 15 596 b 15 597 15 598 14 598 l 7 604 l 13 607 l 18 602 b 19 602 20 601 20 601 b 21 601 22 602 23 603 b 25 604 24 606 23 608 l 19 611 l 24 614 b 26 615 26 617 25 619 b 24 620 22 621 20 620 l 16 617 l 15 622 b 14 624 12 625 10 625 b 8 624 7 622 8 620 l 9 613 l 4 610 l 2 619 b 2 620 1 621 0 621 b -1 622 -2 622 -3 622 l -11 619 l -11 625 l -4 627 b -2 628 -1 630 -2 632 b -3 634 -5 635 -7 634 l -11 633 l -11 638 b -11 640 -13 642 -15 642 b -17 642 -18 640 -18 638 l -18 633 l -23 634 b -25 635 -27 634 -28 632 b -28 630 -27 628 -25 627 l -18 625 l -18 619 l -27 622 b -28 622 -29 622 -30 621 b -31 621 -31 620 -31 619 l -33 610 l -39 614 l -37 621 b -37 622 -38 624 -40 625 b -42 625 -44 624 -44 622 l -45 617 l -50 620 b -52 621 -54 620 -55 619 b -56 617 -55 615 -54 614 l -49 611 l -52 608 b -54 606 -54 604 -53 603 b -52 602 -51 602 -50 602 b -49 602 -48 602 -48 603 l -42 607 l -37 604 l -43 598 b -44 598 -45 597 -45 596 b -45 595 -44 594 -43 593 l -37 587 l -42 584 l -48 589 b -49 590 -51 590 -53 589 b -54 587 -54 585 -52 584 l -49 580 l -53 578 b -55 577 -56 574 -55 573 b -54 571 -53 571 -52 571 b -51 571 -50 571 -50 571 l -45 574 l -44 569 b -44 568 -42 566 -40 566 b -38 567 -37 569 -37 571 l -39 578 l -33 581 l -31 572 b -31 571 -31 570 -30 570 b -29 570 -28 569 -27 570 l -18 572 l -18 566 l -25 564 b -27 563 -28 561 -28 559 b -27 558 -26 557 -23 557 l -18 558 l -18 553 b -18 551 -17 549 -15 549 b -13 549 -11 551 -11 553 l -11 558 l -7 557 b -4 557 -3 558 -2 559 z m -4 578 l -11 580 l -11 585 b -10 586 -9 587 -8 587 l -3 585 z m 1 601 l 6 596 l 1 591 l -4 594 b -4 594 -4 595 -4 596 b -4 596 -4 597 -4 598 z m -11 611 l -4 614 l -3 607 l -8 604 b -9 605 -10 605 -11 606 z m -25 614 l -19 612 l -19 606 b -20 605 -21 605 -22 604 l -27 607 z m -30 591 l -36 596 l -30 600 l -26 598 b -26 597 -26 596 -26 596 b -26 595 -26 594 -26 594 z m -18 580 l -25 578 l -27 585 l -22 587 b -21 586 -20 586 -18 585 z m -15 592 b -17 592 -18 594 -18 596 b -18 598 -17 599 -15 599 b -13 599 -11 598 -11 596 b -11 594 -13 592 -15 592 z m 226 589 b 213 603 189 611 165 611 b 140 611 115 603 99 584 b 81 563 -4 460 -4 250 b -4 41 70 -44 150 -44 b 244 -44 294 117 294 280 b 294 444 275 537 226 589 z m 121 -12 b 121 -13 120 -13 119 -13 b 119 -13 118 -13 118 -12 b 61 41 46 151 51 255 b 44 257 40 262 40 269 b 40 277 45 283 52 284 b 59 366 94 554 168 585 b 169 586 171 585 171 584 b 172 583 171 581 170 581 b 99 549 65 364 57 284 b 64 282 70 277 70 269 b 70 261 63 255 55 254 b 48 115 83 27 121 -8 b 122 -9 122 -11 121 -12 z m 164 -15 b 131 -15 110 85 110 245 b 110 476 175 553 199 553 b 222 553 254 491 254 288 b 254 87 193 -15 164 -15 z"},"(":{"x_min":0,"x_max":190,"ha":190,"o":"m -21 540 l -11 543 l -11 536 l -19 533 b -22 532 -23 530 -22 527 b -22 526 -20 524 -18 524 b -18 524 -17 525 -17 525 l -11 526 l -11 520 b -11 518 -9 516 -7 516 b -5 516 -3 518 -3 520 l -3 526 l 3 525 b 3 524 4 524 4 524 b 6 524 7 525 8 527 b 9 530 7 532 5 533 l -3 535 l -3 543 l 7 540 b 7 540 8 539 8 539 b 9 539 10 540 10 540 b 12 541 12 542 13 543 l 15 553 l 21 549 l 19 541 b 19 539 20 536 24 536 b 26 536 27 537 28 539 l 29 545 l 34 542 b 35 541 36 541 37 541 b 38 541 39 542 40 543 b 42 545 41 548 39 549 l 33 552 l 38 556 b 39 558 39 560 38 562 b 36 564 34 564 32 562 l 26 557 l 19 560 l 27 567 b 28 568 28 569 28 571 b 28 572 28 573 27 574 l 19 581 l 26 584 l 32 579 b 33 578 34 577 35 577 b 36 577 37 578 38 579 b 40 581 40 583 38 585 l 33 589 l 39 592 b 41 593 42 596 41 598 b 39 600 37 601 35 599 l 29 596 l 28 602 b 28 604 25 606 23 605 b 21 605 19 602 20 600 l 21 592 l 15 588 l 13 598 b 13 599 12 600 11 601 b 10 602 8 602 7 601 l -3 598 l -3 606 l 5 608 b 8 609 9 611 8 614 b 7 616 5 617 3 616 l -3 615 l -3 621 b -3 624 -5 625 -7 625 b -9 625 -11 624 -11 621 l -11 615 l -17 617 b -19 617 -21 616 -22 614 b -23 612 -22 609 -19 608 l -11 606 l -11 598 l -21 601 b -22 602 -24 602 -25 601 b -26 601 -27 599 -27 598 l -29 588 l -35 592 l -34 600 b -33 602 -35 605 -37 605 b -39 606 -42 604 -42 602 l -43 596 l -49 600 b -51 601 -53 600 -55 598 b -56 596 -55 593 -53 592 l -47 589 l -52 585 b -53 583 -54 581 -52 579 b -51 578 -50 578 -49 578 b -48 578 -47 578 -46 579 l -40 584 l -33 581 l -41 574 b -42 573 -42 572 -42 571 b -42 569 -42 568 -41 568 l -33 561 l -40 557 l -46 563 b -48 564 -50 564 -52 562 b -54 561 -53 558 -52 556 l -47 552 l -53 549 b -55 548 -56 545 -55 543 b -54 542 -52 541 -51 541 b -50 541 -49 541 -49 542 l -43 545 l -42 539 b -42 537 -40 536 -37 536 b -35 536 -33 539 -34 541 l -35 549 l -29 553 l -27 543 b -27 542 -26 541 -25 540 b -24 540 -22 539 -21 540 z m 5 549 l -3 552 l -3 558 b -1 559 0 560 1 561 l 7 557 z m 11 576 l 18 571 l 11 565 l 6 568 b 6 569 6 570 6 571 b 6 571 6 572 6 573 z m -3 589 l 5 592 l 7 584 l 1 580 b 0 581 -1 582 -3 583 z m -7 575 b -5 575 -3 573 -3 571 b -3 568 -5 566 -7 566 b -9 566 -11 568 -11 571 b -11 573 -9 575 -7 575 z m -11 552 l -19 549 l -21 557 l -16 561 b -14 560 -13 559 -11 558 z m -19 592 l -11 589 l -11 583 b -13 582 -14 581 -16 580 l -21 584 z m -32 571 l -25 576 l -20 573 b -20 572 -20 571 -20 571 b -20 570 -20 569 -20 568 l -25 565 z m 36 -15 b 35 -14 33 -13 32 -14 l 28 -16 l 28 -12 b 27 -11 26 -10 24 -10 b 23 -11 22 -12 22 -14 l 23 -19 l 19 -21 l 18 -15 b 18 -14 17 -13 16 -13 b 16 -13 15 -13 14 -13 l 8 -15 l 8 -10 l 13 -8 b 14 -8 15 -6 15 -5 b 14 -3 13 -3 11 -3 l 8 -4 l 8 0 b 8 1 7 3 5 3 b 4 3 2 1 2 0 l 2 -4 l -1 -3 b -3 -3 -4 -3 -5 -5 b -5 -6 -4 -8 -3 -8 l 2 -10 l 2 -15 l -4 -13 b -5 -13 -6 -13 -6 -13 b -7 -13 -8 -14 -8 -15 l -9 -21 l -13 -19 l -12 -14 b -12 -12 -13 -11 -14 -10 b -16 -10 -17 -11 -18 -12 l -18 -16 l -22 -14 b -23 -13 -25 -14 -26 -15 b -26 -16 -26 -18 -25 -19 l -21 -21 l -24 -23 b -25 -24 -25 -26 -24 -27 b -24 -28 -23 -28 -22 -28 b -21 -28 -21 -28 -20 -27 l -16 -24 l -12 -26 l -17 -31 b -17 -31 -18 -32 -18 -33 b -18 -33 -17 -34 -17 -35 l -12 -39 l -16 -42 l -20 -38 b -21 -37 -23 -37 -24 -38 b -25 -39 -25 -41 -24 -42 l -21 -44 l -25 -47 b -26 -47 -26 -49 -26 -50 b -25 -51 -24 -52 -23 -52 b -23 -52 -22 -52 -22 -51 l -18 -49 l -18 -53 b -17 -54 -16 -55 -14 -55 b -13 -55 -12 -53 -12 -52 l -13 -46 l -9 -44 l -8 -51 b -8 -51 -7 -52 -6 -52 b -6 -53 -5 -53 -4 -53 l 2 -50 l 2 -55 l -3 -57 b -4 -57 -5 -59 -5 -61 b -4 -62 -3 -62 -1 -62 l 2 -61 l 2 -65 b 2 -67 4 -68 5 -68 b 7 -68 8 -67 8 -65 l 8 -61 l 11 -62 b 12 -62 12 -63 12 -63 b 13 -63 14 -62 15 -61 b 15 -59 14 -58 13 -57 l 8 -55 l 8 -51 l 14 -53 b 15 -53 16 -53 16 -52 b 17 -52 18 -51 18 -51 l 19 -44 l 23 -46 l 22 -52 b 22 -53 23 -55 25 -55 b 26 -55 27 -54 28 -53 l 28 -49 l 32 -51 b 32 -52 33 -52 33 -52 b 34 -52 35 -51 36 -50 b 36 -49 36 -47 35 -47 l 31 -45 l 34 -42 b 35 -41 35 -39 34 -38 b 33 -37 31 -37 30 -38 l 26 -42 l 22 -39 l 27 -35 b 28 -34 28 -33 28 -33 b 28 -32 28 -31 27 -31 l 22 -26 l 26 -24 l 30 -28 b 31 -28 31 -28 32 -28 b 33 -28 34 -28 34 -27 b 35 -26 35 -24 34 -23 l 31 -21 l 35 -19 b 36 -18 37 -16 36 -15 z m -3 -19 l 2 -21 l 2 -25 b 1 -25 0 -26 0 -26 l -4 -24 z m -7 -36 l -11 -33 l -7 -29 l -3 -31 b -3 -32 -3 -32 -3 -34 z m 2 -45 l -3 -46 l -4 -41 l 0 -39 b 0 -40 1 -40 2 -41 z m 5 -35 b 4 -35 2 -34 2 -33 b 2 -31 4 -30 5 -30 b 7 -30 8 -31 8 -33 b 8 -34 7 -35 5 -35 z m 8 -21 l 13 -19 l 14 -24 l 10 -26 b 10 -26 9 -25 8 -25 z m 13 -46 l 8 -45 l 8 -41 b 9 -40 10 -40 10 -39 l 14 -41 z m 17 -36 l 13 -34 b 13 -32 13 -32 13 -31 l 17 -29 l 21 -33 z m 134 481 b 146 540 160 582 160 597 b 161 612 153 624 130 632 b 125 634 121 634 118 634 b 111 634 108 630 104 626 b 93 613 72 568 57 507 b 40 446 30 370 29 293 b 28 216 37 138 53 75 b 67 13 87 -35 97 -52 b 100 -57 104 -58 109 -58 b 120 -58 134 -49 134 -41 b 134 -29 124 14 117 72 b 110 130 106 205 109 278 b 112 351 122 423 134 481 z m 78 312 b 84 310 88 304 88 298 b 88 291 83 285 77 284 b 73 183 78 83 97 24 b 98 22 97 21 95 21 b 95 20 95 20 95 20 b 94 20 92 21 92 22 b 73 82 68 182 72 283 b 64 284 58 290 58 298 b 58 306 65 313 73 313 b 79 414 93 514 113 573 b 114 575 115 576 117 575 b 118 575 119 573 118 572 b 98 512 84 413 78 312 z"},"C":{"x_min":0,"x_max":296,"ha":296,"o":"m 305 205 b 302 205 298 203 296 198 b 260 106 205 -35 152 -35 b 114 -35 107 114 107 210 b 107 356 159 544 209 544 b 235 544 203 488 231 488 b 259 488 282 603 177 603 b 107 603 0 495 0 227 b 0 -41 91 -56 162 -56 b 221 -56 284 102 318 190 b 321 197 313 205 305 205 z m 108 -26 b 107 -27 107 -27 106 -27 b 106 -27 105 -26 104 -25 b 64 46 49 138 51 229 b 44 230 39 236 39 243 b 39 251 45 257 52 258 b 58 360 85 457 118 514 b 141 554 167 575 193 575 b 195 575 196 574 196 573 b 196 571 195 570 193 570 b 169 570 145 550 123 512 b 89 455 63 359 57 257 b 64 256 69 250 69 243 b 69 236 63 230 56 229 b 54 139 69 48 109 -23 b 109 -24 109 -26 108 -26 z m 255 417 b 254 419 251 419 249 418 l 243 415 l 242 421 b 242 423 239 424 237 424 b 235 423 233 421 234 419 l 236 410 l 229 407 l 227 417 b 227 418 226 419 225 420 b 224 420 222 420 221 420 l 211 417 l 211 424 l 219 427 b 222 428 223 430 222 432 b 222 435 219 436 217 435 l 211 433 l 211 440 b 211 442 209 444 207 444 b 205 444 203 442 203 440 l 203 434 l 197 435 b 195 436 193 435 192 433 b 191 430 192 428 195 427 l 203 424 l 203 417 l 193 420 b 192 420 190 420 189 420 b 188 419 187 418 187 417 l 185 407 l 179 411 l 180 419 b 181 421 179 423 177 424 b 175 424 172 423 172 421 l 171 415 l 165 418 b 164 419 163 419 162 419 b 161 419 160 419 159 417 b 158 415 159 412 161 411 l 167 408 l 162 404 b 161 402 160 399 162 398 b 163 397 164 396 165 396 b 166 396 167 397 168 398 l 174 403 l 181 399 l 173 393 b 172 392 172 391 172 389 b 172 388 172 387 173 386 l 181 379 l 174 376 l 168 381 b 166 383 164 383 162 381 b 160 379 161 376 162 375 l 167 371 l 161 368 b 159 367 158 364 160 362 b 160 361 162 360 163 360 b 164 360 165 360 165 360 l 171 364 l 172 358 b 172 356 174 355 177 355 b 179 355 181 357 180 360 l 179 368 l 185 372 l 187 362 b 187 360 188 359 189 359 b 190 358 192 358 193 358 l 203 362 l 203 354 l 195 352 b 192 351 191 348 192 346 b 192 344 194 343 197 343 l 203 345 l 203 339 b 203 336 205 334 207 334 b 209 334 211 336 211 339 l 211 345 l 217 343 b 220 343 221 344 222 346 b 223 348 222 351 219 351 l 211 354 l 211 362 l 221 358 b 223 358 224 358 225 359 b 226 359 226 360 227 361 l 229 372 l 235 368 l 234 360 b 233 357 234 355 237 355 b 237 354 237 354 238 354 b 240 354 241 356 242 358 l 243 363 l 249 360 b 249 360 250 360 251 360 b 252 360 254 360 254 362 b 256 364 255 367 253 368 l 247 371 l 252 375 b 253 376 254 380 252 381 b 250 383 248 383 246 381 l 240 375 l 233 379 l 241 386 b 242 387 242 388 242 389 b 242 390 242 392 241 392 l 233 399 l 240 403 l 246 397 b 247 397 248 396 249 396 b 250 396 251 397 252 398 b 254 399 254 402 252 404 l 248 407 l 253 411 b 255 412 256 414 255 417 z m 195 411 l 203 408 l 203 401 b 201 401 200 400 199 399 l 193 402 z m 189 384 l 182 389 l 189 395 l 194 392 b 194 391 194 390 194 389 b 194 388 194 388 194 387 z m 203 370 l 195 368 l 193 376 l 199 379 b 200 378 201 378 203 377 z m 207 385 b 205 385 203 387 203 389 b 203 391 205 393 207 393 b 209 393 211 391 211 389 b 211 387 209 385 207 385 z m 211 408 l 219 411 l 221 402 l 215 399 b 214 400 213 401 211 401 z m 219 368 l 211 370 l 211 377 b 213 378 214 378 215 379 l 221 376 z m 225 384 l 220 387 b 220 388 220 388 220 389 b 220 390 220 391 220 392 l 225 395 l 232 389 z"},"W":{"x_min":0,"x_max":429,"ha":429,"o":"m 404 585 b 396 585 388 580 386 570 b 361 422 282 57 282 57 b 282 57 269 205 257 341 b 256 353 228 362 203 362 b 181 362 161 355 161 339 b 162 320 163 301 164 282 b 139 162 117 57 117 57 b 117 57 78 493 77 558 b 76 571 52 580 28 580 b 13 580 -2 575 -6 565 b -12 550 -14 115 52 -32 b 58 -40 73 -44 89 -44 b 112 -44 138 -36 141 -26 b 143 -19 157 55 176 151 b 185 78 198 10 217 -32 b 223 -40 238 -44 254 -44 b 277 -44 303 -36 306 -26 b 310 -9 396 428 420 564 b 423 578 414 585 404 585 z m 89 5 b 88 5 87 6 87 7 b 70 63 56 186 46 304 b 39 305 34 311 34 319 b 34 325 38 331 44 333 b 37 422 32 504 31 549 b 31 551 32 552 34 552 b 35 552 36 551 36 549 b 38 505 42 422 49 334 b 57 333 64 327 64 319 b 64 312 58 306 52 304 b 62 187 76 64 92 9 b 92 7 91 6 89 5 z m 255 1 b 254 1 253 2 253 3 b 243 34 234 82 223 150 b 215 150 208 156 208 165 b 208 172 213 178 220 179 b 215 222 209 272 203 329 b 203 331 204 332 206 332 b 207 332 208 331 209 330 b 214 272 220 222 225 179 b 232 178 238 172 238 165 b 238 159 234 154 229 151 b 239 84 248 35 258 4 b 258 3 257 2 255 1 z m 61 648 b 59 649 57 649 56 649 b 52 650 49 651 46 652 b 45 652 44 653 43 653 b 43 653 41 653 41 652 b 40 652 39 651 39 650 b 38 648 40 646 41 646 b 44 645 46 645 48 644 b 49 644 50 643 52 643 b 50 642 49 642 48 641 b 47 640 46 640 45 639 b 44 639 44 638 44 637 b 43 636 43 635 44 634 b 45 633 47 632 49 633 b 50 633 50 634 51 634 b 52 635 54 636 55 637 b 55 634 54 631 53 629 b 53 628 53 627 53 627 b 52 626 52 625 53 624 b 53 623 54 622 55 622 b 57 622 59 623 60 625 b 60 627 61 629 61 631 b 62 634 63 638 64 642 b 67 644 70 645 73 647 b 75 648 78 649 80 651 l 80 633 b 78 632 77 631 76 629 b 74 627 71 625 69 622 b 68 621 68 621 67 620 b 66 619 66 616 67 615 b 68 614 71 614 72 615 b 74 617 75 618 77 620 l 80 623 l 80 619 b 80 618 80 616 80 615 b 80 613 81 611 83 612 b 85 612 87 613 87 615 l 87 623 l 94 615 b 96 614 98 614 100 615 b 101 617 101 619 100 620 b 98 622 96 623 95 625 b 92 627 90 630 87 633 l 87 651 b 88 650 89 649 91 648 b 94 647 97 645 100 643 b 101 642 102 642 102 642 b 103 640 103 639 104 637 b 104 634 105 630 106 627 b 106 626 107 625 107 625 b 107 624 108 623 109 622 b 109 622 110 622 111 622 b 113 623 114 625 114 627 b 113 629 113 631 112 633 b 112 634 112 635 111 637 b 112 636 114 635 115 635 b 116 634 116 634 118 633 b 118 632 119 632 120 633 b 121 633 122 633 123 634 b 124 636 123 638 121 639 b 121 640 120 640 119 640 b 118 641 116 642 115 643 b 118 644 120 644 123 645 b 124 645 124 645 125 646 b 126 646 127 647 127 647 b 128 648 128 649 128 650 b 127 652 125 653 123 653 b 121 652 119 652 117 651 b 113 650 110 649 106 648 b 103 650 100 652 97 653 b 95 655 93 656 91 657 b 92 658 93 658 94 659 b 98 661 101 663 104 665 b 105 665 105 665 106 666 b 108 665 109 665 111 665 b 114 664 117 663 121 662 b 122 662 122 661 123 661 b 124 661 125 661 126 662 b 127 662 127 663 128 664 b 128 666 127 668 125 668 b 123 669 121 669 119 670 b 117 670 116 671 115 671 b 116 672 117 672 118 673 b 119 674 120 674 121 675 b 122 675 123 676 123 677 b 123 678 123 679 123 680 b 122 681 119 682 118 681 b 117 681 116 680 116 680 b 114 679 113 678 111 677 b 112 680 113 683 113 685 b 114 686 114 687 114 687 b 114 688 114 689 114 690 b 113 691 112 692 111 692 b 109 692 107 691 107 689 b 106 687 106 685 105 683 b 104 680 103 676 102 672 b 99 670 96 669 93 667 b 91 666 89 665 87 663 l 87 681 b 88 682 89 683 91 685 b 93 687 95 689 98 692 b 98 692 99 693 100 694 b 101 695 101 697 100 699 b 98 700 96 700 94 699 b 93 697 91 696 90 694 b 89 693 88 692 87 691 l 87 695 b 87 696 87 697 87 699 b 87 701 85 702 83 702 b 81 702 80 701 80 699 l 80 691 b 78 693 76 695 74 697 b 73 698 73 698 72 699 b 71 700 68 700 67 699 b 66 697 66 695 67 694 l 80 681 l 80 663 b 78 664 77 665 76 665 b 73 667 69 669 66 671 b 66 671 65 672 64 672 b 64 674 63 675 63 677 b 62 680 61 684 60 687 b 60 688 60 689 60 689 b 59 690 59 691 58 692 b 57 692 56 692 55 692 b 53 691 52 689 53 687 b 53 685 54 683 54 681 b 55 680 55 679 55 677 b 54 678 53 679 52 679 b 51 680 50 680 49 681 b 48 682 47 682 46 681 b 45 681 44 681 44 680 b 43 678 43 676 45 675 b 46 674 47 674 47 674 b 49 673 50 672 52 671 b 49 670 46 670 44 669 b 43 669 42 669 41 668 b 41 668 40 667 39 667 b 39 666 39 665 39 664 b 40 662 41 661 43 661 b 46 662 48 662 50 663 b 53 664 56 665 61 666 b 64 664 67 662 70 661 b 72 659 74 658 76 657 b 75 656 73 656 72 655 b 69 653 66 651 61 648 z m 243 480 l 239 477 b 237 475 237 472 238 471 b 239 470 240 469 241 469 b 242 469 244 470 244 470 l 251 476 l 257 472 l 249 465 b 248 465 248 463 248 462 b 248 461 248 460 249 459 l 257 452 l 251 448 l 244 454 b 244 455 243 456 241 456 b 240 456 239 455 238 454 b 237 452 237 449 239 448 l 243 444 l 237 441 b 235 440 235 437 236 435 b 237 433 238 433 239 433 b 240 433 241 433 242 433 l 247 436 l 248 431 b 249 429 250 427 252 427 b 256 428 257 430 257 433 l 255 441 l 261 445 l 264 434 b 264 433 265 432 266 432 b 267 431 268 431 269 431 l 279 435 l 279 427 l 271 424 b 269 424 267 421 268 419 b 269 417 270 416 273 416 l 279 418 l 279 411 b 279 409 281 407 283 407 b 286 407 288 409 288 411 l 288 418 l 293 416 b 296 416 298 417 298 419 b 299 421 298 423 296 424 l 287 427 l 287 434 l 297 431 b 298 431 298 431 299 431 b 299 431 300 431 301 432 b 302 432 303 433 303 434 l 305 445 l 312 441 l 310 433 b 309 430 311 428 313 427 b 316 427 318 429 318 431 l 319 436 l 325 433 b 326 433 326 433 327 433 b 328 433 330 433 331 435 b 332 437 331 439 329 441 l 324 444 l 328 448 b 330 449 330 452 328 454 b 327 455 324 455 322 454 l 316 448 l 309 452 l 317 459 b 318 460 319 461 319 462 b 319 463 318 465 317 465 l 309 472 l 316 476 l 322 470 b 323 469 324 469 325 469 b 326 469 328 469 328 470 b 330 472 330 475 328 476 l 324 480 l 329 484 b 331 485 332 487 331 489 b 330 491 329 492 327 492 b 327 492 326 491 325 491 l 320 488 l 318 493 b 318 496 316 497 313 497 b 311 496 309 494 310 492 l 312 483 l 305 480 l 303 490 b 303 491 302 492 301 493 b 300 493 299 493 298 493 l 288 490 l 288 497 l 296 500 b 298 501 299 503 299 505 b 298 507 295 509 293 508 l 288 506 l 288 513 b 288 515 286 517 283 517 b 281 517 279 515 279 513 l 279 506 l 274 508 b 271 508 269 508 268 505 b 267 503 269 501 271 500 l 279 497 l 279 490 l 269 493 b 268 493 267 493 266 493 b 265 492 264 491 264 490 l 261 480 l 255 483 l 257 492 b 257 494 256 496 253 497 b 251 497 249 496 248 494 l 247 488 l 242 491 b 239 492 237 492 236 490 b 235 487 235 485 237 484 z m 296 441 l 288 443 l 288 450 b 289 451 291 451 292 452 l 297 449 z m 302 468 l 308 462 l 302 457 l 296 460 b 296 461 296 461 296 462 b 296 463 296 464 296 465 z m 288 481 l 296 483 l 297 475 l 292 472 b 290 473 289 474 288 474 z m 283 466 b 286 466 288 464 288 462 b 288 460 286 458 283 458 b 281 458 279 460 279 462 b 279 464 281 466 283 466 z m 279 443 l 271 441 l 269 449 l 275 452 b 276 451 277 450 279 450 z m 271 484 l 279 481 l 279 474 b 277 474 276 473 275 472 l 269 475 z m 265 468 l 271 465 b 270 464 270 463 270 462 b 270 461 270 461 271 460 l 265 457 l 259 462 z m 188 -166 b 189 -166 190 -167 191 -167 b 193 -167 194 -168 196 -168 b 197 -169 197 -169 199 -169 b 200 -168 200 -168 200 -167 b 201 -166 200 -165 199 -165 l 195 -164 b 195 -163 194 -163 193 -163 b 194 -163 194 -162 195 -162 b 196 -162 196 -161 198 -160 b 198 -159 198 -158 198 -158 b 197 -157 196 -157 195 -157 b 194 -157 194 -158 193 -158 b 193 -158 192 -159 191 -159 b 191 -158 192 -156 192 -155 b 192 -154 192 -154 192 -153 b 193 -153 193 -152 192 -152 b 192 -151 191 -151 191 -151 b 190 -151 189 -151 188 -152 l 187 -156 b 187 -158 186 -160 186 -162 b 184 -163 182 -164 180 -165 b 179 -166 178 -167 177 -168 l 177 -157 b 177 -157 178 -156 179 -155 l 184 -150 b 185 -149 185 -148 184 -147 b 183 -146 182 -146 181 -147 b 180 -148 179 -149 177 -151 l 177 -149 b 177 -148 177 -148 177 -147 b 177 -146 176 -145 175 -145 b 173 -145 172 -146 172 -147 l 172 -151 b 171 -150 170 -149 169 -148 l 168 -147 b 167 -146 166 -146 165 -147 b 164 -148 164 -149 165 -150 b 166 -151 167 -152 168 -153 b 169 -154 171 -155 172 -157 l 172 -168 b 172 -167 171 -167 170 -166 b 168 -165 167 -164 164 -162 l 163 -160 b 162 -158 162 -156 161 -154 b 161 -153 161 -153 160 -151 b 159 -151 159 -151 158 -151 b 157 -151 156 -152 157 -154 b 157 -155 157 -156 158 -157 b 158 -158 158 -159 158 -159 b 158 -159 157 -159 155 -157 b 154 -157 154 -157 152 -158 b 151 -159 151 -160 152 -161 b 153 -161 153 -161 154 -162 b 154 -162 155 -163 156 -163 b 155 -163 153 -164 152 -164 b 151 -164 151 -165 149 -167 b 149 -168 150 -169 151 -169 l 155 -168 b 157 -167 159 -167 161 -166 b 163 -167 165 -168 167 -169 b 168 -170 169 -171 170 -171 b 170 -172 169 -172 168 -172 b 166 -174 164 -175 161 -176 l 159 -176 b 157 -175 155 -175 153 -174 b 152 -174 152 -174 149 -175 b 149 -176 149 -178 150 -178 b 152 -178 153 -178 154 -179 b 155 -179 155 -179 156 -179 b 155 -180 155 -180 152 -184 b 152 -185 154 -186 155 -185 b 157 -184 157 -184 158 -183 b 158 -185 157 -186 157 -189 b 157 -190 157 -190 158 -192 b 161 -192 163 -184 164 -180 b 165 -179 167 -178 169 -177 b 170 -176 171 -176 172 -175 l 172 -185 b 172 -186 171 -187 170 -187 b 169 -189 168 -190 165 -193 b 164 -193 164 -195 165 -196 b 166 -196 167 -196 168 -196 b 169 -195 170 -194 171 -193 b 171 -192 172 -192 172 -191 l 172 -194 b 172 -194 172 -195 172 -195 l 172 -196 b 172 -197 173 -198 175 -198 b 176 -198 177 -197 177 -196 l 177 -191 b 178 -192 179 -194 180 -195 l 181 -196 b 182 -196 183 -196 184 -196 b 185 -195 185 -193 184 -193 b 183 -192 182 -191 181 -190 l 177 -185 l 177 -175 b 177 -175 178 -176 179 -176 b 181 -177 183 -178 186 -180 b 186 -181 186 -182 186 -183 b 187 -185 187 -187 189 -191 b 190 -192 190 -192 191 -192 b 192 -191 193 -190 192 -189 l 191 -185 b 191 -185 191 -184 191 -183 b 192 -184 192 -184 195 -185 b 195 -186 196 -186 196 -185 b 197 -185 197 -185 198 -184 b 198 -183 198 -182 196 -181 b 195 -180 194 -180 193 -179 b 195 -179 196 -179 200 -177 b 200 -176 201 -176 200 -175 b 200 -174 199 -173 198 -174 l 194 -175 b 192 -175 190 -176 188 -176 b 186 -175 184 -174 182 -173 b 181 -173 180 -172 179 -171 b 180 -171 180 -170 181 -170 b 183 -169 185 -168 188 -166 z"},"A":{"x_min":0,"x_max":273,"ha":273,"o":"m 161 582 b 148 595 129 602 112 602 b 97 602 84 598 74 588 b 21 535 -7 146 -7 -51 b -7 -56 -1 -58 7 -58 b 20 -58 36 -53 36 -46 b 36 -12 37 22 39 56 l 57 56 b 82 56 111 58 135 66 b 137 23 137 -6 137 -12 b 137 -27 158 -37 179 -37 b 198 -37 217 -28 217 -4 b 217 45 236 507 161 582 z m 39 77 b 51 319 90 540 105 540 b 117 540 129 251 135 91 b 110 85 73 78 39 77 z m 181 3 b 180 3 179 4 179 5 b 179 8 176 141 168 276 b 160 277 154 283 154 291 b 154 298 159 304 166 305 b 159 421 148 531 133 550 b 132 551 132 553 133 554 b 134 555 136 554 137 553 b 153 533 164 422 171 305 b 178 304 184 298 184 291 b 184 284 179 279 173 277 b 181 146 184 16 184 5 b 184 4 183 3 181 3 z m -8 408 b -9 409 -10 410 -11 409 l -15 407 l -15 410 b -16 412 -17 413 -18 412 b -20 412 -21 411 -20 409 l -19 404 l -23 402 l -24 408 b -25 409 -25 409 -26 410 b -26 410 -27 410 -28 410 l -34 408 l -34 412 l -29 414 b -28 414 -27 416 -27 417 b -28 419 -29 419 -30 419 l -34 418 l -34 422 b -34 423 -35 424 -36 424 b -38 424 -39 423 -39 422 l -39 418 l -42 419 b -43 419 -45 419 -45 417 b -46 416 -45 415 -44 414 l -39 413 l -39 408 l -45 410 b -45 410 -46 410 -47 410 b -47 409 -48 409 -48 408 l -49 402 l -53 404 l -52 409 b -52 411 -53 412 -54 412 b -55 413 -57 412 -57 410 l -58 407 l -61 409 b -62 410 -64 409 -65 408 b -65 407 -65 405 -64 404 l -60 402 l -63 400 b -64 399 -64 398 -63 397 b -63 396 -62 396 -61 396 b -61 396 -60 396 -59 396 l -56 400 l -52 398 l -56 394 b -57 393 -57 392 -57 392 b -57 391 -57 390 -56 390 l -52 386 l -56 383 l -59 387 b -60 388 -62 388 -63 387 b -64 386 -64 384 -63 383 l -60 381 l -64 379 b -65 378 -65 377 -65 375 b -64 374 -63 374 -61 374 l -58 376 l -57 373 b -57 372 -56 371 -54 371 b -53 371 -52 373 -52 374 l -53 379 l -49 381 l -48 375 b -48 374 -47 374 -47 373 b -46 373 -45 373 -45 373 l -39 375 l -39 371 l -44 369 b -45 369 -46 367 -45 366 b -45 365 -44 364 -42 364 l -39 365 l -39 361 b -39 360 -38 359 -36 359 b -35 359 -34 360 -34 361 l -34 365 l -30 364 b -29 364 -28 365 -27 366 b -27 367 -28 369 -29 369 l -34 371 l -34 375 l -28 373 b -27 373 -26 373 -26 373 b -25 374 -25 374 -25 375 l -23 381 l -19 379 l -20 374 b -21 373 -20 371 -18 371 b -17 371 -16 372 -15 373 l -15 376 l -11 374 b -9 374 -9 374 -8 375 b -7 376 -8 378 -9 379 l -12 381 l -10 383 b -9 384 -9 385 -9 387 b -10 388 -12 388 -13 387 l -17 383 l -21 386 l -16 390 b -15 390 -15 391 -15 392 b -15 392 -15 393 -16 393 l -21 398 l -17 400 l -13 396 b -13 396 -12 396 -11 396 b -11 396 -10 396 -9 396 b -8 398 -8 399 -10 400 l -12 402 l -9 404 b -8 405 -7 407 -8 408 z m -44 404 l -39 403 l -39 399 b -40 398 -41 398 -41 397 l -45 399 z m -47 388 l -51 392 l -47 395 l -44 393 b -44 391 -44 391 -44 390 z m -39 380 l -44 379 l -45 384 l -41 386 b -41 385 -40 385 -39 384 z m -36 389 b -38 389 -39 390 -39 392 b -39 393 -38 394 -36 394 b -35 394 -34 393 -34 392 b -34 390 -35 389 -36 389 z m -34 403 l -29 404 l -28 399 l -31 397 b -32 398 -33 398 -34 399 z m -29 379 l -34 380 l -34 384 b -33 385 -32 385 -31 386 l -28 384 z m -25 388 l -29 390 b -29 391 -29 391 -29 393 l -25 395 l -22 392 z"},"f":{"x_min":0,"x_max":142,"ha":142,"o":"m 138 603 b 58 603 22 500 7 368 b -21 368 -42 369 -49 369 b -65 369 -76 338 -49 337 l -38 337 b -27 337 -13 337 4 338 b 0 289 -1 236 -1 184 b -1 66 6 10 25 -109 b 28 -127 48 -136 67 -136 b 84 -136 99 -129 98 -117 b 98 -110 79 22 79 137 b 79 220 82 288 88 343 b 114 346 141 349 168 352 b 184 354 186 378 171 378 b 170 378 170 378 169 378 b 143 374 116 372 91 371 b 108 516 140 566 157 566 b 176 566 179 534 179 508 b 179 502 184 500 190 500 b 201 500 216 508 216 519 b 216 577 191 603 138 603 z m 135 579 b 76 564 44 420 45 203 b 52 201 57 195 57 188 b 57 181 52 175 45 174 b 47 93 52 3 63 -94 b 63 -95 62 -97 60 -97 b 59 -97 58 -96 58 -94 b 47 7 41 96 40 174 b 33 175 27 181 27 188 b 27 195 32 201 39 203 b 38 447 80 571 134 584 b 135 584 136 583 137 582 b 137 580 136 579 135 579 z"},"Q":{"x_min":0,"x_max":344,"ha":344,"o":"m 212 285 l 215 287 b 216 288 216 290 215 291 b 214 292 212 293 211 292 l 207 288 l 202 290 l 208 295 b 208 295 209 296 209 297 b 209 298 208 299 208 299 l 202 304 l 207 307 l 211 303 b 212 302 212 302 213 302 b 214 302 215 302 215 303 b 216 304 216 306 215 307 l 212 310 l 216 312 b 217 313 218 314 217 316 b 216 317 214 318 213 317 l 209 315 l 208 319 b 208 320 206 321 205 321 b 203 321 202 319 203 317 l 204 312 l 199 309 l 198 316 b 198 317 197 318 196 318 b 196 318 195 319 194 318 l 187 316 l 187 321 l 193 323 b 194 324 195 325 195 327 b 194 328 193 329 191 329 l 187 328 l 187 332 b 187 334 186 335 184 335 b 183 335 181 334 181 332 l 181 328 l 178 329 b 176 329 174 328 174 327 b 173 325 174 324 176 323 l 181 321 l 181 316 l 174 318 b 174 319 173 319 172 318 b 171 318 171 317 171 316 l 169 309 l 165 312 l 166 318 b 166 319 165 321 164 321 b 162 321 160 320 160 319 l 159 315 l 156 317 b 154 318 152 317 151 316 b 151 315 151 313 153 312 l 156 310 l 153 307 b 152 306 152 304 153 303 b 154 302 155 302 155 302 b 156 302 157 302 157 303 l 162 307 l 166 304 l 161 299 b 160 299 160 298 160 297 b 160 296 160 296 161 295 l 166 290 l 162 288 l 157 292 b 156 293 154 293 153 291 b 152 290 152 288 154 287 l 156 285 l 153 282 b 151 282 151 280 152 278 b 152 277 153 277 154 277 b 155 277 155 277 156 277 l 159 279 l 160 276 b 160 274 162 273 164 273 b 165 274 166 275 166 277 l 165 283 l 169 285 l 171 278 b 171 277 171 277 172 276 b 173 276 174 276 174 276 l 181 278 l 181 273 l 176 271 b 174 271 173 269 174 267 b 174 266 175 265 177 265 b 177 265 177 265 177 266 l 181 267 l 181 262 b 181 261 183 259 184 259 b 186 259 187 261 187 262 l 187 267 l 191 265 b 193 265 194 266 195 267 b 195 269 194 271 193 271 l 187 273 l 187 278 l 194 276 b 195 276 196 276 196 276 b 197 276 198 277 198 278 l 199 285 l 204 282 l 203 277 b 202 275 203 274 205 273 b 207 273 208 274 208 275 l 209 279 l 213 277 b 215 277 216 277 217 278 b 218 280 217 281 216 282 z m 176 312 l 181 310 l 181 306 b 180 305 179 305 178 304 l 174 306 z m 172 293 l 167 297 l 172 301 l 175 299 b 175 298 175 298 175 297 b 175 297 175 296 175 295 z m 181 284 l 176 282 l 175 288 l 178 290 b 179 290 180 289 181 289 z m 184 294 b 183 294 181 295 181 297 b 181 299 183 300 184 300 b 186 300 187 299 187 297 b 187 295 186 294 184 294 z m 187 310 l 193 312 l 194 306 l 190 304 b 189 305 188 305 187 305 z m 193 282 l 187 284 l 187 289 b 188 289 189 290 190 290 l 194 288 z m 197 293 l 193 296 b 193 298 193 298 193 299 l 197 301 l 201 297 z m 227 -2 b 272 56 296 167 296 279 b 296 443 277 537 228 589 b 215 603 191 611 168 611 b 143 611 118 603 101 584 b 82 562 -2 459 -2 250 b -2 41 72 -44 153 -44 b 172 -44 189 -37 204 -25 b 215 -39 227 -57 244 -81 b 247 -86 252 -88 257 -88 b 269 -88 282 -76 272 -62 b 264 -50 250 -31 227 -2 z m 114 6 b 114 6 113 5 113 5 b 112 5 111 6 111 6 b 71 48 58 157 59 250 b 52 252 46 257 46 265 b 46 272 52 279 59 279 b 59 282 59 285 60 288 b 64 389 86 513 133 555 b 134 556 136 556 137 555 b 138 554 138 552 137 551 b 99 517 70 414 65 288 b 65 285 65 282 64 279 b 71 278 76 272 76 265 b 76 258 71 252 64 250 b 63 136 82 44 114 10 b 115 9 115 7 114 6 z m 190 42 b 187 45 184 46 181 46 b 168 46 154 30 166 17 b 166 17 172 14 187 -4 b 179 -11 172 -15 167 -15 b 134 -15 113 85 113 244 b 113 475 178 553 201 553 b 224 553 256 490 256 288 b 256 158 231 71 206 24 b 201 29 196 36 190 42 z"},"w":{"x_min":0,"x_max":337,"ha":337,"o":"m 65 558 b 64 557 64 557 63 557 b 61 557 60 558 58 558 b 55 559 51 560 48 561 b 47 561 47 561 46 561 b 45 562 44 562 43 561 b 42 561 41 560 41 559 b 41 557 42 555 44 554 b 46 554 48 553 50 553 b 51 552 53 552 54 552 b 53 551 52 550 50 550 b 50 549 49 549 48 548 b 47 547 46 547 46 546 b 46 545 46 544 46 543 b 47 541 49 541 51 542 b 52 542 53 542 53 543 b 55 543 56 544 58 545 b 57 543 56 540 55 537 b 55 537 55 536 55 535 b 55 534 55 533 55 532 b 56 532 57 531 57 531 b 59 530 61 531 62 533 b 63 535 63 537 64 539 b 65 543 65 546 67 550 b 70 552 73 554 76 556 b 78 557 80 558 82 559 l 82 542 b 81 540 79 539 78 538 b 76 536 73 533 71 531 b 70 530 70 530 69 529 b 68 528 68 525 69 524 b 71 522 73 523 74 524 b 76 526 78 527 79 528 l 82 531 l 82 527 b 82 526 82 525 82 524 b 82 522 84 520 86 520 b 88 520 89 522 89 524 l 89 531 l 97 524 b 98 522 100 522 102 524 b 103 525 103 528 102 529 b 100 531 99 532 97 534 b 95 536 92 539 89 542 l 89 559 b 90 558 92 558 93 557 b 96 555 99 553 103 551 b 103 551 104 551 105 550 b 105 549 105 547 106 546 b 107 542 108 539 108 535 b 109 535 109 534 109 533 b 109 532 110 531 111 531 b 112 531 113 530 114 531 b 116 531 117 533 116 535 b 116 537 115 539 115 541 b 114 543 114 544 114 545 b 115 545 116 544 117 543 b 118 543 119 542 120 542 b 121 541 122 541 123 541 b 124 541 124 542 125 543 b 126 545 125 547 124 548 b 123 548 122 549 122 549 b 120 550 119 551 117 552 b 120 552 122 553 125 554 b 126 554 127 554 127 554 b 128 555 129 555 130 556 b 130 557 130 558 130 559 b 129 561 127 562 125 561 b 123 561 121 560 119 560 b 116 559 112 558 108 557 b 105 559 103 560 99 562 b 98 563 95 564 93 566 b 94 566 96 567 97 568 b 101 570 103 571 106 573 b 107 574 108 574 108 574 b 110 574 111 574 113 573 b 116 572 120 571 123 570 b 124 570 125 570 125 570 b 126 570 127 570 128 570 b 129 571 130 572 130 572 b 130 574 129 576 127 577 b 125 577 123 578 121 579 b 120 579 118 579 117 580 b 118 580 119 581 121 582 b 122 582 122 583 124 583 b 124 584 125 585 125 585 b 125 586 125 588 125 588 b 124 590 122 591 120 590 b 119 589 119 589 118 589 b 116 588 115 587 114 586 b 114 589 115 591 116 594 b 116 595 116 595 116 596 b 116 597 116 598 116 599 b 115 600 115 600 114 601 b 112 601 110 600 109 598 b 109 596 108 594 107 592 b 107 588 106 585 105 581 b 101 579 98 578 95 576 b 93 575 91 573 89 572 l 89 590 b 90 591 92 592 93 593 b 95 596 98 598 100 601 b 101 601 101 602 102 602 b 103 604 103 606 102 607 b 100 609 99 609 97 607 b 96 606 94 604 92 603 b 91 602 90 601 89 600 l 89 604 b 89 605 89 606 89 607 b 89 609 88 611 86 611 b 84 611 82 609 82 607 l 82 600 b 80 602 78 604 76 606 b 76 606 75 607 74 607 b 73 609 71 609 69 607 b 68 606 68 604 69 602 l 82 590 l 82 572 b 81 573 79 573 78 574 b 75 576 72 578 67 581 b 66 582 66 584 65 586 b 64 589 64 592 63 596 b 62 596 62 597 62 598 b 62 599 61 600 60 600 b 59 601 58 601 57 601 b 56 600 54 598 55 596 b 55 594 56 592 57 590 b 57 589 57 587 58 586 b 56 587 55 587 54 588 b 53 589 52 589 51 590 b 50 590 49 590 48 590 b 48 590 47 589 46 588 b 45 587 46 584 48 583 b 51 581 52 580 54 580 b 51 579 49 578 46 578 b 45 577 45 577 44 577 b 43 577 42 576 42 575 b 41 574 41 573 41 572 b 42 570 44 569 46 570 b 48 570 50 571 52 571 b 55 572 59 573 63 574 b 66 573 69 571 72 569 b 74 568 76 567 78 566 b 77 565 77 564 74 563 b 72 562 68 560 65 558 z m 235 310 l 232 311 b 230 311 228 312 225 313 b 224 313 224 313 223 313 b 223 312 222 312 222 311 b 222 310 223 309 224 309 l 228 308 b 228 307 229 307 230 307 b 229 307 228 306 228 306 b 227 306 227 305 225 304 b 225 303 225 302 225 302 b 226 301 227 301 228 301 b 230 302 231 303 232 303 b 231 302 230 299 230 297 b 231 295 231 295 232 295 b 233 295 234 295 234 296 b 235 298 235 299 235 300 b 236 302 236 304 237 306 b 239 307 241 308 242 309 b 244 310 245 311 246 311 l 246 301 l 244 299 b 243 298 241 296 239 294 b 238 293 238 292 239 291 b 240 290 241 290 242 291 b 243 292 244 293 244 294 b 245 294 246 295 246 295 l 246 293 b 246 292 246 292 246 291 b 246 290 247 289 248 289 b 249 289 250 290 250 291 l 250 295 b 251 294 253 293 254 292 l 255 291 b 255 290 257 290 258 291 b 258 292 259 293 258 294 b 257 295 256 296 255 297 l 250 301 l 250 311 l 252 310 b 254 309 256 308 259 306 b 259 305 262 299 262 298 b 262 297 262 297 263 295 b 263 295 264 295 265 295 b 266 295 266 296 266 297 b 266 298 265 303 264 303 b 265 303 266 303 266 302 b 267 302 268 302 268 301 b 269 301 269 301 271 302 b 272 303 271 304 270 305 b 268 306 267 307 267 307 b 268 307 272 308 274 311 b 274 312 273 313 271 313 l 268 312 b 266 311 264 311 261 310 b 260 311 258 312 256 313 b 255 314 254 314 252 315 b 253 316 254 316 255 316 b 257 317 258 319 261 320 b 262 320 263 320 264 320 b 266 319 268 318 271 318 b 272 317 273 318 273 318 b 273 318 274 319 274 319 b 274 320 274 321 273 322 l 269 323 b 268 323 267 323 267 323 b 267 324 268 324 270 325 b 271 326 271 326 271 328 b 270 329 269 330 268 329 b 266 328 265 328 264 327 b 265 329 265 330 266 333 b 266 333 266 334 265 336 b 263 336 262 335 262 334 l 261 330 b 260 328 260 326 259 325 l 259 324 b 257 323 256 322 254 321 b 253 320 252 320 250 319 l 250 329 l 258 336 b 258 337 259 339 258 340 b 257 340 255 340 255 340 l 252 337 b 251 336 251 336 250 335 l 250 337 b 250 338 250 339 250 339 b 250 341 249 342 248 342 b 247 342 246 341 246 339 l 246 335 b 245 336 244 337 243 339 l 242 340 b 241 340 239 340 239 340 b 238 339 238 337 239 336 b 240 336 240 335 241 334 l 246 329 l 246 319 b 245 319 245 320 244 320 b 242 321 240 322 237 324 b 237 325 237 326 236 327 b 236 329 235 331 232 336 b 231 335 230 334 230 333 l 231 329 b 231 328 232 328 232 327 b 231 327 231 328 230 328 b 229 329 229 329 227 329 b 226 329 226 329 225 328 b 225 327 225 326 227 325 b 228 324 229 324 230 323 b 228 323 227 323 223 321 b 222 320 222 320 222 319 b 223 318 224 317 225 318 b 226 318 227 318 229 319 b 231 319 233 320 235 320 b 237 319 239 318 240 317 b 241 317 243 316 244 315 b 243 315 242 314 242 314 b 240 313 238 312 235 310 z m 378 257 b 377 257 374 256 372 256 b 349 250 289 237 266 235 b 254 235 249 230 250 224 b 252 210 258 186 258 135 b 258 27 216 -18 202 -18 b 188 -18 208 164 196 174 b 189 181 175 184 164 184 b 156 184 149 183 146 179 b 137 171 76 58 71 58 b 66 58 98 264 98 285 b 98 300 60 311 38 311 b 31 311 25 310 23 308 b 12 297 -13 154 -13 70 b -13 42 3 0 31 0 b 82 0 118 95 123 95 b 129 95 111 -51 186 -51 b 226 -51 289 7 289 138 b 289 179 287 201 285 213 b 299 215 353 224 373 230 b 390 235 393 257 378 257 z m 52 161 b 52 153 46 146 38 146 b 35 95 35 50 39 45 b 40 44 40 42 39 41 b 39 41 38 41 37 41 b 37 41 36 41 35 42 b 30 49 29 95 33 147 b 27 149 22 154 22 161 b 22 168 28 174 35 176 b 38 215 43 254 50 279 b 50 281 51 281 53 281 b 54 281 55 279 55 278 b 48 252 43 214 40 175 b 47 174 52 168 52 161 z m 163 65 b 163 39 165 11 171 -19 b 171 -20 170 -22 169 -22 b 167 -22 166 -21 166 -20 b 160 10 158 39 158 64 b 150 66 145 72 145 79 b 145 87 151 93 158 94 b 160 131 166 157 166 157 b 166 159 168 160 169 159 b 171 159 171 157 171 156 b 171 156 165 131 163 93 b 170 92 175 86 175 79 b 175 72 170 66 163 65 z m 336 -122 b 335 -121 333 -121 332 -121 l 329 -123 l 328 -120 b 328 -119 327 -118 325 -118 b 324 -118 323 -120 323 -121 l 324 -126 l 320 -128 l 319 -122 b 317 -120 317 -120 316 -120 l 310 -122 l 310 -118 l 315 -116 b 316 -116 317 -114 316 -113 b 316 -112 315 -111 313 -111 l 310 -112 l 310 -109 b 310 -107 309 -106 307 -106 b 306 -106 305 -107 305 -109 l 305 -112 l 302 -111 b 300 -111 299 -112 298 -113 b 298 -114 299 -116 300 -116 l 305 -118 l 305 -122 l 299 -120 b 298 -120 297 -120 296 -122 l 294 -128 l 290 -126 l 291 -121 b 292 -120 291 -118 289 -118 b 288 -118 287 -119 286 -120 l 286 -123 l 282 -121 b 281 -121 280 -121 279 -122 b 278 -124 279 -125 280 -126 l 283 -128 l 281 -130 b 280 -131 280 -133 280 -134 b 281 -134 282 -134 282 -134 b 283 -134 284 -134 284 -134 l 288 -130 l 292 -133 l 287 -137 b 287 -137 286 -138 286 -139 b 286 -139 287 -140 287 -141 l 292 -145 l 288 -147 l 284 -143 b 283 -142 281 -143 281 -144 b 280 -145 280 -146 281 -147 l 283 -150 l 280 -151 b 279 -152 278 -154 279 -155 b 279 -156 280 -156 282 -156 l 286 -154 l 286 -157 b 287 -159 288 -159 289 -159 b 291 -159 292 -158 291 -156 l 290 -151 l 294 -149 l 296 -155 b 296 -156 296 -157 297 -157 b 297 -157 298 -157 299 -157 l 305 -155 l 305 -160 l 300 -161 b 299 -162 298 -163 298 -164 b 299 -166 300 -166 301 -166 l 305 -165 l 305 -169 b 305 -170 306 -171 307 -171 b 309 -171 310 -170 310 -169 l 310 -165 l 313 -166 b 315 -166 316 -166 316 -164 b 317 -163 316 -162 315 -161 l 310 -160 l 310 -155 l 316 -157 b 317 -157 317 -157 318 -157 b 318 -157 319 -156 319 -155 l 320 -149 l 324 -151 l 323 -156 b 323 -158 324 -159 326 -159 b 327 -159 328 -159 328 -157 l 329 -154 l 332 -156 b 334 -156 335 -156 336 -155 b 336 -154 336 -152 335 -152 l 331 -150 l 334 -147 b 335 -146 335 -145 334 -144 b 333 -143 332 -143 331 -144 l 327 -147 l 323 -145 l 328 -141 b 328 -140 328 -139 328 -139 b 328 -138 328 -137 328 -137 l 323 -133 l 327 -130 l 331 -134 b 331 -134 332 -135 332 -135 b 333 -135 334 -134 334 -134 b 335 -133 335 -131 334 -130 l 331 -128 l 335 -126 b 336 -125 336 -124 336 -122 z m 300 -126 l 305 -127 l 305 -131 b 304 -132 303 -132 302 -133 l 299 -131 z m 296 -142 l 293 -139 l 296 -135 l 300 -137 b 300 -138 300 -138 300 -140 z m 305 -150 l 300 -151 l 299 -147 l 302 -145 b 303 -145 304 -146 305 -146 z m 307 -141 b 306 -141 305 -140 305 -139 b 305 -137 306 -136 307 -136 b 309 -136 310 -137 310 -139 b 310 -140 309 -141 307 -141 z m 310 -128 l 315 -126 l 316 -131 l 312 -133 b 312 -132 311 -132 310 -132 z m 315 -151 l 310 -150 l 310 -146 b 311 -146 312 -145 312 -145 l 316 -147 z m 318 -142 l 315 -140 b 315 -138 315 -138 315 -137 l 318 -135 l 322 -139 z"},"-":{"x_min":0,"x_max":317,"ha":317,"o":"m 250 171 b 236 177 204 179 169 179 b 118 179 62 174 48 166 b 43 163 45 143 49 141 b 58 136 121 133 175 133 b 211 133 242 135 249 138 b 259 143 258 164 250 171 z"},"E":{"x_min":0,"x_max":290,"ha":290,"o":"m 177 375 b 179 375 182 375 184 375 b 187 374 191 373 194 372 b 195 372 195 372 196 371 b 197 371 198 371 199 372 b 200 372 201 373 201 374 b 201 376 200 378 198 378 b 196 379 194 380 192 380 b 191 381 189 381 188 381 b 189 382 190 383 191 383 b 192 384 193 384 194 385 b 195 385 196 386 196 387 b 196 388 196 389 196 390 b 195 392 192 392 191 391 b 190 391 189 390 189 390 b 187 389 186 388 184 388 b 185 390 186 393 186 395 b 187 396 187 397 187 398 b 187 399 187 400 187 400 b 186 401 185 402 185 402 b 183 403 181 402 180 400 b 179 398 179 395 178 393 b 177 390 176 387 175 382 b 172 381 169 379 166 377 b 164 376 162 375 160 374 l 160 391 l 173 404 b 174 405 174 408 173 409 b 171 410 169 410 167 409 b 166 407 164 406 163 404 b 162 403 161 403 160 402 l 160 406 b 160 407 160 408 160 409 b 160 411 158 413 156 413 b 154 413 153 411 153 409 l 153 402 b 151 404 149 405 147 407 b 146 408 146 408 145 409 b 144 410 141 410 140 409 b 139 408 139 405 140 404 l 153 391 l 153 374 b 152 374 150 375 149 376 b 146 378 143 379 139 381 b 139 382 138 382 137 382 b 137 384 137 386 136 387 b 135 391 134 394 133 397 b 133 398 133 399 133 400 b 133 400 132 401 131 402 b 130 402 129 402 128 402 b 126 402 125 400 126 398 b 126 396 127 393 127 391 b 128 390 128 389 128 388 b 127 388 126 389 125 390 b 124 390 123 391 122 391 b 121 392 120 392 119 392 b 118 391 118 391 117 390 b 116 388 117 386 118 385 b 119 384 120 384 120 384 b 122 383 123 382 125 381 b 122 380 120 380 117 379 b 116 379 115 379 115 378 b 114 378 113 378 112 377 b 112 376 112 375 112 374 b 113 372 115 371 117 371 b 119 372 121 372 123 373 b 126 374 130 375 134 376 b 137 374 140 372 143 371 b 145 370 147 368 149 367 b 148 366 147 366 145 365 b 142 363 139 361 136 359 b 135 359 134 359 134 358 b 132 359 131 359 129 360 b 126 361 122 361 119 362 b 118 363 117 363 117 363 b 116 363 115 363 114 363 b 113 362 112 361 112 360 b 112 358 113 356 115 356 b 117 355 119 355 121 354 b 122 354 123 353 125 353 b 124 352 122 352 121 351 b 120 351 119 350 118 349 b 118 349 117 348 117 347 b 116 346 117 345 117 344 b 118 343 120 342 122 343 b 123 343 123 344 124 344 b 126 345 127 346 128 347 b 128 344 127 342 126 339 b 126 338 126 337 126 337 b 125 336 126 335 126 334 b 127 333 127 332 128 332 b 130 332 132 333 133 335 b 133 337 134 339 135 341 b 135 344 136 348 137 352 b 141 354 144 355 147 357 b 149 358 151 360 153 361 l 153 343 b 152 342 150 341 149 340 b 147 337 144 335 142 332 b 141 332 141 331 140 331 b 139 329 139 327 140 325 b 142 324 144 324 145 325 b 147 327 148 328 150 330 l 153 333 l 153 329 b 153 328 153 327 153 326 l 153 325 b 153 324 154 322 156 322 b 158 322 160 323 160 325 l 160 333 l 167 325 b 169 324 171 324 173 325 b 174 327 174 329 173 331 b 171 332 170 334 168 335 b 166 338 163 340 160 343 l 160 361 b 161 360 163 359 164 359 b 167 357 170 355 175 352 b 176 350 176 349 177 347 b 178 344 178 340 179 337 b 180 336 180 336 180 335 b 180 334 181 333 182 333 b 182 332 184 332 185 332 b 186 333 188 335 187 337 b 187 339 186 341 185 343 b 185 344 185 345 184 347 b 186 346 187 345 188 345 b 189 344 190 344 191 343 b 192 343 193 342 194 343 b 194 343 195 344 196 344 b 197 346 196 348 194 349 b 194 350 193 350 192 351 b 191 351 190 352 188 353 b 191 354 193 355 196 355 b 197 355 200 357 200 358 b 201 358 201 360 201 360 b 200 362 198 364 196 363 b 194 362 192 362 190 361 b 187 360 183 359 179 358 b 176 360 173 362 170 364 b 168 365 166 366 164 367 b 165 368 166 369 167 369 b 171 371 174 373 177 375 z m 62 -104 b 61 -103 60 -103 59 -103 l 55 -105 l 55 -102 b 54 -101 53 -100 52 -100 b 50 -100 49 -102 50 -103 l 51 -108 l 47 -110 l 46 -104 b 45 -104 45 -103 44 -103 b 44 -102 43 -102 42 -102 l 36 -104 l 36 -100 l 41 -98 b 42 -98 43 -96 43 -95 b 42 -94 41 -93 40 -93 l 36 -94 l 36 -91 b 36 -89 35 -88 34 -88 b 32 -88 31 -89 31 -91 l 31 -94 l 28 -93 b 27 -93 25 -94 25 -95 b 24 -96 25 -98 26 -98 l 31 -100 l 31 -104 l 25 -102 b 25 -102 24 -102 22 -104 l 21 -110 l 17 -108 l 18 -103 b 18 -102 17 -100 16 -100 b 15 -100 13 -101 13 -102 l 12 -105 l 9 -103 b 8 -103 6 -103 5 -104 b 5 -106 5 -107 6 -108 l 10 -110 l 7 -112 b 6 -113 6 -115 7 -116 b 7 -116 8 -117 9 -117 b 9 -117 10 -116 11 -116 l 14 -112 l 18 -115 l 14 -119 b 13 -119 13 -120 13 -121 b 13 -121 13 -122 14 -123 l 18 -127 l 14 -129 l 11 -125 b 9 -124 8 -125 7 -126 b 6 -127 6 -128 7 -129 l 10 -132 l 6 -134 b 5 -134 5 -136 5 -137 b 6 -138 7 -138 9 -138 l 12 -136 l 13 -139 b 13 -141 14 -141 16 -141 b 17 -141 18 -140 18 -138 l 17 -133 l 21 -131 l 22 -137 b 22 -138 23 -139 23 -139 b 24 -139 25 -139 25 -139 l 31 -137 l 31 -142 l 26 -143 b 25 -144 24 -145 25 -146 b 25 -148 26 -148 28 -148 l 31 -147 l 31 -151 b 31 -152 32 -153 34 -153 b 35 -153 36 -152 36 -151 l 36 -147 l 40 -148 b 41 -148 42 -148 43 -147 b 43 -145 42 -144 41 -143 l 36 -142 l 36 -137 l 42 -139 b 43 -139 44 -139 44 -139 b 45 -139 45 -138 45 -137 l 47 -131 l 51 -133 l 50 -138 b 49 -140 50 -141 51 -141 b 53 -141 54 -141 55 -139 l 55 -136 l 59 -138 b 61 -138 61 -138 62 -137 b 63 -136 62 -134 61 -134 l 58 -132 l 60 -129 b 61 -128 61 -127 61 -126 b 60 -125 58 -125 57 -126 l 53 -129 l 49 -127 l 54 -123 b 55 -122 55 -121 55 -121 b 55 -120 55 -119 54 -119 l 49 -115 l 53 -113 l 57 -116 b 57 -116 58 -117 59 -117 b 59 -117 60 -116 61 -116 b 62 -115 62 -113 60 -112 l 58 -110 l 61 -108 b 62 -107 63 -106 62 -104 z m 26 -108 l 31 -109 l 31 -113 b 30 -114 29 -114 29 -115 l 25 -113 z m 23 -124 l 19 -121 l 23 -117 l 26 -119 b 26 -120 26 -120 26 -122 z m 31 -132 l 26 -133 l 25 -129 l 29 -127 b 29 -127 30 -128 31 -128 z m 34 -123 b 32 -123 31 -122 31 -121 b 31 -119 32 -118 34 -118 b 35 -118 36 -119 36 -121 b 36 -122 35 -123 34 -123 z m 36 -110 l 41 -108 l 42 -113 l 39 -115 b 38 -114 37 -114 36 -114 z m 41 -133 l 36 -132 l 36 -128 b 37 -128 38 -127 39 -127 l 42 -129 z m 45 -124 l 41 -122 b 41 -120 41 -120 41 -119 l 45 -117 l 48 -121 z m 262 37 b 260 37 258 36 256 35 b 256 35 194 -8 116 -8 b 103 -8 91 119 90 207 b 108 210 139 215 192 219 b 210 221 213 252 191 252 b 190 252 190 252 189 252 b 172 251 141 248 90 239 b 92 371 109 511 109 528 b 109 533 107 537 104 540 b 137 545 191 551 252 556 b 270 557 273 590 251 590 b 250 590 250 590 249 590 b 228 588 127 580 57 567 b 49 566 46 557 46 550 b 38 548 30 544 27 540 b 21 531 2 380 2 241 b 2 86 26 -44 93 -44 b 174 -44 261 2 261 2 b 281 13 273 37 262 37 z m 81 -3 b 80 -3 80 -3 79 -3 b 78 -3 78 -3 77 -2 b 54 45 46 159 46 272 b 39 274 34 279 34 287 b 34 294 39 300 46 301 b 48 397 55 489 64 534 b 64 535 65 536 67 536 b 68 535 69 534 69 533 b 60 488 53 397 52 301 b 58 300 64 294 64 287 b 64 279 58 273 51 272 b 51 160 58 47 82 0 b 82 -1 82 -2 81 -3 z"},"s":{"x_min":0,"x_max":197,"ha":197,"o":"m 41 555 b 40 555 40 555 39 554 b 38 555 37 555 36 555 b 33 556 30 557 28 558 b 27 558 26 558 26 558 b 25 558 24 558 24 558 b 23 557 22 557 22 556 b 22 555 23 553 24 553 b 26 552 28 552 29 551 b 30 551 31 551 32 550 b 31 550 30 549 30 549 b 29 548 28 548 27 548 b 27 547 26 546 26 546 b 26 545 26 544 26 544 b 27 542 29 542 30 543 b 31 543 31 543 32 543 b 33 544 34 545 35 545 b 35 543 34 541 33 538 b 33 537 33 536 33 535 b 34 535 34 534 35 534 b 37 534 38 534 39 536 b 39 538 39 539 40 541 b 41 544 41 546 42 549 b 45 551 47 553 49 554 b 51 556 53 555 54 556 l 54 543 l 44 533 b 43 532 43 530 44 529 b 45 528 47 527 48 529 l 52 532 b 53 533 53 534 54 534 l 54 531 b 54 530 54 530 54 529 b 54 527 55 526 57 526 b 59 526 60 527 60 529 l 60 534 l 66 529 b 67 528 69 527 70 529 b 71 530 71 532 70 533 b 69 534 67 535 66 536 b 64 538 62 540 60 542 l 60 556 b 61 556 62 555 63 555 b 65 553 68 552 70 550 b 71 550 71 550 72 549 b 72 548 73 547 73 546 b 74 543 74 540 75 538 b 75 537 75 537 76 536 b 76 535 76 535 77 534 b 77 534 78 534 79 534 b 81 534 82 536 81 538 b 81 539 80 541 80 542 b 80 543 79 544 79 545 b 80 545 81 544 82 544 b 82 543 83 543 84 543 b 85 542 85 542 86 542 b 87 542 88 543 88 544 b 89 545 88 547 87 548 b 86 548 86 548 85 548 b 84 549 83 550 82 550 b 84 551 86 551 88 552 b 89 552 89 552 90 553 b 91 553 91 553 92 554 b 92 554 92 555 92 556 b 91 558 90 559 88 558 b 87 558 85 557 83 557 b 81 556 78 555 75 554 b 72 556 71 557 68 559 b 66 560 64 560 63 561 l 66 563 b 68 565 71 566 73 567 b 74 568 74 568 75 568 b 76 568 77 568 79 567 b 81 567 84 566 86 565 b 87 565 88 565 88 565 b 89 564 90 565 90 565 b 91 565 92 566 92 567 b 92 568 91 570 90 570 b 88 571 86 571 85 572 b 84 572 83 572 82 572 b 83 573 84 573 85 574 b 85 574 86 575 87 575 b 87 576 88 576 88 577 b 88 578 88 579 88 579 b 87 581 85 581 84 580 b 83 580 83 580 82 579 b 81 579 80 578 79 577 b 80 579 80 581 81 583 b 81 584 81 585 81 585 b 81 586 81 587 81 587 b 80 588 80 589 79 589 b 78 589 76 588 76 587 b 75 585 75 584 74 582 b 73 579 73 577 72 573 b 70 572 68 571 65 569 b 64 568 62 567 60 566 l 60 580 b 61 581 62 582 63 583 b 65 585 67 587 68 589 l 70 590 b 71 591 71 593 70 594 b 69 595 67 595 66 594 b 64 592 62 590 60 588 l 60 591 b 60 592 60 593 60 594 b 60 596 59 597 57 597 b 55 597 54 596 54 594 l 54 588 b 53 590 51 591 50 593 b 49 593 49 594 48 594 b 47 595 45 595 44 594 b 43 593 43 591 44 590 b 45 589 46 588 48 586 b 50 584 52 583 54 580 l 54 566 b 53 567 52 567 51 568 b 49 570 46 571 44 572 b 43 573 43 573 42 573 b 42 575 42 576 41 577 b 40 580 40 582 39 585 b 39 586 39 586 39 587 b 38 588 38 588 37 589 b 37 589 36 589 35 589 b 34 588 33 587 33 585 b 33 584 34 582 34 580 b 35 579 35 578 35 577 b 34 578 33 578 32 579 b 32 579 31 580 30 580 b 30 581 29 581 28 581 b 27 580 27 580 26 579 b 25 578 26 576 27 575 b 28 575 28 575 29 574 b 30 574 31 573 32 572 b 30 572 28 571 26 571 b 25 571 25 570 23 569 b 22 568 22 567 22 567 b 23 565 24 564 26 565 b 27 565 29 566 31 566 b 33 567 36 567 39 568 b 42 567 44 566 46 564 b 48 563 50 562 51 561 b 50 561 49 560 48 560 b 46 558 43 557 41 555 z m 207 205 b 203 205 199 203 197 198 b 182 159 163 130 143 109 b 125 190 81 288 81 333 b 81 354 90 363 98 363 b 119 363 107 339 125 339 b 135 339 136 380 96 380 b 64 380 7 366 7 316 b 7 300 12 276 20 249 b 10 221 0 198 0 198 b -4 189 3 183 11 183 b 15 183 19 185 21 190 b 24 197 27 205 31 214 b 48 159 70 98 79 55 b 50 36 29 21 29 -7 b 29 -43 60 -56 73 -56 b 128 -56 150 -14 150 52 b 150 60 150 69 148 79 b 175 105 202 140 218 190 b 221 199 214 205 207 205 z m 70 -24 b 63 -24 57 -19 57 -9 b 57 3 67 14 82 26 b 82 -11 77 -24 70 -24 z m 111 -20 b 111 -21 110 -22 108 -22 b 107 -21 106 -19 107 -18 b 121 14 105 87 86 159 b 85 158 85 158 84 158 b 75 158 69 165 69 173 b 69 180 73 185 79 187 b 78 189 78 191 77 193 b 58 267 41 331 55 349 b 56 350 58 350 59 349 b 60 348 60 347 59 346 b 47 330 64 264 83 194 b 83 192 84 190 84 188 b 92 188 99 181 99 173 b 99 168 96 163 91 161 b 110 88 127 13 111 -20 z"},">":{"x_min":0,"x_max":519,"ha":519,"o":"m 269 496 l 266 492 b 264 491 264 489 265 487 b 266 487 267 486 268 486 b 269 486 271 487 271 487 l 276 492 l 283 489 l 275 482 b 275 482 274 481 274 480 b 274 479 275 478 275 477 l 283 470 l 276 467 l 271 472 b 269 473 267 473 265 472 b 264 470 264 468 266 467 l 269 463 l 265 460 b 263 459 262 456 263 454 b 264 453 265 453 266 453 b 267 453 268 453 268 453 l 274 456 l 274 451 b 275 450 276 448 278 448 b 278 448 278 448 279 449 b 281 449 283 451 282 453 l 281 460 l 286 463 l 288 454 b 288 453 290 452 291 452 b 291 451 292 451 293 452 l 302 454 l 302 448 l 295 445 b 293 444 292 442 293 441 b 293 439 294 437 297 437 l 302 440 l 302 433 b 302 432 304 430 306 430 b 309 430 310 432 310 433 l 310 440 l 315 437 b 317 437 320 439 320 440 b 321 442 320 444 317 445 l 310 448 l 310 454 l 319 452 b 320 451 320 451 320 451 b 321 451 324 453 324 454 l 326 463 l 332 460 l 330 453 b 330 451 331 449 334 448 b 335 448 338 449 338 451 l 339 456 l 344 453 b 346 453 349 453 349 454 b 350 456 350 459 348 460 l 343 463 l 346 467 b 349 468 349 470 346 472 b 345 473 343 473 342 472 l 335 467 l 330 470 l 336 477 b 338 478 339 479 339 480 b 339 481 338 481 336 482 l 330 489 l 335 492 l 342 487 b 342 486 343 486 344 486 b 345 486 346 486 346 487 b 349 489 349 491 346 492 l 343 496 l 348 499 b 350 500 350 502 350 504 b 349 506 345 507 344 506 l 339 502 l 338 508 b 338 510 335 511 333 511 b 331 510 330 508 331 506 l 332 499 l 326 496 l 324 504 b 324 506 323 507 322 507 b 321 508 320 508 319 508 l 310 504 l 310 511 l 317 513 b 320 515 321 517 320 519 b 320 520 317 521 315 521 l 310 519 l 310 526 b 310 527 309 529 306 529 b 304 529 302 527 302 526 l 302 519 l 297 521 b 295 521 293 520 293 519 b 292 517 293 515 295 513 l 302 511 l 302 504 l 293 508 b 292 508 291 508 291 507 b 290 507 288 506 288 504 l 286 496 l 281 499 l 282 507 b 283 508 281 510 279 511 b 277 511 275 510 274 508 l 274 502 l 268 506 b 266 507 264 506 263 504 b 262 502 263 500 265 499 z m 317 460 l 310 462 l 310 469 b 312 469 313 470 314 471 l 319 468 z m 323 484 l 329 480 l 323 474 l 317 478 b 317 478 317 479 317 480 b 317 480 317 481 317 482 z m 310 497 l 317 499 l 319 491 l 314 488 b 313 489 312 490 310 490 z m 306 483 b 309 483 310 481 310 480 b 310 478 309 475 306 475 b 304 475 302 478 302 480 b 302 481 304 483 306 483 z m 302 462 l 295 460 l 293 468 l 298 471 b 300 470 301 469 302 469 z m 295 499 l 302 497 l 302 490 b 301 490 300 489 298 489 l 293 491 z m 290 484 l 295 481 b 294 481 294 480 294 480 b 294 479 294 478 295 478 l 290 474 l 284 480 z m 139 440 b 146 440 150 444 150 451 b 150 458 146 462 139 462 b 133 462 128 458 128 451 b 128 444 133 440 139 440 z m 401 281 b 408 281 413 287 413 292 b 413 299 408 304 401 304 b 396 304 390 299 390 292 b 390 287 396 281 401 281 z m 65 499 b 77 499 89 509 89 521 b 89 535 77 545 65 545 b 53 545 43 535 43 521 b 43 509 53 499 65 499 z m 115 49 b 121 50 124 53 124 57 b 122 66 75 315 71 321 b 84 327 100 333 115 337 b 126 341 124 359 113 359 b 112 359 111 358 109 357 b 96 354 36 331 -4 314 b -13 309 -9 293 1 293 b 2 293 3 293 4 293 b 5 293 5 293 6 293 b 6 293 17 300 37 308 b 39 273 58 145 96 52 b 98 50 104 49 110 49 b 111 49 113 49 115 49 z m 219 359 b 211 357 211 355 209 352 b 207 334 220 262 237 194 b 227 191 211 184 187 174 b 173 248 157 331 156 335 b 152 339 142 339 133 339 b 128 337 123 336 120 331 b 116 327 138 168 181 59 b 182 56 187 55 193 55 b 195 55 198 55 200 56 b 206 57 209 59 208 64 b 208 67 200 108 190 157 b 194 160 206 166 240 179 b 254 125 267 77 275 64 b 277 60 281 60 284 60 b 288 61 293 65 293 67 b 294 89 250 329 239 353 b 237 357 233 360 227 360 b 225 360 222 360 219 359 z m 390 7 b 383 7 379 2 379 -5 b 379 -10 383 -16 390 -16 b 397 -16 401 -10 401 -5 b 401 2 397 7 390 7 z m 446 151 b 445 149 445 149 444 148 b 444 148 419 120 382 112 b 375 110 355 170 345 211 b 353 214 368 220 392 229 b 400 231 399 244 391 244 b 390 244 388 244 387 243 b 379 241 364 237 342 227 b 327 289 320 357 317 365 b 317 368 315 369 314 371 b 329 377 353 386 382 395 b 389 397 388 411 380 411 b 380 411 379 411 377 411 b 367 407 320 392 288 378 b 285 377 284 372 285 368 b 282 367 278 364 277 362 b 275 357 284 282 300 216 b 316 148 340 92 369 92 b 371 92 373 93 375 93 b 413 101 449 133 449 133 b 458 141 451 152 446 151 z m 559 318 b 552 318 546 312 546 306 b 546 300 552 295 559 295 b 564 295 570 300 570 306 b 570 312 564 318 559 318 z m 501 232 b 487 232 477 222 477 209 b 477 196 487 186 501 186 b 513 186 523 196 523 209 b 523 222 513 232 501 232 z m 176 -44 b 178 -45 179 -45 181 -45 b 185 -46 188 -47 191 -48 b 192 -48 192 -48 194 -49 b 195 -49 196 -49 197 -48 b 197 -48 198 -47 198 -46 b 198 -44 198 -43 196 -42 b 194 -42 191 -40 189 -39 b 188 -39 187 -39 185 -39 b 187 -38 188 -37 189 -37 b 189 -36 190 -36 191 -35 b 192 -35 194 -34 194 -33 b 194 -31 194 -30 192 -30 b 191 -28 189 -27 188 -28 b 187 -29 187 -29 186 -29 b 185 -30 182 -31 181 -33 b 182 -29 182 -27 183 -25 b 183 -24 183 -23 185 -23 b 185 -21 185 -20 183 -19 b 183 -18 182 -18 181 -17 b 179 -17 178 -18 177 -20 l 176 -27 b 175 -30 173 -34 172 -37 b 169 -39 166 -42 163 -43 b 161 -44 159 -45 157 -47 l 157 -28 l 160 -25 b 162 -23 166 -20 168 -18 b 168 -17 169 -17 169 -16 b 171 -15 171 -11 169 -10 b 168 -9 166 -9 164 -10 l 157 -18 l 157 -14 b 157 -12 157 -11 157 -10 b 157 -9 154 -7 153 -7 b 151 -7 149 -8 149 -10 l 149 -18 b 148 -16 146 -14 143 -12 b 143 -11 142 -11 142 -10 b 140 -9 138 -9 137 -10 b 135 -12 134 -15 137 -16 l 141 -20 b 143 -23 146 -26 149 -28 l 149 -47 b 148 -46 147 -45 146 -45 b 142 -43 139 -40 135 -38 b 134 -38 134 -38 133 -37 b 133 -36 133 -35 132 -33 b 131 -29 131 -26 130 -23 b 130 -21 129 -20 129 -20 b 129 -19 128 -18 128 -18 b 127 -17 125 -17 124 -17 b 122 -18 121 -20 122 -23 l 123 -28 b 123 -29 124 -31 124 -33 b 123 -31 122 -31 121 -30 b 120 -29 119 -29 118 -28 b 118 -28 116 -28 115 -28 b 114 -28 113 -29 113 -30 b 112 -31 112 -34 114 -35 b 115 -36 115 -36 116 -36 b 118 -37 119 -38 121 -39 b 118 -39 115 -40 113 -40 b 112 -42 111 -42 111 -42 b 110 -42 109 -43 109 -44 b 108 -44 108 -45 108 -46 b 109 -48 110 -49 112 -49 b 115 -48 126 -45 130 -44 b 133 -46 135 -48 139 -49 b 141 -50 143 -52 146 -53 b 144 -54 143 -55 142 -55 b 139 -57 135 -59 132 -60 b 131 -62 131 -62 130 -62 b 129 -62 127 -62 125 -60 b 122 -59 118 -59 114 -58 b 114 -58 113 -57 112 -57 b 111 -57 110 -57 110 -58 b 109 -58 108 -59 108 -60 b 108 -62 109 -64 111 -65 l 116 -66 b 118 -67 120 -67 121 -67 b 120 -68 119 -68 118 -69 b 116 -69 115 -71 114 -71 b 113 -72 113 -73 112 -73 b 112 -74 112 -75 113 -76 b 114 -78 116 -78 118 -77 b 119 -77 120 -77 120 -76 b 121 -76 123 -75 124 -74 b 123 -76 123 -79 122 -82 b 122 -83 122 -83 122 -84 b 121 -85 122 -86 122 -87 b 122 -87 123 -88 124 -88 b 127 -90 129 -88 129 -86 b 130 -84 130 -82 131 -79 b 131 -76 132 -73 133 -68 b 137 -67 140 -65 143 -63 b 146 -62 147 -60 149 -59 l 149 -77 b 148 -78 147 -79 146 -81 l 138 -88 b 138 -90 137 -90 137 -91 b 135 -92 134 -94 137 -95 b 138 -97 140 -97 142 -95 l 147 -91 b 148 -90 148 -90 149 -88 l 149 -92 b 149 -94 149 -100 153 -100 b 154 -100 157 -97 157 -95 l 157 -88 b 159 -91 160 -92 162 -94 b 163 -94 163 -95 164 -95 b 166 -97 168 -97 169 -95 b 171 -94 171 -92 169 -91 l 164 -86 b 162 -83 160 -81 157 -77 l 157 -59 b 158 -60 159 -60 160 -62 b 163 -64 167 -66 170 -67 b 171 -68 171 -68 172 -68 b 172 -71 173 -72 173 -74 b 175 -77 176 -81 177 -84 b 177 -85 177 -85 177 -86 b 177 -87 178 -88 179 -88 b 179 -88 180 -90 181 -88 b 183 -88 185 -86 185 -84 b 183 -82 183 -79 182 -77 b 182 -76 181 -75 181 -74 b 182 -75 183 -75 185 -76 b 186 -76 187 -77 188 -77 b 189 -78 190 -78 190 -78 b 191 -77 192 -77 192 -76 b 194 -74 194 -72 191 -71 b 191 -71 190 -71 189 -69 b 188 -69 187 -68 185 -67 b 188 -67 190 -66 194 -65 b 194 -65 195 -65 196 -65 b 197 -64 197 -64 198 -63 b 198 -62 198 -60 198 -60 b 197 -58 196 -57 194 -57 b 191 -58 189 -58 187 -59 b 183 -60 180 -60 176 -62 b 172 -60 170 -58 167 -57 b 164 -56 162 -54 160 -53 b 161 -53 163 -52 164 -50 b 168 -49 171 -47 176 -44 z m -67 209 b -80 209 -90 199 -90 186 b -90 174 -80 164 -67 164 b -54 164 -44 174 -44 186 b -44 199 -54 209 -67 209 z m -140 243 b -147 243 -153 238 -153 232 b -153 225 -147 221 -140 221 b -135 221 -129 225 -129 232 b -129 238 -135 243 -140 243 z m -56 354 b -50 354 -44 359 -44 366 b -44 372 -50 377 -56 377 b -62 377 -67 372 -67 366 b -67 359 -62 354 -56 354 z m -6 62 b -13 62 -18 57 -18 51 b -18 45 -13 39 -6 39 b -1 39 5 45 5 51 b 5 57 -1 62 -6 62 z m -34 19 b -41 19 -45 13 -45 7 b -45 1 -41 -5 -34 -5 b -28 -5 -23 1 -23 7 b -23 13 -28 19 -34 19 z"},"l":{"x_min":0,"x_max":169,"ha":169,"o":"m 179 204 b 175 204 171 202 169 197 b 169 197 118 55 95 55 b 82 55 79 162 79 246 b 79 376 97 523 97 539 b 97 556 75 562 58 562 b 45 562 26 559 20 551 b 14 542 -3 400 -3 268 b -3 121 19 -1 82 -1 b 124 -1 190 189 190 189 b 193 198 186 204 179 204 z m 68 51 b 66 51 65 51 64 52 b 35 108 34 246 39 362 b 33 364 28 370 28 377 b 28 384 34 390 41 391 b 44 454 49 507 53 531 b 53 533 54 534 56 534 b 57 534 58 532 58 531 b 55 506 49 453 46 391 b 53 390 58 384 58 377 b 58 369 52 362 44 362 b 39 246 40 109 69 55 b 70 53 69 52 68 51 z m 48 -111 b 48 -110 47 -109 46 -110 l 43 -111 l 43 -109 b 42 -108 41 -107 40 -107 b 39 -108 39 -109 39 -110 l 40 -114 l 37 -115 l 36 -111 b 36 -110 35 -110 35 -109 b 34 -109 34 -109 33 -109 l 29 -111 l 29 -107 l 32 -106 b 33 -106 34 -105 34 -104 b 33 -103 32 -102 31 -102 l 29 -103 l 29 -100 b 29 -99 28 -98 27 -98 b 26 -98 25 -99 25 -100 l 25 -103 l 22 -102 b 21 -102 20 -103 20 -104 b 20 -105 20 -106 21 -106 l 25 -107 l 25 -111 l 20 -109 b 18 -110 18 -110 18 -111 l 17 -115 l 14 -113 l 15 -110 b 15 -109 14 -108 13 -107 b 12 -107 11 -108 11 -109 l 10 -111 l 8 -110 b 7 -109 6 -110 5 -111 b 5 -112 5 -113 6 -113 l 9 -115 l 7 -117 b 6 -117 6 -118 6 -119 b 7 -120 7 -120 8 -120 b 8 -120 9 -120 9 -119 l 12 -117 l 15 -118 l 12 -122 b 11 -122 11 -122 11 -123 b 11 -124 11 -124 12 -124 l 15 -128 l 12 -129 l 9 -127 b 8 -126 7 -126 7 -127 b 6 -128 6 -129 7 -130 l 9 -131 l 6 -133 b 5 -133 5 -134 5 -135 b 6 -136 6 -136 8 -136 l 10 -135 l 11 -137 b 11 -138 12 -139 13 -139 b 14 -138 15 -137 15 -136 l 14 -133 l 17 -131 l 18 -136 b 19 -137 20 -137 20 -137 l 25 -136 l 25 -139 l 21 -140 b 20 -140 20 -142 20 -143 b 20 -143 21 -144 22 -144 l 25 -143 l 25 -146 b 25 -147 26 -148 27 -148 b 28 -148 29 -147 29 -146 l 29 -143 l 31 -144 b 33 -144 33 -143 34 -143 b 34 -142 33 -141 32 -140 l 29 -139 l 29 -136 l 33 -137 b 34 -137 34 -137 36 -136 l 37 -131 l 40 -133 l 39 -136 b 39 -137 39 -139 41 -139 b 42 -139 42 -138 43 -137 l 43 -135 l 46 -136 b 47 -136 48 -136 48 -135 b 49 -135 48 -133 48 -133 l 45 -131 l 47 -130 b 48 -129 48 -128 47 -127 b 46 -126 45 -126 44 -127 l 42 -129 l 39 -128 l 42 -125 b 43 -124 43 -124 43 -123 b 43 -123 43 -122 42 -122 l 39 -119 l 42 -117 l 44 -119 b 45 -120 45 -120 46 -120 b 46 -120 47 -120 47 -119 b 48 -119 48 -117 47 -117 l 45 -115 l 48 -113 b 49 -113 49 -112 48 -111 z m 21 -113 l 25 -115 l 25 -118 b 24 -118 24 -118 23 -119 l 20 -117 z m 19 -126 l 16 -123 l 19 -120 l 21 -122 b 21 -123 21 -124 21 -124 z m 25 -132 l 21 -133 l 20 -129 l 23 -128 b 24 -128 24 -128 25 -129 z m 27 -125 b 26 -125 25 -124 25 -123 b 25 -122 26 -121 27 -121 b 28 -121 29 -122 29 -123 b 29 -124 28 -125 27 -125 z m 29 -115 l 32 -113 l 33 -117 l 31 -119 b 30 -118 29 -118 29 -118 z m 32 -133 l 29 -132 l 29 -129 b 29 -128 30 -128 31 -127 l 33 -129 z m 35 -126 l 32 -124 b 33 -124 33 -123 33 -123 b 33 -123 33 -122 32 -122 l 35 -120 l 38 -123 z m 108 -49 b 109 -50 110 -50 111 -50 b 113 -51 116 -51 119 -52 b 120 -53 121 -53 121 -52 b 122 -52 122 -51 122 -51 b 123 -50 122 -48 121 -48 b 119 -47 118 -47 116 -47 b 116 -46 115 -46 114 -46 b 115 -46 115 -45 116 -45 b 117 -44 117 -44 118 -44 b 119 -43 119 -43 119 -42 b 119 -42 119 -41 119 -40 b 118 -39 117 -39 116 -39 b 115 -40 115 -40 114 -40 b 113 -41 113 -41 112 -42 b 112 -40 112 -38 113 -37 b 113 -36 113 -36 113 -35 b 114 -35 113 -34 113 -33 b 113 -33 112 -32 112 -32 b 110 -32 109 -33 109 -34 b 108 -35 108 -37 108 -38 b 107 -40 106 -42 106 -45 b 104 -46 102 -48 100 -49 b 98 -49 97 -50 96 -51 l 96 -39 b 96 -39 97 -38 98 -37 l 104 -31 b 105 -30 105 -29 104 -28 b 103 -27 101 -27 100 -28 l 96 -33 l 96 -30 b 96 -28 96 -25 93 -25 b 92 -26 91 -27 91 -28 l 91 -33 l 86 -28 b 85 -27 83 -27 83 -28 b 82 -29 82 -30 83 -31 b 84 -32 85 -33 86 -34 b 87 -36 89 -37 91 -39 l 91 -51 b 90 -51 89 -50 88 -50 b 86 -48 84 -47 81 -45 l 80 -42 b 79 -40 79 -38 77 -33 b 76 -32 75 -32 75 -32 b 74 -33 73 -34 73 -35 b 73 -37 74 -38 74 -39 b 74 -40 75 -41 75 -42 b 74 -41 73 -41 73 -41 b 72 -40 71 -40 71 -39 b 70 -39 69 -39 69 -39 b 68 -39 68 -40 67 -40 b 67 -41 67 -43 68 -44 b 69 -44 69 -44 70 -44 b 71 -45 71 -45 72 -46 b 71 -46 69 -47 66 -48 b 65 -48 65 -48 64 -49 b 64 -49 64 -50 64 -51 b 65 -52 66 -53 67 -52 b 68 -52 70 -52 71 -51 b 73 -51 76 -50 78 -49 l 84 -53 b 86 -54 87 -54 88 -55 b 88 -56 87 -56 86 -57 b 84 -58 82 -59 80 -60 b 79 -61 79 -61 78 -61 b 77 -61 70 -59 69 -58 b 68 -58 68 -58 67 -58 b 66 -58 66 -58 65 -58 b 65 -59 64 -59 64 -60 b 64 -61 65 -62 66 -63 b 67 -63 69 -63 70 -64 b 71 -64 72 -64 72 -64 b 72 -65 71 -65 70 -66 b 70 -66 69 -66 67 -68 b 67 -69 67 -70 67 -70 b 68 -71 70 -72 71 -71 b 73 -70 74 -69 75 -69 b 74 -70 74 -72 73 -75 b 73 -76 73 -77 73 -77 b 74 -78 74 -78 75 -78 b 76 -78 77 -78 78 -76 b 78 -74 80 -68 81 -65 b 83 -64 85 -63 87 -62 b 88 -61 89 -60 91 -59 l 91 -71 b 90 -72 89 -73 88 -73 b 87 -75 85 -77 83 -79 b 82 -80 82 -82 83 -83 b 84 -84 85 -84 86 -83 l 91 -78 l 91 -80 b 91 -81 91 -82 91 -83 b 91 -84 92 -85 93 -85 b 95 -85 96 -84 96 -83 l 96 -78 b 97 -79 98 -80 99 -82 l 100 -83 b 101 -84 103 -84 104 -83 b 105 -82 105 -80 104 -79 b 103 -78 102 -77 101 -76 b 99 -75 98 -73 96 -71 l 96 -59 b 96 -60 97 -60 98 -61 b 100 -62 102 -63 104 -65 b 105 -65 105 -65 106 -65 b 106 -66 106 -67 106 -68 b 107 -71 108 -73 109 -76 b 109 -77 109 -78 110 -78 b 110 -78 111 -78 112 -78 b 113 -78 114 -77 113 -75 b 113 -74 113 -72 112 -71 b 112 -70 112 -69 112 -69 b 112 -69 113 -69 114 -70 b 114 -70 115 -71 116 -71 b 116 -71 117 -71 119 -70 b 120 -69 119 -67 118 -67 b 116 -66 115 -65 114 -64 b 116 -64 117 -64 119 -63 b 120 -63 120 -63 122 -62 b 122 -61 122 -60 122 -60 b 122 -58 121 -58 119 -58 b 118 -58 117 -59 115 -59 b 113 -60 111 -60 108 -61 b 106 -60 104 -59 102 -58 b 101 -57 99 -56 98 -55 b 99 -55 100 -54 100 -54 b 103 -53 105 -51 108 -49 z"},"8":{"x_min":0,"x_max":248,"ha":248,"o":"m 76 -60 b 77 -61 79 -61 80 -61 b 83 -62 85 -63 88 -63 b 88 -64 89 -64 90 -64 b 90 -64 91 -64 92 -64 b 93 -63 93 -63 93 -62 b 94 -60 93 -59 91 -58 b 90 -58 88 -57 86 -57 b 85 -57 84 -56 83 -56 b 84 -56 85 -55 86 -55 b 87 -54 87 -54 88 -53 b 89 -53 89 -52 90 -52 b 90 -51 90 -50 89 -49 b 88 -48 87 -47 85 -48 b 83 -50 81 -51 80 -51 b 81 -49 81 -47 82 -45 b 82 -44 82 -44 82 -43 b 83 -42 83 -42 82 -41 b 82 -40 81 -40 80 -40 b 79 -39 77 -40 77 -42 b 76 -43 76 -45 76 -47 b 75 -49 74 -52 73 -55 b 71 -57 68 -58 66 -59 b 64 -60 63 -61 61 -62 b 61 -61 61 -60 61 -59 b 61 -56 61 -53 61 -50 b 61 -49 61 -49 61 -48 b 62 -47 63 -46 64 -46 b 66 -44 68 -42 70 -40 b 70 -39 71 -39 71 -38 b 72 -37 72 -35 71 -34 b 70 -33 68 -33 67 -34 b 66 -35 65 -37 63 -38 b 63 -39 62 -39 61 -40 b 61 -39 61 -38 61 -37 b 61 -36 61 -35 61 -34 b 61 -33 60 -31 58 -31 b 55 -31 55 -34 55 -36 b 55 -37 55 -39 55 -40 b 54 -39 52 -37 51 -36 b 50 -35 50 -35 49 -34 b 48 -33 46 -33 45 -34 b 44 -35 44 -37 45 -38 b 47 -40 48 -41 49 -42 b 51 -44 53 -46 55 -48 b 55 -51 55 -54 55 -57 b 55 -59 55 -60 55 -62 b 54 -62 53 -61 52 -61 b 50 -59 47 -58 45 -56 b 44 -56 44 -56 43 -55 b 43 -54 43 -53 42 -51 b 42 -49 41 -46 40 -44 b 40 -43 40 -42 40 -42 b 39 -41 39 -40 38 -40 b 38 -40 37 -39 36 -40 b 35 -40 34 -42 34 -43 b 34 -45 35 -47 35 -48 b 36 -49 36 -50 36 -51 b 35 -51 34 -50 33 -50 b 33 -49 32 -49 31 -48 b 30 -48 30 -48 29 -48 b 28 -48 27 -49 27 -49 b 26 -51 27 -53 28 -53 b 29 -54 29 -54 30 -54 b 31 -55 32 -56 33 -56 b 31 -57 29 -57 27 -58 b 26 -58 26 -58 25 -58 b 24 -59 24 -59 23 -60 b 23 -60 23 -61 23 -62 b 24 -63 25 -64 27 -64 b 28 -64 30 -63 32 -63 b 34 -62 37 -61 40 -60 b 43 -62 45 -63 48 -65 b 49 -65 51 -66 52 -67 b 51 -68 50 -68 49 -69 b 47 -70 44 -72 42 -73 b 41 -74 41 -74 40 -74 b 39 -74 38 -74 37 -73 b 34 -73 31 -72 29 -71 b 28 -71 27 -71 27 -71 b 26 -70 25 -71 25 -71 b 24 -71 23 -72 23 -73 b 23 -74 24 -76 25 -76 b 27 -77 29 -77 30 -78 b 31 -78 32 -78 33 -78 b 32 -79 31 -79 31 -80 b 30 -80 29 -81 28 -81 b 28 -82 27 -82 27 -83 b 27 -84 27 -85 27 -85 b 28 -87 30 -87 31 -86 b 32 -86 32 -86 33 -85 b 34 -85 35 -84 36 -83 b 36 -85 35 -88 34 -91 b 34 -92 34 -93 34 -94 b 35 -94 35 -95 36 -95 b 38 -95 39 -95 40 -93 b 40 -91 40 -90 41 -88 b 42 -85 42 -83 43 -79 b 46 -78 48 -77 50 -75 b 52 -74 54 -73 55 -72 b 55 -73 55 -75 55 -76 b 55 -79 55 -82 55 -86 b 54 -87 53 -88 53 -89 b 51 -91 49 -93 47 -95 b 46 -95 46 -96 45 -96 b 44 -97 44 -99 45 -100 b 47 -101 48 -102 49 -100 b 51 -99 52 -98 53 -97 b 54 -96 55 -95 55 -95 b 55 -96 55 -97 55 -98 b 55 -100 55 -103 58 -103 b 60 -103 61 -102 61 -99 b 61 -97 61 -96 61 -95 b 63 -96 64 -98 67 -100 b 68 -101 70 -102 71 -100 b 72 -99 72 -97 71 -96 b 70 -95 69 -94 67 -93 b 65 -91 64 -89 61 -86 b 61 -84 61 -81 61 -78 b 61 -76 61 -74 61 -72 b 62 -73 63 -73 64 -74 b 67 -76 69 -77 73 -79 b 74 -81 74 -82 74 -83 b 75 -86 76 -88 76 -91 b 76 -91 78 -95 78 -95 b 79 -95 80 -95 80 -95 b 82 -94 83 -93 82 -91 b 82 -90 82 -88 81 -86 b 81 -85 81 -84 80 -83 b 81 -84 82 -84 83 -85 b 84 -85 84 -86 85 -86 b 86 -87 87 -87 88 -87 b 88 -86 89 -86 89 -85 b 90 -84 90 -82 88 -81 b 86 -80 84 -79 83 -78 b 84 -78 90 -77 91 -76 b 92 -76 93 -76 93 -75 b 93 -74 94 -73 93 -73 b 93 -71 91 -70 90 -71 b 88 -71 86 -72 85 -72 b 82 -73 79 -73 76 -74 b 74 -73 71 -72 69 -70 b 67 -69 66 -68 64 -67 b 65 -67 66 -66 67 -66 b 70 -64 72 -63 76 -60 z m 156 661 l 153 658 b 151 657 151 655 153 654 b 153 653 154 653 155 653 b 156 653 156 653 157 654 l 162 658 l 166 655 l 161 650 b 160 650 160 649 160 648 b 160 647 160 646 161 645 l 166 640 l 162 638 l 157 642 b 156 643 154 643 153 642 b 151 640 151 638 153 637 l 156 634 l 152 632 b 150 631 150 629 151 628 b 151 627 152 626 153 626 b 154 626 155 626 155 626 l 159 629 l 160 625 b 160 623 162 622 164 622 b 165 623 166 624 166 626 l 165 632 l 170 635 l 171 627 b 171 626 172 626 173 625 b 173 625 174 625 175 625 l 183 627 l 183 622 l 177 620 b 175 619 174 618 175 616 b 175 614 176 614 179 614 l 183 615 l 183 610 b 183 609 184 607 186 607 b 187 607 189 609 189 610 l 189 615 l 193 614 b 195 614 196 614 197 616 b 197 617 197 619 195 620 l 189 622 l 189 627 l 196 625 b 198 625 198 625 199 625 b 200 626 200 626 200 627 l 202 635 l 207 632 l 205 626 b 205 624 206 622 208 622 b 210 622 211 623 212 624 l 212 629 l 216 626 b 217 626 218 626 218 626 b 219 626 220 626 221 627 b 222 629 221 631 220 632 l 216 634 l 219 637 b 220 638 220 640 219 641 b 218 643 216 643 215 642 l 210 638 l 205 640 l 211 645 b 212 646 212 647 212 648 b 212 649 212 649 211 650 l 205 655 l 210 658 l 215 654 b 215 653 216 653 217 653 b 218 653 218 653 219 654 b 220 655 220 657 219 658 l 216 661 l 220 664 b 221 664 222 666 221 668 b 220 669 218 670 217 669 l 213 667 l 212 671 b 211 673 210 674 208 673 b 206 673 205 671 206 670 l 207 663 l 202 661 l 200 668 b 200 669 200 670 199 670 b 198 671 197 671 196 670 l 189 668 l 189 674 l 195 676 b 197 676 198 678 197 680 b 197 681 195 682 193 682 l 189 680 l 189 685 b 189 687 187 688 186 688 b 184 688 183 687 183 685 l 183 680 l 179 682 b 177 682 175 681 175 680 b 174 678 175 676 177 676 l 183 674 l 183 668 l 175 671 b 174 671 173 671 173 670 b 172 670 171 669 171 668 l 170 661 l 165 663 l 166 670 b 166 671 165 673 164 673 b 162 674 160 673 160 671 l 159 667 l 155 669 b 153 670 152 670 151 668 b 150 666 150 665 152 664 z m 195 632 l 189 634 l 189 639 b 190 639 191 640 192 641 l 196 638 z m 199 652 l 204 648 l 199 644 l 195 646 b 195 647 195 647 195 648 b 195 648 195 649 195 650 z m 189 662 l 195 663 l 196 657 l 192 655 b 191 656 190 656 189 657 z m 186 651 b 187 651 189 649 189 648 b 189 646 187 645 186 645 b 184 645 183 646 183 648 b 183 649 184 651 186 651 z m 183 634 l 177 632 l 175 638 l 180 640 b 180 640 181 639 183 639 z m 177 664 l 183 662 l 183 657 b 181 656 180 656 180 655 l 175 657 z m 172 652 l 176 649 b 176 647 176 647 176 646 l 172 644 l 168 648 z m 170 341 b 199 393 223 442 223 484 b 223 505 221 575 147 575 b 46 575 24 503 24 470 b 24 417 59 354 92 284 b 50 220 11 153 11 96 b 11 60 13 -2 99 -2 b 169 -2 226 41 226 128 b 226 204 197 276 170 341 z m 158 537 b 182 537 189 503 189 483 b 189 454 174 420 153 382 b 135 425 121 464 121 498 b 121 530 149 537 158 537 z m 95 35 b 65 35 59 77 59 90 b 59 136 82 188 111 240 b 128 197 141 151 141 106 b 141 43 110 35 95 35 z m 180 89 b 179 88 178 88 176 88 b 175 88 174 90 175 91 b 193 140 167 215 137 290 b 128 290 119 291 119 304 b 119 310 122 314 126 317 b 126 317 125 318 125 319 b 91 403 59 482 81 528 b 82 529 83 530 85 529 b 86 529 87 527 86 526 b 65 482 97 404 130 321 b 130 320 131 319 131 319 b 141 319 149 315 149 304 b 149 299 146 295 142 292 b 172 216 198 140 180 89 z"},"\\":{"x_min":0,"x_max":223,"ha":223,"o":"m 65 117 b 66 117 67 117 68 116 b 70 116 73 115 76 114 b 77 114 78 114 78 114 b 79 115 79 115 79 116 b 80 117 79 119 78 119 b 76 119 75 120 73 120 b 73 120 72 120 71 121 b 72 121 72 122 73 122 b 74 122 76 124 76 126 b 75 128 74 128 73 127 b 72 127 72 127 71 127 b 70 126 69 125 68 125 b 69 127 69 128 70 131 b 70 132 70 133 69 134 b 67 135 66 134 66 133 b 65 131 65 130 64 129 b 64 126 63 124 63 121 b 61 120 59 119 57 118 b 55 117 54 116 53 116 b 53 117 53 118 53 118 b 53 121 53 123 53 127 b 53 128 54 129 55 130 b 57 131 58 133 61 135 b 62 136 62 138 61 139 b 60 140 58 140 57 139 b 56 138 55 137 54 136 b 54 135 53 135 53 134 b 53 135 53 136 53 137 b 53 139 53 141 50 141 b 49 141 48 140 48 139 b 48 138 48 138 48 137 b 48 136 48 135 48 134 b 46 135 45 137 43 139 b 42 140 40 140 39 139 b 39 138 39 136 39 135 b 40 134 41 133 43 132 b 44 131 46 129 48 127 b 48 125 48 123 48 120 b 48 119 48 117 48 116 b 47 116 46 117 45 117 b 43 118 41 120 38 121 b 37 123 37 124 37 125 b 36 127 36 129 35 131 b 35 132 35 132 34 134 b 33 134 32 135 32 134 b 30 134 30 133 30 131 b 30 130 31 129 31 127 b 31 127 32 126 32 125 b 31 125 30 126 30 126 b 29 127 28 127 28 127 b 27 128 26 128 26 128 b 25 127 25 127 24 126 b 24 125 24 124 25 123 b 26 123 26 123 27 122 b 27 122 28 121 29 121 b 28 120 26 120 23 119 b 22 119 22 118 21 118 b 21 116 21 114 24 114 b 25 115 27 115 28 115 b 30 116 33 117 35 117 b 37 116 39 115 41 114 b 43 113 44 112 45 111 b 45 111 44 111 43 110 b 41 109 39 108 35 106 b 34 106 33 106 32 107 b 30 107 28 108 26 108 b 25 108 25 109 24 109 b 23 109 23 109 22 109 b 22 108 21 108 21 107 b 21 104 24 103 27 103 b 28 103 29 103 29 102 b 29 102 28 101 27 101 b 27 101 26 100 25 100 b 25 100 24 99 24 97 b 25 95 27 95 28 96 b 30 97 31 98 32 98 b 31 96 31 95 30 92 b 30 91 30 90 30 90 b 31 89 31 89 32 89 b 33 88 34 89 35 90 b 35 92 35 93 36 94 b 36 97 37 99 38 102 b 40 103 42 104 44 105 b 45 106 46 107 48 107 b 48 106 48 105 48 105 b 48 102 48 100 48 96 b 47 95 46 94 45 93 b 44 92 42 90 41 89 b 40 88 40 88 39 88 b 39 87 39 85 39 84 b 40 83 42 83 43 84 b 44 85 45 86 46 87 b 47 88 47 88 48 89 b 48 88 48 87 48 86 b 48 86 48 85 48 84 b 48 83 49 82 50 82 b 53 82 53 84 53 86 b 53 87 53 88 53 89 b 54 88 55 86 57 84 b 58 83 60 83 61 84 b 62 85 62 87 61 88 b 60 89 59 90 58 91 b 56 92 55 94 53 96 b 53 98 53 100 53 103 b 53 104 53 106 53 107 b 53 107 54 106 55 106 b 57 105 59 103 61 102 b 62 102 62 102 63 102 b 63 100 63 99 63 98 b 64 96 65 94 65 92 b 65 91 65 91 67 89 b 67 88 68 88 69 89 b 70 89 71 90 70 92 b 70 93 70 94 69 96 b 69 96 69 97 68 98 b 69 98 70 97 71 97 b 71 96 72 96 74 95 b 75 96 76 96 76 97 b 77 98 76 99 75 100 b 73 101 72 102 71 102 b 73 103 74 103 76 104 b 77 104 77 104 79 105 b 79 108 79 109 76 109 b 75 108 73 108 72 108 b 70 107 68 106 65 106 b 63 107 61 108 59 109 b 58 110 56 111 55 111 b 56 112 57 112 57 113 b 60 114 62 115 65 117 z m 112 646 l 110 644 b 109 643 109 641 110 640 b 110 640 111 640 113 640 l 117 644 l 121 641 l 116 637 b 116 637 115 636 115 635 b 115 635 116 634 116 633 l 121 629 l 117 627 l 113 631 b 112 632 111 631 110 630 b 109 629 109 628 110 627 l 112 624 l 109 623 b 108 622 107 620 108 619 b 109 618 109 618 110 618 b 111 618 111 618 112 618 l 115 620 l 116 617 b 116 615 117 615 119 615 b 120 615 121 616 121 618 l 120 623 l 123 625 l 125 619 b 125 618 125 618 126 617 b 127 617 127 617 128 617 l 134 619 l 134 614 l 129 613 b 128 612 127 611 127 610 b 128 608 129 608 131 608 l 134 609 l 134 605 b 134 604 135 603 136 603 b 138 603 139 604 139 605 l 139 609 l 142 608 b 144 608 145 608 145 610 b 146 611 145 612 144 613 l 139 614 l 139 619 l 145 617 b 146 617 146 617 147 617 b 148 617 148 618 148 619 l 149 625 l 153 623 l 152 618 b 152 616 153 615 155 615 b 156 615 157 615 157 617 l 158 620 l 161 618 b 163 618 164 618 165 619 b 165 620 165 622 164 622 l 161 624 l 163 627 b 164 628 164 629 163 630 b 162 631 161 631 160 630 l 156 627 l 152 629 l 157 633 b 157 634 157 635 157 635 b 157 636 157 637 157 637 l 152 641 l 156 644 l 160 640 b 160 640 161 639 161 639 b 162 639 163 640 163 640 b 164 641 164 643 163 644 l 161 646 l 164 648 b 165 649 166 650 165 652 b 164 653 163 653 161 653 l 158 651 l 157 654 b 157 655 156 656 154 656 b 153 656 152 654 152 653 l 153 648 l 150 646 l 148 652 b 146 654 146 654 145 654 l 139 652 l 139 656 l 144 658 b 145 658 146 660 146 661 b 145 662 144 663 142 663 l 139 662 l 139 665 b 139 667 138 668 136 668 b 135 668 134 667 134 665 l 134 662 l 131 663 b 129 663 128 662 127 661 b 127 660 128 658 129 658 l 134 656 l 134 652 l 128 654 b 127 654 127 654 125 652 l 123 646 l 120 648 l 121 653 b 121 654 120 656 119 656 b 117 656 116 655 116 654 l 115 651 l 112 653 b 110 653 109 653 108 652 b 107 650 108 649 109 648 z m 144 623 l 139 624 l 139 628 b 140 628 141 629 141 629 l 145 627 z m 147 639 l 151 635 l 147 632 l 144 634 b 144 636 144 636 144 637 z m 139 646 l 144 648 l 145 643 l 141 641 b 141 642 140 642 139 642 z m 136 638 b 138 638 139 637 139 635 b 139 634 138 633 136 633 b 135 633 134 634 134 635 b 134 637 135 638 136 638 z m 134 624 l 129 623 l 128 627 l 131 629 b 132 629 133 628 134 628 z m 129 648 l 134 647 l 134 643 b 133 642 132 642 131 641 l 128 643 z m 125 639 l 129 637 b 129 636 129 636 129 634 l 125 632 l 122 635 z m 73 547 b 69 555 62 559 52 559 b 47 559 41 558 35 556 b 20 552 21 547 19 540 b 12 480 136 76 172 17 b 174 14 178 12 182 12 b 192 12 204 20 204 27 b 204 67 97 503 73 547 z m 111 268 b 110 268 109 268 109 269 l 88 349 b 80 349 73 356 73 364 b 73 370 76 375 81 378 l 62 452 b 61 453 62 455 63 455 b 65 456 66 455 67 453 l 86 379 b 95 379 103 374 103 364 b 103 358 99 353 93 351 l 114 271 b 114 269 114 268 111 268 z"},"e":{"x_min":0,"x_max":234,"ha":234,"o":"m 244 205 b 240 205 236 203 234 198 b 234 198 177 50 124 50 b 108 50 80 77 80 147 b 80 153 80 158 81 163 b 130 174 172 213 172 253 b 172 298 118 306 103 306 b 38 306 -9 222 -9 137 b -9 52 46 0 110 0 b 182 0 255 190 255 190 b 258 199 251 205 244 205 z m 116 281 b 123 281 125 265 125 254 b 125 232 103 204 83 188 b 91 240 110 281 116 281 z m 97 27 b 96 27 95 26 94 26 b 59 49 39 81 34 123 b 34 125 34 127 34 129 b 26 130 20 136 20 143 b 20 151 26 157 34 158 b 38 214 64 266 81 283 b 82 284 83 284 84 283 b 85 282 85 281 84 279 b 68 262 43 211 39 158 b 45 156 50 150 50 143 b 50 136 45 131 39 129 b 39 127 39 125 39 124 b 44 83 63 52 96 31 b 97 30 97 29 97 27 z m 121 485 b 120 484 119 484 119 484 b 117 484 116 485 114 485 b 111 486 107 487 104 488 b 103 488 102 488 102 488 b 101 489 100 488 99 488 b 98 487 97 487 97 486 b 97 484 98 482 100 481 b 102 481 104 480 106 479 b 107 479 108 479 110 478 b 109 478 107 477 106 476 b 105 476 104 475 103 475 b 103 474 102 473 102 473 b 101 472 102 471 102 470 b 103 468 105 467 107 468 b 108 469 108 469 109 470 b 110 470 112 471 113 472 b 113 469 112 467 111 464 b 111 464 111 463 111 462 b 110 461 111 460 111 459 b 112 458 112 458 113 457 b 115 457 117 458 118 460 b 118 462 119 464 120 466 b 120 470 121 473 122 476 l 122 477 b 125 479 129 481 132 483 b 134 484 136 485 138 486 l 138 468 b 137 467 135 466 134 465 b 134 464 126 456 125 456 b 124 454 124 452 125 451 b 127 449 128 449 130 451 b 131 452 133 454 135 455 b 136 456 137 457 138 458 l 138 454 b 138 453 138 452 138 451 b 138 449 139 447 141 447 b 143 447 145 449 145 451 l 145 458 b 147 456 149 454 152 451 b 154 449 156 449 158 451 b 159 452 159 454 158 456 l 145 468 l 145 486 b 146 485 148 485 149 484 b 152 482 155 480 160 477 b 161 476 161 474 162 472 b 163 469 163 466 164 462 b 165 462 165 461 165 460 b 165 459 166 458 167 458 b 167 457 169 457 169 457 b 171 458 173 460 172 462 b 172 464 171 466 170 468 b 170 470 170 471 169 472 b 171 471 172 471 173 470 b 174 470 175 469 176 468 b 177 468 178 468 179 468 b 179 468 180 469 181 470 b 182 471 181 474 179 475 b 179 475 178 476 177 476 b 176 477 175 478 173 478 b 176 479 178 480 181 481 b 182 481 182 481 183 481 b 184 481 185 482 185 483 b 186 484 186 485 186 486 b 185 488 183 489 181 488 b 179 488 177 487 175 487 b 172 486 168 485 164 484 b 161 485 158 487 155 489 b 153 490 151 491 149 492 b 150 493 151 494 152 495 b 156 496 159 498 162 500 b 163 501 163 501 164 501 b 166 501 167 500 169 500 b 172 499 176 498 179 497 b 180 497 180 497 181 497 b 182 496 183 497 184 497 b 185 497 186 498 186 499 b 186 501 185 503 183 504 b 181 504 179 505 177 505 b 176 506 174 506 173 506 b 174 507 175 508 176 508 b 177 509 178 510 179 510 b 180 511 181 511 181 512 b 181 513 181 514 181 515 b 180 517 177 518 176 517 b 175 516 174 516 174 515 b 172 515 171 514 169 513 b 170 515 171 518 171 521 b 172 521 172 522 172 523 b 172 524 172 525 172 526 b 171 527 170 527 169 527 b 168 528 165 527 165 525 b 164 523 164 521 163 519 b 162 515 161 512 160 508 b 157 506 154 504 151 502 b 149 501 147 500 145 499 l 145 516 b 146 518 147 519 149 520 b 151 522 154 525 156 527 b 157 528 157 529 158 529 b 159 530 159 533 158 534 b 156 536 154 536 152 534 b 151 533 149 531 148 530 b 147 529 146 528 145 527 l 145 531 b 145 532 145 533 145 534 b 145 536 143 538 141 538 b 139 538 138 536 138 534 l 138 527 b 136 529 134 531 132 533 b 131 533 131 534 130 534 b 129 536 126 536 125 534 b 124 533 124 531 125 529 l 138 516 l 138 499 b 136 500 135 500 134 501 b 131 503 128 505 124 507 b 124 507 123 507 122 508 b 122 509 122 511 121 513 b 120 516 119 519 118 523 b 118 523 118 524 118 525 b 118 526 117 527 116 527 b 115 528 114 528 113 527 b 111 527 110 525 111 523 b 111 521 112 519 112 517 b 113 515 113 514 113 513 b 112 514 111 514 110 515 b 109 515 108 516 107 517 b 106 517 105 517 104 517 b 103 517 102 516 102 515 b 101 513 102 511 103 510 b 104 510 105 509 105 509 b 107 508 108 507 110 506 b 107 506 105 505 102 504 b 101 504 100 504 100 504 b 99 504 98 503 97 502 b 97 501 97 500 97 499 b 98 497 100 496 102 497 b 104 497 106 498 108 498 b 111 499 115 500 119 501 b 122 500 125 498 128 496 b 130 495 132 494 134 492 b 133 492 132 491 130 490 b 127 488 124 487 121 485 z"},"b":{"x_min":0,"x_max":321,"ha":321,"o":"m 171 439 b 169 440 167 440 166 441 b 162 442 159 442 156 443 b 155 444 154 444 153 444 b 152 444 151 444 151 444 b 150 443 149 442 149 441 b 148 439 149 437 151 437 b 154 436 156 436 158 435 b 159 435 160 434 162 434 b 160 434 159 433 158 432 b 157 432 156 431 155 431 b 154 430 154 429 154 428 b 153 427 153 426 154 425 b 155 424 157 423 159 424 b 160 424 160 425 161 425 b 162 426 164 427 165 428 b 165 425 164 423 163 420 b 163 419 163 418 163 418 b 162 417 162 416 163 415 b 163 414 164 413 165 413 b 167 413 169 414 170 416 b 170 418 171 420 171 422 b 172 425 173 429 174 433 b 177 435 180 436 183 438 b 185 439 187 441 190 442 l 190 424 b 188 423 187 422 186 421 b 184 418 181 416 179 413 b 178 413 178 412 177 412 b 176 410 175 408 177 406 b 178 405 181 405 182 406 b 184 408 185 409 187 411 b 188 412 189 413 190 414 l 190 410 b 190 409 190 408 190 407 l 190 406 b 190 405 191 403 193 403 b 195 403 197 404 197 406 l 197 414 b 199 412 201 410 203 408 b 203 407 204 407 204 406 b 206 405 208 405 210 406 b 211 408 211 410 210 412 b 208 413 206 415 205 416 l 197 424 l 197 442 b 198 441 199 440 201 440 b 204 438 207 436 210 434 b 211 434 212 433 212 433 b 213 431 213 430 213 428 b 214 425 215 421 216 418 b 216 418 218 414 218 414 b 219 413 220 413 221 413 b 223 414 224 416 224 418 b 223 420 223 422 222 424 b 222 425 222 427 221 428 b 222 427 223 426 225 426 b 226 425 226 425 228 424 b 228 424 229 423 230 424 b 231 424 232 425 233 425 b 233 427 233 429 231 431 b 231 431 230 431 229 432 b 228 432 226 433 225 434 b 228 435 230 436 233 436 b 233 436 234 437 235 437 b 236 437 237 438 237 439 b 238 439 238 441 238 441 b 237 443 235 445 233 444 b 231 443 229 443 227 442 b 223 441 220 440 216 439 b 213 441 210 443 207 445 b 205 446 203 447 201 448 b 202 449 203 450 204 450 b 208 452 211 454 214 456 b 216 456 219 456 221 456 b 224 455 227 454 231 453 b 232 453 232 453 233 452 b 234 452 235 452 236 453 b 237 453 237 454 238 455 b 238 457 237 459 235 460 b 233 460 231 461 229 461 b 227 462 226 462 225 462 b 226 463 227 464 228 464 b 229 465 230 465 231 466 b 232 466 233 467 233 468 b 233 469 233 470 233 471 b 231 473 229 473 228 472 b 227 472 226 471 226 471 b 224 470 223 469 221 469 b 221 470 224 478 224 479 b 224 480 224 481 224 481 b 223 482 222 483 221 483 b 219 484 217 483 217 481 b 216 479 216 476 215 474 b 214 471 213 468 212 463 b 209 462 206 460 203 458 b 201 457 199 456 197 455 l 197 472 b 198 473 199 475 200 476 b 203 478 205 481 208 483 b 208 484 209 484 210 485 b 211 486 211 489 210 490 b 208 491 206 491 204 490 b 203 488 201 487 200 485 l 197 483 l 197 487 b 197 488 197 489 197 490 b 197 492 195 494 193 494 b 191 494 190 492 190 490 l 190 483 l 182 490 b 181 491 178 491 177 490 b 176 489 175 486 177 485 b 178 484 188 474 190 472 l 190 455 b 188 455 187 456 186 457 b 183 459 179 460 176 462 l 174 463 b 174 465 173 467 173 468 b 172 472 171 475 170 478 b 170 479 170 480 170 481 b 169 482 169 482 168 483 b 167 483 166 483 165 483 b 163 483 162 481 163 479 b 163 477 164 474 164 472 b 165 471 165 470 165 469 b 164 469 163 470 162 471 b 161 471 160 472 159 472 b 158 473 157 473 156 473 b 155 472 154 472 154 471 b 153 469 153 467 155 466 b 156 465 157 465 157 465 b 159 464 160 463 162 462 b 159 462 156 461 154 460 b 153 460 152 460 151 460 b 151 459 150 459 149 458 b 149 457 149 456 149 455 b 149 453 151 452 153 452 b 156 453 158 454 160 454 b 163 455 166 456 171 457 b 174 455 177 453 180 452 b 182 451 184 449 186 448 b 185 447 183 447 182 446 b 179 444 176 442 171 439 z m 380 192 b 365 192 278 159 263 153 b 266 170 268 187 268 204 b 268 279 230 328 178 328 b 132 328 99 266 77 195 b 84 344 94 539 92 546 b 90 557 68 562 50 563 b 38 563 29 562 19 555 b 10 549 -24 254 11 37 b 12 29 33 22 49 22 b 59 22 69 25 69 32 b 69 34 70 45 72 67 b 94 195 130 293 168 293 b 173 293 184 265 184 210 b 184 177 180 143 173 111 b 110 78 57 35 57 -12 b 57 -29 66 -53 100 -53 b 178 -53 236 33 258 124 b 296 141 338 157 382 170 b 396 174 390 192 380 192 z m 43 291 b 40 212 39 127 41 60 b 41 58 40 57 39 57 b 37 57 36 58 36 59 b 34 127 35 212 37 291 b 30 292 25 298 25 305 b 25 313 31 319 38 320 b 43 437 49 535 49 537 b 49 538 51 539 52 539 b 53 539 55 538 54 536 b 54 535 48 437 44 320 b 50 318 55 312 55 305 b 55 298 50 292 43 291 z m 97 -25 b 92 -25 85 -22 85 -9 b 85 20 116 50 165 79 b 147 19 121 -25 97 -25 z m 139 -27 b 138 -28 138 -28 137 -28 b 136 -28 136 -28 135 -27 b 134 -26 134 -25 135 -24 b 223 70 251 232 191 297 b 190 298 190 300 191 301 b 192 301 194 301 195 300 b 257 234 228 68 139 -27 z"},"%":{"x_min":0,"x_max":296,"ha":296,"o":"m 216 30 b 218 30 220 30 222 30 b 224 29 227 29 229 28 b 230 28 231 28 231 27 b 232 27 233 27 233 28 b 234 28 235 29 235 29 b 235 33 231 34 228 34 b 227 35 226 35 225 35 b 226 36 227 36 228 37 b 228 37 229 37 230 38 b 230 38 231 39 231 40 b 231 40 231 41 231 42 b 230 43 228 44 227 43 b 226 43 226 42 225 42 b 224 41 223 41 222 40 b 223 42 223 44 224 46 b 224 47 224 47 224 48 b 224 49 224 49 224 50 b 223 51 223 51 222 51 b 221 52 219 51 218 49 b 218 48 218 46 217 45 b 216 42 216 39 215 36 b 212 35 210 33 208 32 b 206 31 205 30 203 29 b 203 30 203 31 203 32 b 203 35 203 38 203 41 b 203 42 203 42 203 43 b 204 44 205 45 206 46 b 208 48 210 49 211 51 b 212 52 212 52 213 53 b 214 54 214 56 213 57 b 212 58 210 58 209 57 b 207 56 206 54 205 53 b 204 52 204 52 203 51 b 203 52 203 53 203 54 b 203 55 203 56 203 57 b 203 58 202 60 200 60 b 197 60 197 57 197 55 b 197 54 197 52 197 51 b 196 53 194 54 193 56 b 192 56 192 56 191 57 b 190 58 188 58 187 57 b 186 56 186 54 187 53 b 188 52 190 50 191 49 b 193 47 195 45 197 43 b 197 40 197 37 197 35 b 197 33 197 31 197 29 b 196 30 195 30 194 31 b 192 32 189 34 187 35 b 186 35 186 36 185 36 b 185 37 185 39 184 40 b 183 42 183 45 182 49 b 181 50 181 51 180 51 b 180 52 179 52 178 51 b 177 51 176 49 176 48 b 176 46 177 45 177 43 b 178 42 178 41 178 40 b 177 41 176 41 175 42 b 175 42 174 42 173 43 b 173 43 172 43 171 43 b 170 43 170 42 169 42 b 168 40 169 39 170 38 b 171 38 171 37 172 37 b 173 36 174 36 175 35 b 173 34 171 34 169 33 b 168 33 168 33 166 32 b 165 31 165 30 165 29 b 166 28 167 27 169 27 b 170 28 172 28 174 29 b 176 29 179 30 182 31 b 183 31 193 25 194 24 b 193 23 192 23 191 22 b 189 21 186 19 184 18 b 182 18 181 18 179 18 b 176 19 173 20 171 20 b 170 20 169 21 169 21 b 168 21 167 21 167 20 b 166 20 165 19 165 19 b 165 17 166 16 167 15 b 169 15 171 14 172 14 b 173 14 174 13 175 13 b 174 13 173 12 173 12 b 172 11 171 11 170 10 b 170 10 169 9 169 8 b 169 8 169 7 169 6 b 170 5 172 4 173 5 b 174 5 174 6 175 6 b 176 7 177 7 178 8 b 178 6 177 4 176 2 b 176 1 176 1 176 0 b 176 -1 176 -1 176 -2 b 177 -3 177 -3 178 -3 b 180 -4 181 -3 182 -1 b 182 1 184 9 185 12 b 188 14 190 15 192 16 b 194 17 196 18 197 19 b 197 18 197 17 197 16 b 197 13 197 10 197 7 b 197 6 197 6 197 5 b 196 4 195 3 194 2 b 192 1 191 -1 189 -3 b 188 -4 188 -4 187 -5 b 186 -6 186 -8 187 -9 b 188 -10 190 -10 191 -9 b 193 -8 194 -6 195 -5 b 196 -4 196 -4 197 -3 b 197 -4 197 -5 197 -6 b 197 -7 197 -8 197 -9 b 197 -10 198 -12 200 -12 b 203 -11 203 -10 203 -7 b 203 -6 203 -4 203 -3 b 204 -4 206 -6 207 -7 b 208 -8 208 -8 209 -9 b 210 -10 212 -10 213 -9 b 214 -8 214 -6 213 -5 b 212 -3 210 -2 209 -1 b 207 1 205 3 203 5 b 203 8 203 11 203 13 b 203 15 203 17 203 19 b 204 18 205 18 206 17 b 208 16 211 14 213 13 b 214 13 214 12 215 12 b 215 11 216 10 216 8 b 217 6 217 3 218 -1 b 219 -2 219 -3 220 -3 b 220 -3 221 -4 222 -3 b 224 -3 224 -1 224 0 b 224 2 223 3 223 5 b 222 6 222 7 222 8 b 223 8 224 7 225 7 b 225 6 226 6 227 5 b 228 5 228 5 229 5 b 230 5 231 6 231 6 b 232 8 231 9 230 10 b 229 10 229 11 228 11 b 227 12 226 12 225 13 b 227 14 229 14 231 15 b 232 15 232 15 233 15 b 233 15 234 16 234 17 b 235 17 235 18 235 19 b 234 20 233 21 231 21 b 230 20 228 20 226 19 b 224 19 221 18 218 17 b 215 19 213 20 211 21 b 209 22 207 23 206 24 b 207 25 208 25 209 26 b 211 27 214 29 216 30 z m 11 310 b 10 309 9 308 10 307 b 10 305 11 305 13 305 l 16 306 l 16 302 b 16 301 17 300 19 300 b 20 300 21 301 21 302 l 21 306 l 24 305 b 26 305 27 305 28 306 b 28 308 27 309 26 310 l 21 311 l 21 316 l 27 314 b 28 314 29 314 29 314 b 30 314 30 315 30 316 l 32 322 l 36 320 l 34 315 b 34 313 35 312 37 312 b 38 312 39 312 39 313 l 40 317 l 43 315 b 44 315 44 315 45 315 b 46 315 46 315 47 316 b 48 317 47 319 46 319 l 43 321 l 45 324 b 46 325 46 326 45 327 b 45 328 43 328 42 327 l 38 324 l 34 326 l 39 330 b 39 331 40 332 40 332 b 40 333 39 334 39 334 l 34 338 l 38 340 l 42 337 b 42 337 43 336 44 336 b 44 336 45 337 46 337 b 47 338 46 340 45 341 l 43 343 l 46 345 b 47 346 48 347 47 349 b 46 350 45 350 44 349 l 40 348 l 40 351 b 39 352 38 353 37 353 b 35 353 34 351 35 350 l 36 345 l 32 343 l 30 349 b 29 351 28 351 27 351 l 21 349 l 21 353 l 26 355 b 27 355 28 357 28 358 b 27 359 26 360 24 360 l 21 359 l 21 362 b 21 364 20 365 19 365 b 17 365 16 364 16 362 l 16 359 l 13 360 b 12 360 10 359 10 358 b 9 357 10 355 11 355 l 16 353 l 16 349 l 10 351 b 9 351 9 351 7 349 l 6 343 l 2 345 l 3 350 b 3 351 2 353 1 353 b -1 353 -2 352 -2 351 l -3 348 l -6 350 b -7 350 -9 350 -10 349 b -10 347 -10 346 -9 345 l -5 343 l -8 341 b -9 340 -9 338 -8 337 b -8 337 -7 336 -6 336 b -6 336 -5 337 -5 337 l -1 341 l 3 338 l -2 334 b -2 334 -2 333 -2 332 b -2 332 -2 331 -2 330 l 3 326 l -1 324 l -5 328 b -6 329 -7 328 -8 327 b -9 326 -9 325 -8 324 l -5 321 l -9 319 b -10 319 -10 317 -10 316 b -9 315 -8 315 -6 315 l -3 317 l -2 314 b -2 312 -1 312 1 312 b 2 312 3 313 3 315 l 2 320 l 6 322 l 7 316 b 7 315 8 314 8 314 b 9 314 9 314 10 314 l 16 316 l 16 311 z m 26 320 l 21 321 l 21 325 b 22 325 23 326 24 326 l 27 324 z m 30 336 l 33 332 l 30 329 l 26 331 b 26 333 26 333 26 334 z m 21 343 l 26 345 l 27 340 l 24 338 b 23 339 22 339 21 339 z m 19 335 b 20 335 21 334 21 332 b 21 331 20 330 19 330 b 17 330 16 331 16 332 b 16 334 17 335 19 335 z m 11 345 l 16 344 l 16 340 b 15 339 14 339 14 338 l 10 340 z m 8 329 l 4 332 l 8 336 l 11 334 b 11 333 11 333 11 331 z m 11 320 l 10 324 l 14 326 b 14 326 15 325 16 325 l 16 321 z m 193 181 b 160 181 147 162 147 146 b 147 129 157 95 191 95 b 224 95 240 130 240 146 b 240 167 227 181 193 181 z m 194 132 b 185 132 179 138 179 147 b 179 155 185 162 194 162 b 202 162 209 155 209 147 b 209 138 202 132 194 132 z m 85 381 b 119 381 134 417 134 432 b 134 453 122 468 88 468 b 54 468 42 449 42 432 b 42 416 52 381 85 381 z m 88 440 b 96 440 103 433 103 425 b 103 416 96 410 88 410 b 79 410 73 416 73 425 b 73 433 79 440 88 440 z m 259 538 b 254 541 250 542 247 542 b 243 542 240 538 236 536 b 191 495 23 108 12 40 b 11 31 24 24 34 24 b 38 24 41 25 43 27 b 68 57 271 457 281 506 b 284 519 278 529 259 538 z m 243 506 l 152 311 b 156 308 158 304 158 299 b 158 291 152 284 143 284 b 142 284 141 284 140 285 l 44 79 b 44 78 43 78 42 78 b 41 78 41 78 40 78 b 39 78 39 80 39 81 l 135 287 b 131 290 128 294 128 299 b 128 312 138 313 147 313 l 238 508 b 238 509 240 510 241 509 b 243 509 243 507 243 506 z"}}}
